<?xml version="1.0" encoding="utf-8"?>
<!-- Generator: Adobe Illustrator 17.1.0, SVG Export Plug-In . SVG Version: 6.00 Build 0)  -->
<!DOCTYPE svg PUBLIC "-//W3C//DTD SVG 1.1//EN" "http://www.w3.org/Graphics/SVG/1.1/DTD/svg11.dtd">
<svg version="1.1" id="Слой_1" xmlns="http://www.w3.org/2000/svg" xmlns:xlink="http://www.w3.org/1999/xlink" x="0px" y="0px"
	 viewBox="0 0 200 200" enable-background="new 0 0 200 200" xml:space="preserve">
<g>
	<circle fill="#E29153" cx="99.6" cy="97" r="68.4"/>
	<g>
		<polygon fill="#FFFFFF" points="111.3,96.8 84.4,69.8 52,100.6 58.3,100.6 58.3,131.2 79.5,131.2 79.5,108 88.1,108 88.1,131.2 
			106.6,131.2 106.6,127.6 91.7,127.6 91.7,104.9 76.4,104.9 76.4,128.1 62.4,128.1 62.4,98 60.1,98 84.5,74.6 110.2,100.3 		"/>
		<polygon fill="#FFFFFF" points="137.6,62.8 147.2,72.4 123.4,96.2 114,86.7 		"/>
		<polyline fill="#E29153" points="140.6,65.8 116.8,89.6 118.2,91 142,67.2 		"/>
		<polyline fill="#E29153" points="119.5,92.3 143.3,68.5 144.5,69.8 120.8,93.5 		"/>
		<polygon fill="#FFFFFF" points="114,86.7 111.6,97.7 113.3,99.4 123.4,96.2 		"/>
	</g>
</g>
</svg>
