<?xml version="1.0" encoding="utf-8"?>
<!-- Generator: Adobe Illustrator 17.1.0, SVG Export Plug-In . SVG Version: 6.00 Build 0)  -->
<!DOCTYPE svg PUBLIC "-//W3C//DTD SVG 1.1//EN" "http://www.w3.org/Graphics/SVG/1.1/DTD/svg11.dtd">
<svg version="1.1" id="Слой_1" xmlns="http://www.w3.org/2000/svg" xmlns:xlink="http://www.w3.org/1999/xlink" x="0px" y="0px"
	 viewBox="0 0 200 200" enable-background="new 0 0 200 200" xml:space="preserve">
<g>
	<circle fill="#E29153" cx="99.7" cy="97.2" r="68.4"/>
	<g>
		<g>
			<polygon fill="#FFFFFF" points="54.9,80.3 54.9,69.3 103.2,69.3 117.5,53 144.5,84.5 140.3,88 117.5,61.8 94.6,88 90.6,85 
				93.3,80.5 			"/>
			<polygon fill="#FFFFFF" points="58,82.5 89.6,82.5 87.3,85.2 94.6,91.5 117.4,64.6 137.2,88 137.2,114.8 139.8,114.8 
				139.8,118.7 55.6,118.7 55.6,114.9 58,114.9 58.2,114.9 58.2,105.5 58.2,105.5 			"/>
			<rect x="82.3" y="95" fill="#E29153" width="9.7" height="20.5"/>
			<rect x="65" y="94.1" fill="#E29153" width="4.8" height="4.9"/>
			<rect x="70.5" y="94.1" fill="#E29153" width="4.8" height="4.9"/>
			<rect x="70.5" y="99.7" fill="#E29153" width="4.8" height="4.9"/>
			<rect x="65" y="99.7" fill="#E29153" width="4.8" height="4.9"/>
			<rect x="120.2" y="80.8" fill="#E29153" width="4.5" height="4.5"/>
			<rect x="125.2" y="80.8" fill="#E29153" width="4.5" height="4.5"/>
			<rect x="125.2" y="85.9" fill="#E29153" width="4.5" height="4.5"/>
			<rect x="120.2" y="85.9" fill="#E29153" width="4.5" height="4.5"/>
			<rect x="105.4" y="80.8" fill="#E29153" width="4.5" height="4.5"/>
			<rect x="110.4" y="80.8" fill="#E29153" width="4.5" height="4.5"/>
			<rect x="110.4" y="85.9" fill="#E29153" width="4.5" height="4.5"/>
			<rect x="105.4" y="85.9" fill="#E29153" width="4.5" height="4.5"/>
			<rect x="120.2" y="95" fill="#E29153" width="4.5" height="4.5"/>
			<rect x="125.2" y="95" fill="#E29153" width="4.5" height="4.5"/>
			<rect x="125.2" y="100.2" fill="#E29153" width="4.5" height="4.5"/>
			<rect x="120.2" y="100.2" fill="#E29153" width="4.5" height="4.5"/>
			<rect x="105.1" y="95" fill="#E29153" width="4.5" height="4.5"/>
			<rect x="110.1" y="95" fill="#E29153" width="4.5" height="4.5"/>
			<rect x="110.1" y="100.2" fill="#E29153" width="4.5" height="4.5"/>
			<rect x="105.1" y="100.2" fill="#E29153" width="4.5" height="4.5"/>
			<rect x="58.2" y="105.3" fill="#E29153" width="20.3" height="9.6"/>
			<rect x="59.3" y="106.1" fill="#FFFFFF" width="1.6" height="8.1"/>
			<rect x="61.6" y="106.1" fill="#FFFFFF" width="1.6" height="8.1"/>
			<rect x="64" y="106.1" fill="#FFFFFF" width="1.6" height="8.1"/>
			<rect x="66.3" y="106.1" fill="#FFFFFF" width="1.6" height="8.1"/>
			<rect x="68.7" y="106.1" fill="#FFFFFF" width="1.6" height="8.1"/>
			<rect x="71.1" y="106.1" fill="#FFFFFF" width="1.6" height="8.1"/>
			<rect x="73.4" y="106.1" fill="#FFFFFF" width="1.6" height="8.1"/>
			<rect x="75.8" y="106.1" fill="#FFFFFF" width="1.6" height="8.1"/>
		</g>
		<g>
			<g>
				<path fill="#FFFFFF" d="M117.1,123.9c-3.8,0-6.9,4-7.4,9.2H75.9c-0.6,0-1.1,0.5-1.1,1.1v1.9c0,0.6,0.5,1.1,1.1,1.1h1.2v1.4
					c0,0.3,0.3,0.6,0.6,0.6h2.4v0.9h-2.4c-0.3,0-0.6,0.3-0.6,0.6v1.1c0,0.3,0.3,0.6,0.6,0.6h9.5c0.3,0,0.6-0.3,0.6-0.6v-1.1
					c0-0.3-0.3-0.6-0.6-0.6h-2.4V139h2.5c0.3,0,0.6-0.3,0.6-0.6V137h21.8l0,0c0.8,4.7,3.8,8.1,7.3,8.1c4.1,0,7.5-4.8,7.5-10.6
					C124.6,128.6,121.2,123.9,117.1,123.9z M117.1,140.7c-2.4,0-4.4-2.8-4.4-6.2c0-3.4,2-6.2,4.4-6.2c2.4,0,4.4,2.8,4.4,6.2
					C121.5,137.9,119.5,140.7,117.1,140.7z"/>
			</g>
			<ellipse fill="#E29153" cx="117.1" cy="134.5" rx="4.4" ry="6.2"/>
		</g>
	</g>
</g>
</svg>
