<?xml version="1.0" encoding="utf-8"?>
<!-- Generator: Adobe Illustrator 17.1.0, SVG Export Plug-In . SVG Version: 6.00 Build 0)  -->
<!DOCTYPE svg PUBLIC "-//W3C//DTD SVG 1.1//EN" "http://www.w3.org/Graphics/SVG/1.1/DTD/svg11.dtd">
<svg version="1.1" id="Слой_1" xmlns="http://www.w3.org/2000/svg" xmlns:xlink="http://www.w3.org/1999/xlink" x="0px" y="0px"
	 viewBox="0 0 200 200" enable-background="new 0 0 200 200" xml:space="preserve">
<g>
	<circle fill="#E29153" cx="99.6" cy="97.2" r="68.4"/>
	<g>
		<g>
			<path fill="#FFFFFF" d="M65.7,127.9c0.4-1.8,0.9-3.6,1.3-5.4c0.1,0,0.2,0.1,0.3,0.1c-0.4,1.8-0.9,3.6-1.3,5.4
				C65.9,128,65.8,127.9,65.7,127.9z"/>
			<path fill="#E29153" d="M64.3,132.1c-2.5-10.8,6.8-20.1,17.2-17.1c5.4,1.6,8.7,5.3,9.6,10.8c1,5.6-1,10.4-5.6,13.7
				c-4.5,3.2-9.4,3.5-14.4,0.9c-2.7-1.4-4.7-3.7-6.1-6.4C64.7,133.3,64.5,132.7,64.3,132.1z M65.5,129.3c0,0.6,0.1,1.3,0.1,1.9
				c0.7,3.7,2.8,6.4,6.1,8.1c5.1,2.6,11,1.5,14.9-2.7c3.9-4,4.7-10.3,2-15.1c-2.5-4.4-6.4-6.6-11.4-6.2c-5.3,0.4-9,3.3-11.1,8.2
				C65.4,125.4,64.7,127.3,65.5,129.3z"/>
			<g>
				<path fill="none" stroke="#E29153" stroke-width="0.5" stroke-miterlimit="10" d="M76.8,95.4c0.4-1.2,0.9-2.5,1.3-3.7
					c-0.1-0.1-0.2-0.1-0.4-0.2c-0.2,0.3-0.4,0.7-0.6,1c-0.5,1.3-0.9,2.7-1.5,4c-0.4,0.9-0.8,1.9-1.3,2.7c-0.4,0.7-1.2,1.3-1.4,2.1
					c-1,3.3-1.8,6.6-2.6,9.9c0,0.1,0.1,0.3,0.1,0.5c0.2,0,0.3,0.1,0.5,0.1c0.7-3.8,2.5-7.2,3.9-10.7C75.6,99.3,76.1,97.3,76.8,95.4z
					"/>
				<path fill="none" stroke="#E29153" stroke-width="0.5" stroke-miterlimit="10" d="M64.3,132.1c0.2,0.6,0.4,1.3,0.6,1.9
					c0.1,0.5,0.3,1,0.4,1.5c-0.1-0.5-0.3-1-0.4-1.5c1.4,2.7,3.3,4.9,6.1,6.4c5,2.6,9.9,2.3,14.4-0.9c4.6-3.3,6.6-8,5.6-13.7
					c-1-5.5-4.2-9.2-9.6-10.8C71.1,112,61.8,121.3,64.3,132.1z"/>
				<path fill="none" stroke="#E29153" stroke-width="0.5" stroke-miterlimit="10" d="M78.5,98.9c-0.2,1.7-0.5,3.4-0.7,5.1
					c0.1,0,0.2,0,0.3,0c0.3-1.7,0.5-3.4,0.8-5.1C78.7,98.9,78.6,98.9,78.5,98.9z"/>
				<path fill="none" stroke="#E29153" stroke-width="0.5" stroke-miterlimit="10" d="M81.4,105.2c0.1,0,0.2,0,0.3,0
					c0.1-1.9,0.2-3.7,0.3-5.6c-0.1,0-0.2,0-0.3,0C81.6,101.5,81.5,103.4,81.4,105.2z"/>
				<path fill="none" stroke="#E29153" stroke-width="0.5" stroke-miterlimit="10" d="M78.4,97.6c0.4-1.9,0.7-3.8,1.1-5.7
					C79,93.9,77.6,95.6,78.4,97.6z"/>
				<path fill="#FFFFFF" stroke="#E29153" stroke-width="0.5" stroke-miterlimit="10" d="M82.4,87.2c-2.3-0.1-3.9,1.3-4.8,3.4
					c-4.5,9.9-9,19.7-13.4,29.6c-1.9,4.2-3.1,8.5-1.5,13.2c0.5,1.4,1.1,2.5,2.3,3.3c0.5,0.3,1,0.8,1.2,1.4c0.6,1.4,1.5,2.4,2.9,3
					c0.6,0.3,1.3,0.6,1.9,0.9c3.2,1.8,6.8,1.1,10.2,1.4c0.5,0,1-0.3,1.5-0.5c2-1.1,4.1-2.2,6-3.4c0.7-0.4,1.1-1.2,1.6-1.9
					c0.2-0.4,0.1-1.1,0.4-1.4c1.8-1.9,2.1-4.2,2.2-6.6c0.1-1.5,0.4-3,0.4-4.5c-0.1-1.7-0.4-3.4-0.6-5c-1.1-8.3-2.2-16.7-3.4-25
					c-0.2-1.5-0.6-3-1.2-4.4C86.8,88.4,84.8,87.3,82.4,87.2z M91.1,125.7c1,5.6-1,10.4-5.6,13.7c-4.5,3.2-9.4,3.5-14.4,0.9
					c-2.7-1.4-6.5-7.6-6.7-8.3c-2.5-10.8,6.8-20.1,17.2-17.1C86.8,116.5,90.1,120.3,91.1,125.7z M70.9,111.9c-0.2,0-0.3-0.1-0.5-0.1
					c0-0.2-0.1-0.3-0.1-0.5c0.8-3.3,1.7-6.6,2.6-9.9c0.2-0.8,1-1.4,1.4-2.1c0.5-0.9,1-1.8,1.3-2.7c0.5-1.3,1-2.7,1.5-4
					c0.1-0.4,0.4-0.7,0.6-1c0.1,0.1,0.2,0.1,0.4,0.2c-0.4,1.2-0.9,2.4-1.3,3.7c-0.7,1.9-1.2,3.9-1.9,5.8
					C73.4,104.7,71.6,108.1,70.9,111.9z M77.7,104c0.2-1.7,0.5-3.4,0.7-5.1c0.1,0,0.2,0,0.3,0c-0.3,1.7-0.5,3.4-0.8,5.1
					C77.9,104,77.8,104,77.7,104z M81.7,105.3c-0.1,0-0.2,0-0.3,0c0.1-1.9,0.2-3.7,0.2-5.6c0.1,0,0.2,0,0.3,0
					C81.9,101.6,81.8,103.4,81.7,105.3z M78.4,97.6c-0.8-2.1,0.6-3.8,1.1-5.7C79.1,93.9,78.8,95.7,78.4,97.6z"/>
			</g>
			<path fill="#E29153" d="M65.6,131.2c0-0.6-0.1-1.3-0.1-1.9c0-0.7,0.1-1.3,0.1-2c0.6-9,10.7-14.5,18.3-10.1
				c4.2,2.4,6.5,7.3,5.7,12.2c-0.7,5.1-4.6,9.3-9.6,10.5c-4.8,1.1-9.6-0.7-12.5-4.9C66.8,133.9,66.3,132.5,65.6,131.2z M66.8,128.8
				c0,0.3,0,0.5,0,0.8c-0.3,2.1,0.7,3.9,1.8,5.4c2.6,3.4,6.2,4.8,10.4,4c4.5-0.8,7.4-3.6,8.8-7.9c1.8-5.7-1.2-11.6-6.7-13.5
				c-5.3-1.8-11.6,1.1-13.7,6.5C66.7,125.6,65.9,127.1,66.8,128.8z"/>
			<path fill="#FFFFFF" d="M65.6,131.2c0.7,1.3,1.2,2.7,2,3.8c2.8,4.2,7.7,6.1,12.5,4.9c5-1.2,8.9-5.4,9.6-10.5
				c0.7-4.9-1.6-9.8-5.7-12.2c-7.7-4.5-17.8,1.1-18.3,10.1c0,0.7-0.1,1.3-0.1,2c-0.8-2-0.2-4,0.6-5.8c2-4.9,5.8-7.8,11.1-8.2
				c5-0.4,8.9,1.8,11.4,6.2c2.8,4.8,1.9,11.1-2,15.1c-4,4.2-9.9,5.3-14.9,2.7C68.4,137.6,66.3,134.9,65.6,131.2z"/>
			<path fill="#E29153" d="M66.7,129.6c0-0.3,0-0.5,0-0.8c0-2.6,0.8-5,2.4-7.1c3.5-4.6,9.6-5.6,14.4-2.4c4.5,3.1,5.6,9.4,2.5,14.3
				c-2.9,4.8-9.2,6.5-13.9,3.9C69,135.8,67.3,133.1,66.7,129.6z M68.5,128.5c0.2,1.2,0.2,2.6,0.7,3.7c1.5,3.6,5.3,5.5,9.2,5
				c3.9-0.5,7.1-3.6,7.8-7.6c0.7-3.9-1.2-7.8-4.7-9.6c-3.3-1.7-7.8-1-10.4,1.7C69.4,123.6,68,125.8,68.5,128.5L68.5,128.5z"/>
			<path fill="#FFFFFF" d="M66.7,129.6c0.6,3.5,2.3,6.2,5.4,8c4.7,2.6,11,0.9,13.9-3.9c3-4.9,1.9-11.3-2.5-14.3
				c-4.8-3.3-10.9-2.2-14.4,2.4c-1.6,2.1-2.4,4.5-2.4,7.1c-0.8-1.7-0.1-3.2,0.5-4.7c2.1-5.4,8.4-8.4,13.7-6.5
				c5.5,1.9,8.5,7.8,6.7,13.5c-1.3,4.3-4.3,7.1-8.8,7.9c-4.2,0.8-7.8-0.6-10.4-4C67.4,133.4,66.5,131.7,66.7,129.6z"/>
			<path fill="#FFFFFF" d="M68.6,128.6c-0.5-2.8,0.8-4.9,2.6-6.8c2.6-2.8,7.1-3.4,10.4-1.7c3.5,1.8,5.4,5.7,4.7,9.6
				c-0.7,4-3.9,7-7.8,7.6c-3.9,0.5-7.6-1.5-9.2-5C68.8,131.1,68.8,129.8,68.6,128.6c0.1,0.4,0.3,0.8,0.4,1.2c0.4,2.8,2,4.9,4.4,6.2
				c3.3,1.8,7.5,1.1,10.1-1.6c2.7-2.8,3.3-7,1.5-10.4c-1.7-3.2-5.4-4.9-9-4.3c-3.7,0.7-6.6,3.8-7.1,7.6
				C68.8,127.7,68.6,128.2,68.6,128.6z"/>
			<path fill="#E29153" d="M68.6,128.6c0.1-0.4,0.2-0.9,0.3-1.3c0.5-3.8,3.4-6.9,7.1-7.6c3.6-0.7,7.3,1.1,9,4.3
				c1.8,3.4,1.2,7.6-1.5,10.4c-2.6,2.7-6.8,3.4-10.1,1.6c-2.4-1.3-4-3.3-4.4-6.2C68.9,129.4,68.7,128.9,68.6,128.6
				C68.5,128.5,68.6,128.6,68.6,128.6z M71,126.9c-0.1,1-0.3,1.9-0.2,2.9c0.4,3.1,2.8,5.4,5.9,5.7c3.2,0.4,6.3-1.4,7.6-4.6
				c1.1-2.7,0.7-5.3-1.2-7.5c-1.9-2.1-4.3-2.8-7-2C73.3,122.3,71.5,124,71,126.9L71,126.9z"/>
			<path fill="#FFFFFF" d="M71.1,126.9c0.4-3,2.3-4.6,5-5.5c2.7-0.8,5.2-0.1,7,2c2,2.2,2.3,4.8,1.2,7.5c-1.3,3.2-4.4,4.9-7.6,4.6
				c-3-0.4-5.4-2.6-5.9-5.7C70.7,128.8,71,127.8,71.1,126.9c0,0.7,0,1.4,0.1,2.2c0.3,3.1,2.5,5.5,5.4,5.9c2.9,0.4,6-1.2,7.2-3.9
				c1.4-3,0.6-6.4-1.9-8.3c-2.2-1.7-5.7-1.8-7.9,0.2C72.7,124,72,125.6,71.1,126.9z"/>
			<path fill="#E29153" d="M71.1,126.9c0.9-1.3,1.7-2.9,2.9-3.9c2.2-2,5.7-1.9,7.9-0.2c2.5,2,3.3,5.3,1.9,8.3
				c-1.2,2.6-4.3,4.3-7.2,3.9c-3-0.4-5.2-2.8-5.4-5.9C71.1,128.3,71.1,127.6,71.1,126.9C71,126.9,71.1,126.9,71.1,126.9z
				 M72.7,125.3c-1.6,2.6-0.8,6.1,1.8,7.7c2.7,1.8,6.4,1,8.1-1.8c1.7-2.7,0.9-6.3-1.7-8C77.9,121.5,74.5,122.4,72.7,125.3z"/>
			<path fill="#FFFFFF" d="M72.7,125.3c1.9-2.9,5.3-3.8,8.1-2c2.6,1.7,3.4,5.3,1.7,8c-1.7,2.7-5.3,3.5-8.1,1.8
				C71.8,131.4,71,127.9,72.7,125.3z M73,125.6c-1.5,2.7-0.6,6,2,7.4c2.6,1.4,5.8,0.4,7.3-2.2c1.4-2.6,0.5-5.9-2-7.3
				C77.6,122.1,74.4,123,73,125.6z"/>
			<path fill="#E29153" d="M73,125.6c1.4-2.6,4.6-3.5,7.3-2.1c2.6,1.4,3.5,4.7,2,7.3c-1.4,2.6-4.7,3.6-7.3,2.2
				C72.4,131.6,71.5,128.3,73,125.6z M73.8,126c-1.2,2-0.5,4.8,1.5,6c2.1,1.3,4.8,0.6,6.1-1.5c1.2-2.1,0.5-4.9-1.6-6.1
				C77.8,123.2,75,124,73.8,126z"/>
			<path fill="#FFFFFF" d="M73.8,126c1.2-2,4-2.8,6-1.6c2.1,1.2,2.8,4,1.6,6.1c-1.2,2.1-4,2.8-6.1,1.5C73.3,130.8,72.6,128,73.8,126
				z M81,130.2c1.1-2,0.5-4.3-1.5-5.4c-1.9-1.1-4.2-0.4-5.3,1.5c-1.1,1.9-0.5,4.3,1.3,5.4C77.4,132.8,79.9,132.1,81,130.2z"/>
			<path fill="#E29153" d="M81,130.2c-1.1,1.9-3.6,2.6-5.4,1.5c-1.8-1.1-2.4-3.5-1.3-5.4c1.1-1.9,3.4-2.6,5.3-1.5
				C81.5,125.9,82.1,128.2,81,130.2z M78.7,126.1c-1-0.6-2.4-0.2-3.1,1c-0.7,1.2-0.4,2.7,0.7,3.3c1,0.5,2.4,0,3.1-1.1
				C80.1,128,79.8,126.7,78.7,126.1z"/>
			<path fill="#FFFFFF" d="M78.7,126.1c1,0.6,1.3,2,0.7,3.2c-0.6,1.1-2,1.6-3.1,1.1c-1.1-0.6-1.4-2.1-0.7-3.3
				C76.3,125.9,77.7,125.5,78.7,126.1z"/>
		</g>
		<path fill="#FFFFFF" d="M101.4,98c-0.7-0.1-1.4-0.2-2.1-0.3c0.2,0.9,0.4,1.8,0.7,2.7c0.4,1.8,0.8,3.5,1.3,5.3
			c0.3,1.2-0.2,2.3-1.3,2.9c-1,0.5-2.3,0.3-3.1-0.6c-0.3-0.4-0.5-0.9-0.6-1.3c-0.7-2.8-1.4-5.6-2-8.4c0,0,0-0.1-0.1-0.2
			c-0.1,0.1-0.3,0.2-0.4,0.3c-0.6,0.6-1.1,1.3-1.2,2.2c-0.3,2.3-0.5,4.7-0.8,7c-0.3,2.3,1.5,4,3.4,4.2c3.5,0.4,7,0.9,10.5,1.3
			c0.1,0,0.3,0,0.4,0c0-0.1,0-0.2,0.1-0.3c0.4-3.4,0.8-6.8,1.3-10.2c0.3-2.1-1.1-3.9-3.2-4.2c-0.3,0-0.4-0.2-0.5-0.5
			c-0.3-1.1-0.6-2.2-1-3.3c-0.7-2.2-3.3-3.4-5.4-2.5c-1.6,0.7-2.6,2.5-2.1,4.3c0.8,3.4,1.7,6.8,2.5,10.3c0.2,0.6,0.8,1,1.4,0.9
			c0.6-0.2,0.9-0.8,0.8-1.4c-0.7-3.2-1.5-6.3-2.3-9.4c-0.1-0.3-0.2-0.6-0.2-0.9c-0.1-0.9,0.5-1.6,1.4-1.6c0.8,0,1.4,0.3,1.7,1.1
			C100.9,96.1,101.1,97.1,101.4,98z"/>
		<path fill="#E29153" d="M75,105.7c0.3-0.2,0.5-0.3,0.8-0.5c0.3,0.3,0.5,0.5,0.6,0.9c0.1,0.6,0.3,1.1,0.8,1.4
			c0.2-0.3,0.4-0.7,0.6-1c0.5,0.1,0.9,0.2,1.2,0.6c0.2,0.4,0.7,0.8,1.2,0.9c0.1-0.4,0.1-0.7,0.2-1.1c0.4,0,0.8,0,1.1,0.5
			c0.3,0.5,0.7,0.9,1.3,1c0.1-0.4,0.1-0.7,0.2-1.1c0.5,0,0.9,0.1,1.1,0.5c0.3,0.5,0.7,0.8,1.3,0.9c0.1-0.4,0.1-0.7,0.2-1.1
			c0.5,0,0.9,0.1,1.1,0.5c0.3,0.5,0.7,0.8,1.3,0.9c0.1-0.4,0.1-0.7,0.2-1.1c0.5,0,0.8,0,1.1,0.5c0.2,0.4,0.6,0.6,0.9,0.9
			c0,0,0.1,0,0.1-0.1c0.1-1,0.3-2,0.4-3.1c-0.1,0-0.3,0-0.4-0.1c-3.7-0.5-7.5-1-11.2-1.5c-0.7-0.1-1.2-0.4-1.6-1
			c-0.5-0.7-0.6-1.4-0.1-2.2c0.5-0.8,1.2-1.3,2.2-1.2c2.9,0.4,5.8,0.8,8.7,1.2c1,0.1,1.9,0.3,3,0.4c0.1-0.8,0.2-1.5,0.3-2.2
			c0-0.1-0.1-0.3-0.2-0.4c-0.3-0.4-0.6-0.7-1.2-0.8c-0.1,0.4-0.1,0.7-0.2,1.1c-0.4,0-0.8,0-1.1-0.5c-0.3-0.5-0.7-0.9-1.3-1
			c-0.1,0.4-0.1,0.7-0.2,1.1c-0.4,0-0.8,0-1.1-0.5c-0.3-0.5-0.7-0.9-1.3-1c-0.1,0.4-0.1,0.7-0.2,1.1c-0.4,0-0.8,0-1.1-0.5
			c-0.3-0.5-0.7-0.9-1.3-1c-0.1,0.4-0.1,0.8-0.2,1.1c-0.5,0-0.8-0.1-1.1-0.5c-0.3-0.5-0.7-0.8-1.3-0.9c-0.1,0.4-0.1,0.8-0.2,1.1
			c-0.5,0-0.9,0-1.3-0.3c-0.4-0.3-0.9-0.5-1.4-0.4c0.1,0.3,0.1,0.5,0.2,0.7c0.1,0.5-0.2,0.9-0.8,0.9c-0.4,0-0.9,0.1-1.3,0.2
			c-0.1,0-0.3,0.1-0.5,0.2c0.2,0.2,0.4,0.4,0.5,0.5c0.4,0.4,0.3,0.8-0.1,1.2c-0.3,0.3-0.6,0.6-0.9,0.9c-0.1,0.1-0.2,0.4-0.3,0.6
			c0.4,0,0.8,0.1,1.2,0.1c0,0.4,0,0.8,0,1.1C74.8,104.6,74.7,105.2,75,105.7z"/>
		<path fill="#FFFFFF" d="M108.8,103.6c-0.1,1.1-0.3,2.1-0.4,3.2c0.7,0.1,1.4,0.2,2,0.3c1,0.1,1.3,0.5,1.1,1.5c0,0.3-0.1,0.6-0.1,1
			c-0.1,0.7-0.5,1-1.2,0.9c-0.7-0.1-1.5-0.2-2.3-0.3c-0.1,1.1-0.3,2.1-0.4,3.2c0.1,0,0.2,0.1,0.3,0.1c0.7,0.1,1.4,0.2,2,0.3
			c2.3,0.3,4.4-1.3,4.7-3.6c0.1-0.9,0.3-1.8,0.1-2.8c-0.4-1.7-1.4-2.8-3.1-3.2C110.7,103.7,109.8,103.7,108.8,103.6z"/>
		<path fill="#FFFFFF" d="M135,119.1c-1-0.8-1.4-1.7-1.4-2.9c0-0.7-0.1-1.5-0.3-2.2c-0.9-3.1-1.5-6.3-2.7-9.3
			c-1.9-4.6-0.3-9.1,0-13.6c0-0.7,0.4-1.5,0.2-2c-0.2-0.4-1-0.6-1.5-0.9c0.9-0.8,1.9-1.6,3.1-2.6c-0.7-0.3-1.3-0.5-1.9-0.8
			c-0.7,1.1-0.7,3.3-2.3,0.9c0-0.1-0.2-0.2-0.3-0.1c-2.1,0.6-1.6-1.1-1.7-2c-0.2-1.8-0.1-3.6-0.1-5.5c0-4.5-1.6-8.4-4.8-11.5
			c-1.2-1.1-2.7-2-4.1-2.8c-1.6-0.8-3.4-1.3-5-2.1c-0.5-0.2-1-1.1-0.9-1.6c0.1-0.8,0.1-1.5,0-2.1l0,0l1.3-0.9
			c0.7-0.4,0.5-1.4-0.2-1.6L110,55c-0.6-1-1.4-1.8-2.3-2.7c-1.1-1-2.5-1.6-4.1-0.9c-1.2,0.5-2.5,2.3-3.2,4.2h0l-2.8,1.6
			c-0.7,0.4-0.6,1.4,0.1,1.6l2,0.8h0c0,0.2,0.1,0.4,0.2,0.6c0.9,1.9,2.2,3.7,3.5,5.4c0.8,1,0.7,1.6-0.1,2.4c-1.9,1.9-3.4,4-3.1,6.9
			c0,0.5-0.2,1-0.4,1.5c-0.8,2.9-1.7,5.9-2.4,8.8c-0.7,2.9-1.9,9.5-1.3,10c0.8,0.7,4.2,0,4.2,0s0,0,0,0c0.6-0.1,0.4-1.2,1-1.9
			c1-1.3,4.2-6,4.8-7.3c1.9,2.5,2.2,5.1,0.8,7.9c-0.9,1.8-1.3,3.7-1.9,5.6c-0.2,0.6-0.4,1.1-0.8,2.3l-1.7,21.4l0,0
			c0,0.5,0,0.9-0.2,1.3c-0.7,1.4-1.9,2.6-2.6,4c-0.4,0.8-0.8,1.9-0.6,2.8c0.3,1.2,1.6,1.2,2.6,0.9c0.9-0.3,1.8-0.9,2.7-1.4
			c1.2-0.7,2.3-1.5,3.6-2.1c1.3-0.6,1.9-1.3,1.8-2.9c0-1.5,0.4-3.1,0.7-4.6c0.1-0.5,0.3-1,0.3-1.5c-0.2-2.7-0.5-5.3-0.5-8
			c0-1.2,0-2.4,0.5-3.5c1.1-2.4,2.3-4.7,3.7-6.9c1.1-1.9,3.6-1.8,4.6,0.1c3.8,7.2,7.5,14.4,11.2,21.6c0.5,0.9,0.4,2.1,0.6,3.1
			c0.1,0.5-0.1,1,0,1.5c0.2,1.3,0.9,2.2,2.3,2.2c1.4,0,2.3-0.6,2.4-2c0.1-0.8-0.1-1.7-0.1-2.5c0-0.7,0-1.5,0.3-2
			C136.8,121.7,136.7,120.4,135,119.1z"/>
	</g>
</g>
</svg>
