<?xml version="1.0" encoding="utf-8"?>
<!-- Generator: Adobe Illustrator 17.1.0, SVG Export Plug-In . SVG Version: 6.00 Build 0)  -->
<!DOCTYPE svg PUBLIC "-//W3C//DTD SVG 1.1//EN" "http://www.w3.org/Graphics/SVG/1.1/DTD/svg11.dtd">
<svg version="1.1" id="Слой_1" xmlns="http://www.w3.org/2000/svg" xmlns:xlink="http://www.w3.org/1999/xlink" x="0px" y="0px"
	 viewBox="0 0 200 200" enable-background="new 0 0 200 200" xml:space="preserve">
<g>
	<circle fill="#E29153" cx="99.3" cy="97.1" r="68.4"/>
	<g>
		<g>
			<path fill="#FFFFFF" d="M86.9,81.7C86.5,81.8,86,81.8,85,82c0.8-1.1,1.3-1.8,2.2-3c-1.1,0.3-1.8,0.5-2.7,0.7
				c0.6-1.7,0.6-3.6,2.7-4.5c1.9-0.8,1.6-2.2,0.7-3.5c-0.6-0.5-1.6-0.9-1.6-1.5c0-0.6,0.6-1.6,1.2-1.8c1.8-0.6,0.5-2,1.1-2.9
				c-0.6,0-1,0-1.6,0c0.6-1.3,1.2-2.5,1.8-3.7c-0.6-0.2-1.1-0.3-1.6-0.4c-0.1-0.1-0.3-0.2-0.4-0.3c2.6-0.5,1.9-2.5,2.3-4.1
				c0.7,1.4-0.7,4.2,2.9,3.8c-0.8,0.7-1.1,1-1.3,1.2c0.6,0.8,1.3,1.5,1.9,2.3c-0.2,0.1-0.4,0.3-0.5,0.3c0.4,0.7,0.8,1.4,1.2,2.1
				c-0.3,0.2-0.7,0.4-1.1,0.6c0.9,0.7,1.8,1.5,2.7,2.3c-0.1,0.2-0.1,0.3-0.2,0.5c-0.8-0.2-1.7-0.4-2.5-0.7c-0.1,0.1-0.2,0.3-0.3,0.4
				c0.5,0.5,0.9,1.2,1.5,1.4c0.6,0.2,1.4-0.2,2.5-0.4c-0.6,1-0.9,1.4-1.2,2c-0.4-0.1-0.8-0.3-1.3-0.5c-0.3,0.6-0.7,1.2-1,1.8
				c0.7,0,1.3,0,2-0.1c1.6-0.3,2.6,0.2,2.4,1.5c-0.1,0.6-0.9,1.2-1.6,2c0.4,0.4,0.9,1.1,1.6,1.5c0.6,0.4,1.5,0.5,2.2,0.8
				c0,0.2,0,0.4,0,0.6c-0.9,0.3-1.7,0.6-2.6,1c-0.2,0.1-0.5,0.6-0.4,0.8c0.1,0.4,0.3,0.8,0.7,1c1.4,1.1,2.9,2.1,4.7,3.3
				c-1.8,0.8-3.2,1.5-4.6,2.1c-0.3-0.4-0.7-0.8-1.1-1.2c-0.1,0.1-0.2,0.3-0.4,0.4c0.3,1.3,1.6,1.6,2.7,2c0.7,0.3,1.5,0.6,2.1,1.1
				c0.3,0.3,0.4,0.9,0.5,1.3c-0.4,0.1-0.8,0.2-1.3,0.3c-0.4,0.1-0.7,0.3-1.2,0.5c1.6,1.8,2.2,4.2,4.8,4.9c0.4,0.1,0.6,1.1,0.9,1.6
				c-0.1,0.1-0.2,0.2-0.3,0.3c-1.7-0.6-3.4-1.3-5-1.9c-0.1,0.1-0.1,0.2-0.2,0.3c1.3,1,2.5,2,3.9,3.1c-1.8,1.3-2.9,0.2-4.1-0.6
				c1.8,2.2,4.3,3.8,4.9,6.8c-0.1,0.1-0.3,0.2-0.4,0.3c-0.4-0.3-0.8-0.6-1.1-0.9c-0.1,0.1-0.2,0.1-0.2,0.2c0.3,0.4,0.5,0.7,0.8,1.1
				c0.4,0.6,0.8,1.3,0.9,2c0.1,0.5-0.3,1.1-0.4,1.7c-0.6-0.3-1.2-0.5-1.7-0.9c-0.4-0.3-0.6-0.9-1.1-1.2c0.6,1.3,1.3,2.6,1.7,4
				c0.2,0.6,0,1.5-0.3,2c-0.7,0.9-0.6,1.5,0.3,2.1c1.9,1.2,2.7,3.1,3.3,5.3c-1-0.2-1.9-0.4-2.9-0.7c-0.3,0.3-0.5,0.9-0.9,1.1
				c-0.5,0.3-1.2,0.4-1.7,0.3c-0.2,0-0.5-0.8-0.4-1.2c0.2-1.4-0.1-2.2-1.7-2.4c-1-0.2-2-0.9-3.4-1.6c0.1,1.3,0.1,2.3,0.2,3.3
				c0.4,2.9,0.2,3.1-2.7,3.1c-1.2,0-1.5-0.5-1.4-1.6c0.1-0.9,0.1-1.8,0.1-2.7c0-0.3-0.3-0.8-0.4-0.8c-0.3,0-0.7,0.2-1,0.4
				c-1.8,2.1-4.5,2.7-6.7,3.9c-0.7,0.4-2-0.2-3.2-0.3c-0.1-2.6,3.5-2.7,4-5.6c-1.6,1.3-2.8,2.3-4.3,3.5c-0.1-2.5,1.3-4,2.5-5.6
				c0.9-1.1,2-2.1,2.8-3.3c0.5-0.8,0.5-1.8,0.8-3c-1.6,0.7-3.1,1.4-4.7,2.1c-0.3-1.5,1.1-3.4-1.5-3.6c0.3-2.4,0.9-4.2,3-5.6
				c1.1-0.7,2-1.8,2.9-2.9c0.4-0.4,0.5-1,0.7-1.5c-0.1-0.1-0.3-0.2-0.4-0.3c-0.5,0.4-0.9,0.9-1.5,1.4c-0.4-3.3,2.9-4.9,3.6-7.5
				c-0.2-0.1-0.3-0.1-0.5-0.2c-0.8,0.5-1.5,1-2.4,1.6c0.5-2.2,1.1-4,3.2-5.4c-1,0.2-2.1,0.4-3.1,0.5c-0.1-0.1-0.1-0.2-0.2-0.3
				c0.9-0.6,1.8-1.3,2.7-1.9c-0.1-0.2-0.2-0.3-0.3-0.5c-0.8,0.4-1.6,0.8-2.8,1.4c0.8-1.7,0.5-3.4,2.6-3.8c0.6-0.1,1-0.9,1.5-1.3
				C87.1,82,87,81.9,86.9,81.7z"/>
			<path fill="#FFFFFF" d="M47.6,118.2c0.5,0.5,1,1,1.6,1.4c0.3,0.2,0.8,0.2,1.2,0.3c0.1-0.4,0.2-0.8,0.2-1.2c0-0.8,0.1-1.7-0.1-2.4
				c-0.4-1.2-2-2.7-1.8-3.8c0.2-1.4,1.6,0.9,2.5,1.4c-0.1-0.8-0.7-1.6-0.3-2.2c0.3-0.4,1.1-0.2,1.7-0.3c-0.1,0.1-0.3,0.2-0.4,0.3
				c-0.7-0.6-2.1-0.9-2.1-1.8c0-0.3,0.5-0.4,0.8-0.5c0.4-0.6,0.9-1.3,1.4-2.1c-0.7-0.3-1.5-0.1-1.7-0.8c-0.2-0.6,0.6-1,0.9-1.4
				c0.6-0.9,1.8-1.6,0.9-3c-0.1-0.1-0.1-0.6,0-0.6c1.6-1.1,0.8-2.7,0.8-4.1c0-1-0.1-2,1.4-1.2c0.3,0.2,0.8-0.2,1.3-0.3
				c-0.1-0.4-0.2-0.9-0.4-1.2c-0.2-0.4-0.5-0.8-0.8-1.2c1.7-1.2,1.8-2.7,1.1-4.6c-0.4-1-0.4-2.2-0.5-3.2c0-0.3,0.3-0.5,0.5-0.4
				c0.7,0.2,1.3,0.5,2,0.7c-0.3-0.9-1.7-2.1-1-2.8c0.3-0.3,0.9,0.2,1.6,0.4c0.1-0.7,0.6-1.5,0.3-2c-0.6-1.3-0.3-2.2,0.4-3.5
				c1-1.7,1.2-3.9,2-5.8c0.5-1.2,1.1-2.4,1.8-3.6c0.2-0.3,0.6-0.3,0.7,0c1,2.1,2.2,4.2,2.5,6.6c0.1,1.1,1.8,2.2-0.5,3.5
				c0.9,0,1.4-0.5,1.7-0.1c0.5,0.7-0.6,1.6-0.9,2.4c0.3,0.1,0.9-0.1,1.2,0.3c0.5,0.9-0.6,1.9-1,3.3c0.8-0.5,1.3-2,2.1-1.3
				c1.6,1.2-1,3.6-1.6,5.4c0.5-0.2,1-0.8,1.4-0.4c0.7,0.7-0.7,1.8-1,2.6c0.1,0.1,0.2,0.1,0.3,0.2c0.4-0.7,0.8-1.4,1.2-2.1
				c0.1,0,0.2,0.1,0.4,0.1c-0.4,1.2-0.7,2.4-1.1,3.6c-0.4,1-0.9,1.9-1.3,2.8c-0.1,0.2,0,0.5,0.3,0.6c0.9,0.2,1.6,0.4,2.4,0.6
				c0.3,0.1,0.4,0.4,0.2,0.6c-0.6,0.9-1.1,1.7,0.3,2.4c0.2,0.1,0.3,0.4,0.2,0.6c-0.4,0.7-0.8,1.3-1.2,2c0.4,0.3,0.8,0.6,1.3,1
				c0.3-0.3,0.7-0.6,1.2-1.1c0.5,1,0.1,1.7-0.7,2.3c-0.6,0.5-1,1.3-1.5,1.9c0.1,0.1,0.2,0.2,0.3,0.3c0.4-0.4,0.9-0.8,1.3-1.2
				c0.1,0.1,0.2,0.1,0.2,0.2c-0.3,0.6-0.6,1.2-0.9,1.8c-0.5,1.3-1.3,2.4-0.9,4c0.2,0.7-0.4,1.7-0.7,2.5c-0.6,1.3-1.4,2.5-1.8,3.8
				c-0.2,0.8,0.2,1.8,0.4,2.9c-0.4,0.8-0.8,2-1.5,3.1c-0.2,0.4-0.7,0.7-1.2,0.7c-2.5,0-5-0.1-7.5-0.2c-0.9,0-1.9-0.1-2.8-0.3
				c-1.3-0.2-2.8-0.5-3.8-1.3c-1.5-1.1-2.6-2.8-3.8-4.2C47.3,118.6,47.4,118.4,47.6,118.2z"/>
			<path fill="#FFFFFF" d="M78.8,109.5c0.1,3.7,0.1,3.7,3.6,2.9c-1.1,1.5-2,2.7-2.9,3.9c-1.4,1.8-2.6,3.7-1.8,6.2
				c0.1,0.3-0.3,1.1-0.5,1.1c-0.7,0-1.4-0.2-2.1-0.5c-0.9,0.3-1.8,1.3-2.6-0.2c-1.7,0.7-3.3,1.4-5,2.1c-0.3,0.1-0.6-0.1-0.6-0.4
				c0.1-3.5,3.5-4.7,5.6-6.8c-0.1-0.1-0.2-0.2-0.3-0.3c-0.4,0.2-0.7,0.5-1.2,0.8c-0.4-0.3-0.8-0.7-1.3-1c-0.4,0.7-0.9,1.3-1.5,2.1
				c-0.8-2.2,1-5,2.8-5.5c1.3-0.3,2.5-1.2,3.7-1.9c-0.1-0.2-0.2-0.4-0.3-0.6c-1.3,0.4-2.6,0.8-3.9,1.2c-0.1-0.2-0.2-0.3-0.3-0.5
				c0.6-0.4,1.2-0.9,1.9-1.3c0.7-0.4,1.5-0.8,2-1.5c-1.2,0.4-2.4,0.8-3.6,1.1c-0.5-3.2,2.6-2.9,3.9-4.4c-0.7,0.2-1.3,0.4-2.1,0.7
				c-0.8-3,3-2.8,3.5-5.2c-1.1,0-2.1,0-3.2,0c-0.7-2.2,2.5-1.4,2.7-3.1c-1,0.3-1.9,0.6-2.9,0.9c-0.2-2.2,0.7-3.5,3.2-3.6
				c-0.1-0.1-0.2-0.3-0.3-0.4c-0.7-0.1-1.3-0.2-2.3-0.4c0.8-1,1.6-2,2.5-3.1c-0.1-0.1-0.4-0.3-1-0.7c0.5-0.3,0.9-0.5,1.2-0.7
				c0-0.1-0.1-0.2-0.1-0.2c-0.4,0-0.8,0.1-1.6,0.1c0.4-1.1,0.7-2.1,1.3-2.9c0.5-0.8,1.3-1.2,0.4-2.3c-0.3-0.4,0.3-1.4,0.4-2.1
				c0.1-1.9,0-3.8,0.1-5.6c0-0.7,0.2-1.4,0.3-2.1c0.2,0,0.3,0,0.5,0c0,1.5-0.1,3.1,0,4.6c0,0.6,0.2,1.2,0.4,1.8
				c0.3,1.2,0.5,2.4,0.8,3.5c0.2,0.8,0.4,1.8,0.9,2.4c1,1.2,0.6,2.2-0.3,3.3c1,1.2,1.9,2.3,3,3.6c-1.1,0-1.8,0-2.6,0
				c1.1,1.2,2,2.3,3.1,3.6c-0.7,0.3-1.2,0.5-1.9,0.7c0.7,0.6,1.3,1.1,1.9,1.5c0,0.2,0,0.4,0,0.6c-0.6,0.1-1.2,0.1-1.9,0.2
				c0,0.2-0.1,0.7-0.3,1.3c-0.5-0.2-1-0.5-1.2-0.5c-0.4,1.6-0.9,3.5-1.3,5.4C77.3,108.4,77,109.7,78.8,109.5z"/>
		</g>
		<path fill="#E29153" d="M88.7,115.5c6.7-6.4,17.4-3.6,19.6,5.2c1.1,4.5-0.2,8.5-3.7,11.5c-3.7,3.1-7.9,3.7-12.3,1.7
			c-4.2-1.9-6.5-5.3-6.8-10c-0.1-2.6,0.7-4.9,2-7.1C88,116.4,88.3,115.9,88.7,115.5z M91.2,115.3c-0.4,0.3-0.9,0.6-1.3,0.9
			c-2.4,2.1-3.4,4.8-3.3,7.8c0.2,4.8,3.6,8.5,8.3,9.7c4.5,1.1,9.5-0.9,11.8-5c2.1-3.7,2-7.4-0.4-10.9c-2.5-3.7-6.2-5.1-10.6-4.5
			C94,113.5,92.3,113.8,91.2,115.3z"/>
		<path fill="#FFFFFF" d="M106,111.4c0.1-0.1,0.2-0.2,0.3-0.3c2.7-0.8,5.5-1.6,8.2-2.3c0.7-0.2,1.4,0.1,2.1,0.1
			c0.8,0,1.7-0.1,2.5-0.2c1.2-0.2,2.3-0.4,3.5-0.6c0.3-0.1,0.7,0,1,0c0,0.1,0,0.2,0,0.3c-1.1,0.2-2.1,0.4-3.2,0.6
			c-1.7,0.3-3.3,0.8-5,1c-3.1,0.4-6.3,0.6-9.4,1.7C106.1,111.7,106,111.5,106,111.4z M112.8,109.7c0,0.1,0.1,0.3,0.1,0.4
			c1-0.2,2-0.4,3.1-0.6c0-0.2-0.1-0.3-0.1-0.5C114.8,109.3,113.8,109.5,112.8,109.7z"/>
		<path fill="#FFFFFF" d="M119.5,111.2c1.1-1.5,3-1.2,4.5-1.6C122.6,110.1,121.1,110.6,119.5,111.2z"/>
		<g>
			<path fill="none" stroke="#E29153" stroke-width="0.5" stroke-miterlimit="10" d="M115.5,110.1c1.7-0.2,3.3-0.7,5-1
				c1.1-0.2,2.1-0.4,3.2-0.6c0-0.1,0-0.2,0-0.3c-0.3,0-0.7,0-1,0c-1.2,0.2-2.3,0.5-3.5,0.6c-0.8,0.1-1.7,0.2-2.5,0.2
				c-0.7,0-1.5-0.3-2.1-0.1c-2.8,0.7-5.5,1.5-8.2,2.3c-0.1,0-0.2,0.2-0.3,0.3c0,0.1,0.1,0.3,0.1,0.4
				C109.1,110.7,112.3,110.5,115.5,110.1z"/>
			<path fill="none" stroke="#E29153" stroke-width="0.5" stroke-miterlimit="10" d="M118.7,111.8c-1.3,0.5-2.7,1.1-4,1.6
				c0,0.1,0.1,0.2,0.1,0.2c1.3-0.5,2.7-1.1,4-1.6C118.7,111.9,118.7,111.8,118.7,111.8z"/>
			<path fill="none" stroke="#E29153" stroke-width="0.5" stroke-miterlimit="10" d="M88.7,115.5c-0.4,0.4-0.7,0.8-1.1,1.3
				c-1.4,2.2-2.2,4.5-2,7.1c0.2,4.7,2.5,8.1,6.8,10c4.3,2,8.6,1.4,12.3-1.7c3.6-3,4.9-7,3.7-11.5C106.1,112,95.4,109.2,88.7,115.5z"
				/>
			<path fill="none" stroke="#E29153" stroke-width="0.5" stroke-miterlimit="10" d="M115.3,116.6c0,0.1,0.1,0.2,0.1,0.2
				c1.4-0.7,2.8-1.4,4.1-2.2c0-0.1-0.1-0.2-0.1-0.3C118.1,115.1,116.7,115.8,115.3,116.6z"/>
			<path fill="none" stroke="#E29153" stroke-width="0.5" stroke-miterlimit="10" d="M119.5,111.2c1.5-0.5,3-1.1,4.5-1.6
				C122.5,110,120.7,109.7,119.5,111.2z"/>
			<path fill="#FFFFFF" stroke="#E29153" stroke-width="0.5" stroke-miterlimit="10" d="M128.8,109.7c-0.9-1.7-2.6-2.3-4.5-2.1
				c-9,0.9-18,1.8-27,2.8c-3.8,0.4-7.5,1.4-10.2,4.5c-0.8,0.9-1.3,1.8-1.4,3.1c0,0.5-0.2,1.1-0.5,1.4c-0.8,1-1.1,2.1-1,3.4
				c0.1,0.6,0.1,1.2,0.2,1.8c0.1,3.1,2.1,5.4,3.3,7.9c0.2,0.4,0.6,0.6,1,0.8c1.7,1,3.3,2,5,2.9c0.6,0.3,1.3,0.3,2,0.3
				c0.4,0,0.8-0.4,1.2-0.3c2.1,0.5,3.9-0.2,5.7-1.2c1.1-0.6,2.3-1,3.4-1.6c1.2-0.8,2.2-1.7,3.4-2.6c5.6-4.3,11.1-8.7,16.6-13.1
				c1-0.8,1.9-1.7,2.6-2.7C129.8,113.4,129.8,111.4,128.8,109.7z M106.3,111.1c2.7-0.8,5.5-1.6,8.2-2.3c0.7-0.2,1.4,0.1,2.1,0.1
				c0.8,0,1.7-0.1,2.5-0.2c1.2-0.2,2.3-0.4,3.5-0.6c0.3-0.1,0.7,0,1,0c0,0.1,0,0.2,0,0.3c-1.1,0.2-2.1,0.4-3.2,0.6
				c-1.7,0.3-3.3,0.8-5,1c-3.1,0.4-6.3,0.6-9.4,1.7c0-0.1-0.1-0.3-0.1-0.4C106.1,111.3,106.2,111.2,106.3,111.1z M104.6,132.2
				c-3.7,3.1-7.9,3.7-12.3,1.7c-4.2-1.9-6.5-5.3-6.8-10c-0.1-2.6,0.7-4.9,2-7.1c0.4-0.4,0.7-0.8,1.1-1.3c6.7-6.4,17.4-3.6,19.6,5.2
				C109.4,125.2,108.1,129.2,104.6,132.2z M114.6,113.4c1.3-0.5,2.7-1.1,4-1.6c0,0.1,0.1,0.2,0.1,0.2c-1.3,0.5-2.7,1.1-4,1.6
				C114.7,113.5,114.7,113.5,114.6,113.4z M115.4,116.8c0-0.1-0.1-0.2-0.1-0.2c1.4-0.7,2.7-1.4,4.1-2.2c0,0.1,0.1,0.2,0.1,0.3
				C118.2,115.4,116.8,116.1,115.4,116.8z M119.5,111.2c1.1-1.5,3-1.2,4.5-1.6C122.6,110.1,121.1,110.6,119.5,111.2z"/>
		</g>
		<path fill="#FFFFFF" d="M115.3,116.6c1.4-0.7,2.7-1.4,4.1-2.2c0,0.1,0.1,0.2,0.1,0.3c-1.4,0.7-2.8,1.4-4.1,2.2
			C115.4,116.7,115.4,116.6,115.3,116.6z"/>
		<path fill="#FFFFFF" d="M114.6,113.4c1.3-0.5,2.7-1.1,4-1.6c0,0.1,0.1,0.2,0.1,0.2c-1.3,0.5-2.7,1.1-4,1.6
			C114.7,113.5,114.7,113.5,114.6,113.4z"/>
		<path fill="#E29153" d="M89.9,116.1c0.4-0.3,0.9-0.6,1.3-0.9c0.5-0.3,1-0.5,1.5-0.8c6.7-3.4,15,1.6,15,9c0,4-2.5,7.7-6.4,9.3
			c-4,1.6-8.7,0.6-11.7-2.5c-2.9-3-3.6-7.3-1.7-11.1C88.5,118.1,89.2,117.1,89.9,116.1z M92.1,115.9c-0.2,0.1-0.4,0.2-0.6,0.3
			c-1.6,0.7-2.5,2.1-3.1,3.6c-1.4,3.3-0.9,6.5,1.5,9.2c2.5,2.9,5.7,3.9,9.4,3c4.9-1.1,7.9-5.8,6.9-10.6c-0.9-4.6-5.7-7.9-10.5-7.2
			C94.4,114.5,93,114.6,92.1,115.9z"/>
		<path fill="#FFFFFF" d="M89.9,116.1c-0.6,1-1.4,2-1.9,3.1c-1.8,3.8-1.1,8.1,1.7,11.1c3,3.1,7.7,4.1,11.7,2.5
			c3.9-1.6,6.4-5.3,6.4-9.3c0-7.4-8.3-12.4-15-9c-0.5,0.3-1,0.5-1.5,0.8c1.1-1.4,2.8-1.8,4.4-2c4.4-0.6,8.1,0.9,10.6,4.5
			c2.4,3.5,2.5,7.2,0.4,10.9c-2.3,4-7.2,6.1-11.8,5c-4.7-1.1-8-4.9-8.3-9.7C86.4,120.9,87.5,118.2,89.9,116.1z"/>
		<path d="M112.8,109.7c1-0.2,2-0.5,3.1-0.7c0,0.2,0.1,0.3,0.1,0.5c-1,0.2-2,0.4-3.1,0.6C112.9,110,112.8,109.9,112.8,109.7z"/>
		<path fill="#E29153" d="M91.5,116.2c0.2-0.1,0.4-0.2,0.6-0.3c1.9-1.1,3.9-1.5,6.1-1.3c4.8,0.6,8.1,4.6,7.8,9.4
			c-0.3,4.5-4.4,8-9.3,7.9c-4.7-0.1-8.6-3.9-8.7-8.4C88,120.5,89.3,118.1,91.5,116.2z M93.1,117.1c-0.8,0.7-1.8,1.3-2.4,2.1
			c-1.9,2.6-1.7,6.2,0.3,8.7c2,2.6,5.6,3.6,8.8,2.4c3.1-1.2,5.1-4.2,4.9-7.5c-0.2-3.1-2.5-6.1-5.6-6.8
			C96.9,115.6,94.8,115.6,93.1,117.1L93.1,117.1z"/>
		<path fill="#FFFFFF" d="M91.5,116.2c-2.3,1.9-3.5,4.3-3.5,7.3c0.1,4.5,4,8.3,8.7,8.4c4.9,0.1,8.9-3.4,9.3-7.9
			c0.3-4.8-3-8.8-7.8-9.4c-2.2-0.3-4.2,0.2-6.1,1.3c0.9-1.3,2.3-1.4,3.6-1.6c4.8-0.8,9.6,2.5,10.5,7.2c0.9,4.8-2,9.4-6.9,10.6
			c-3.7,0.9-6.9-0.1-9.4-3c-2.4-2.7-2.9-5.9-1.5-9.2C89,118.4,89.9,116.9,91.5,116.2z"/>
		<path fill="#FFFFFF" d="M93,117.1c1.8-1.5,3.9-1.5,6-1c3.1,0.7,5.5,3.7,5.6,6.8c0.2,3.3-1.8,6.3-4.9,7.5c-3.2,1.2-6.7,0.2-8.8-2.4
			c-2-2.6-2.2-6.1-0.3-8.7C91.3,118.4,92.3,117.8,93,117.1c-0.2,0.2-0.4,0.5-0.7,0.8c-1.9,1.5-2.7,3.5-2.6,5.8
			c0.1,3.2,2.4,5.8,5.4,6.6c3.2,0.8,6.5-0.5,8.1-3.3c1.6-2.6,1.3-6-0.8-8.3c-2.1-2.4-5.6-3.1-8.5-1.9C93.7,116.9,93.4,117,93,117.1z
			"/>
		<path fill="#E29153" d="M93,117.1c0.3-0.1,0.7-0.2,1-0.3c2.9-1.3,6.4-0.5,8.5,1.9c2,2.3,2.3,5.7,0.8,8.3c-1.7,2.8-5,4.1-8.1,3.3
			c-3-0.8-5.3-3.5-5.4-6.6c-0.1-2.3,0.7-4.3,2.6-5.8C92.6,117.7,92.8,117.4,93,117.1C93.1,117.1,93,117.1,93,117.1z M95.3,118.2
			c-0.7,0.4-1.5,0.6-2.2,1.1c-2,1.6-2.7,4.3-1.7,6.7c1.1,2.5,3.7,3.9,6.5,3.5c2.4-0.3,4.1-1.7,4.9-4c0.7-2.3,0.2-4.3-1.5-5.9
			C99.6,117.9,97.6,117.3,95.3,118.2L95.3,118.2z"/>
		<path fill="#FFFFFF" d="M95.3,118.2c2.3-1,4.3-0.3,6,1.3c1.8,1.6,2.3,3.7,1.5,5.9c-0.8,2.3-2.5,3.7-4.9,4
			c-2.8,0.4-5.4-1.1-6.5-3.5c-1-2.3-0.4-5,1.7-6.7C93.8,118.8,94.6,118.6,95.3,118.2c-0.5,0.3-1,0.6-1.5,1c-2.1,1.5-2.9,4.1-2,6.4
			c0.9,2.3,3.4,3.8,5.8,3.5c2.8-0.3,4.9-2.3,5.2-4.9c0.3-2.3-1.1-4.9-3.5-5.7C98.1,118.2,96.6,118.4,95.3,118.2z"/>
		<path fill="#E29153" d="M95.3,118.2c1.3,0.1,2.8,0,4,0.4c2.4,0.8,3.8,3.3,3.5,5.7c-0.4,2.6-2.5,4.6-5.2,4.9
			c-2.4,0.3-4.9-1.3-5.8-3.5c-0.9-2.3-0.1-4.9,2-6.4C94.3,118.9,94.8,118.5,95.3,118.2C95.3,118.2,95.3,118.2,95.3,118.2z
			 M97.1,118.7c-2.5-0.1-4.7,2-4.8,4.5c-0.1,2.7,2,5,4.7,5.1c2.7,0.1,5-2,5-4.6C102.1,120.9,100,118.8,97.1,118.7z"/>
		<path fill="#FFFFFF" d="M97.1,118.7c2.9,0.1,5,2.2,4.9,5c-0.1,2.6-2.4,4.7-5,4.6c-2.7-0.1-4.8-2.4-4.7-5.1
			C92.4,120.7,94.6,118.6,97.1,118.7z M97.1,119.1c-2.6,0.1-4.6,2.1-4.5,4.6c0.1,2.5,2.2,4.4,4.6,4.3c2.5-0.1,4.5-2.1,4.4-4.6
			C101.6,120.9,99.6,119,97.1,119.1z"/>
		<path fill="#E29153" d="M97.1,119.1c2.5-0.1,4.5,1.9,4.6,4.4c0.1,2.4-1.9,4.5-4.4,4.6c-2.5,0.1-4.6-1.9-4.6-4.3
			C92.5,121.2,94.5,119.1,97.1,119.1z M97.1,119.9c-2,0-3.7,1.6-3.7,3.6c0,2,1.6,3.7,3.7,3.7c2,0,3.7-1.7,3.7-3.7
			C100.8,121.5,99.1,119.9,97.1,119.9z"/>
		<path fill="#FFFFFF" d="M97.1,119.9c2,0,3.7,1.7,3.7,3.6c0,2-1.7,3.7-3.7,3.7c-2,0-3.7-1.7-3.7-3.7
			C93.5,121.5,95.2,119.8,97.1,119.9z M97.1,126.8c1.9,0,3.3-1.5,3.3-3.3c0-1.8-1.5-3.2-3.3-3.2c-1.8,0-3.3,1.4-3.3,3.2
			C93.7,125.3,95.2,126.8,97.1,126.8z"/>
		<path fill="#E29153" d="M97.1,126.8c-1.9,0-3.4-1.5-3.4-3.3c0-1.8,1.5-3.2,3.3-3.2c1.9,0,3.3,1.4,3.3,3.2
			C100.5,125.3,99,126.8,97.1,126.8z M99.1,123.4c0-1-0.9-1.8-2-1.8c-1.1,0-2.1,0.9-2.1,1.9c0,1,1,1.8,2.1,1.7
			C98.3,125.2,99.2,124.4,99.1,123.4z"/>
		<path fill="#FFFFFF" d="M99.1,123.4c0,1-0.9,1.8-2,1.8c-1.1,0-2-0.8-2.1-1.7c0-1,0.9-1.9,2.1-1.9
			C98.2,121.6,99.1,122.4,99.1,123.4z"/>
		<path fill="#E29153" d="M105.3,90.6c8.8-2.8,17.2,4.3,15.4,13.2c-0.9,4.6-3.8,7.6-8.3,8.7c-4.6,1.2-8.7-0.1-11.8-3.8
			c-3-3.5-3.6-7.6-1.8-12c1-2.4,2.7-4.1,4.9-5.5C104.3,91.1,104.8,90.8,105.3,90.6z M107.7,91.5c-0.5,0.1-1,0.1-1.6,0.2
			c-3.1,0.8-5.2,2.8-6.4,5.6c-1.8,4.4-0.5,9.2,3.3,12.3c3.6,2.9,8.9,3.2,12.8,0.6c3.5-2.4,5-5.8,4.4-10c-0.7-4.4-3.4-7.3-7.6-8.7
			C111,91.1,109.3,90.6,107.7,91.5z"/>
		<g>
			<path fill="none" stroke="#E29153" stroke-width="0.5" stroke-miterlimit="10" d="M128.9,103.1c0,0.1,0,0.2,0,0.3
				c1.6-0.1,3.1-0.1,4.7-0.2c0-0.1,0-0.2,0-0.3C132,103,130.4,103,128.9,103.1z"/>
			<path fill="none" stroke="#E29153" stroke-width="0.5" stroke-miterlimit="10" d="M129.6,100.2c1.4,0.1,2.9,0.2,4.3,0.3
				c0-0.1,0-0.2,0-0.3c-1.4-0.1-2.9-0.2-4.3-0.3C129.6,100,129.6,100.1,129.6,100.2z"/>
			<path fill="none" stroke="#E29153" stroke-width="0.5" stroke-miterlimit="10" d="M105.3,90.6c-0.5,0.2-1,0.4-1.5,0.7
				c-0.4,0.1-0.8,0.3-1.2,0.4c0.4-0.2,0.8-0.3,1.2-0.4c-2.2,1.4-3.9,3.1-4.9,5.5c-1.8,4.3-1.2,8.4,1.8,12c3.1,3.6,7.1,5,11.8,3.8
				c4.5-1.2,7.4-4.2,8.3-8.7C122.5,94.9,114.1,87.8,105.3,90.6z"/>
			<path fill="none" stroke="#E29153" stroke-width="0.5" stroke-miterlimit="10" d="M135,100.1c1.6,0.2,3.2,0.3,4.8,0.5
				C138.2,100.3,136.7,99.3,135,100.1z"/>
			<path fill="none" stroke="#E29153" stroke-width="0.5" stroke-miterlimit="10" d="M135.7,97.7c-0.8-0.3-1.6-0.6-2.4-0.9
				c-0.6-0.3-1.2-0.9-1.8-1c-2.8-0.6-5.6-1-8.4-1.5c-0.1,0-0.3,0.1-0.4,0.1c0,0.1,0,0.3-0.1,0.4c3.2,0.3,6.2,1.6,9.2,2.5
				c1.6,0.5,3.3,0.8,5,1.2c1.1,0.3,2.1,0.6,3.2,0.9c0-0.1,0.1-0.2,0.1-0.3c-0.3-0.1-0.6-0.3-0.9-0.4C138,98.4,136.8,98.1,135.7,97.7
				z"/>
			<path fill="#FFFFFF" stroke="#E29153" stroke-width="0.5" stroke-miterlimit="10" d="M140.8,98.9c-8.5-3.1-17-6.2-25.6-9.2
				c-3.6-1.3-7.3-2-11.1-0.3c-1.1,0.5-2,1.1-2.6,2.1c-0.3,0.4-0.6,0.9-1,1.1c-1.1,0.6-1.9,1.4-2.3,2.6c-0.2,0.6-0.4,1.1-0.6,1.7
				c-1.3,2.8-0.5,5.7-0.5,8.6c0,0.4,0.3,0.8,0.6,1.2c1.1,1.6,2.1,3.2,3.3,4.8c0.4,0.5,1.1,0.9,1.7,1.2c0.3,0.2,0.9,0,1.2,0.2
				c1.7,1.4,3.6,1.5,5.7,1.4c1.2-0.1,2.5,0.1,3.7,0c1.4-0.2,2.8-0.6,4.2-0.9c6.9-1.5,13.8-3,20.7-4.6c1.2-0.3,2.5-0.7,3.6-1.3
				c1.8-1,2.6-2.8,2.5-4.8C143.9,100.7,142.6,99.5,140.8,98.9z M120.7,103.8c-0.9,4.6-3.8,7.6-8.3,8.7c-4.6,1.2-8.7-0.1-11.8-3.8
				c-3-3.5-3.6-7.6-1.8-12c1-2.4,4.5-5.4,4.9-5.5c0.5-0.2,1-0.4,1.5-0.7C114.1,87.8,122.5,94.9,120.7,103.8z M128.8,103.3
				c0-0.1,0-0.2,0-0.3c1.5-0.1,3.1-0.1,4.6-0.2c0,0.1,0,0.2,0,0.3C132,103.2,130.4,103.3,128.8,103.3z M133.9,100.5
				c-1.4-0.1-2.9-0.2-4.3-0.3c0-0.1,0-0.2,0-0.3c1.4,0.1,2.9,0.2,4.3,0.3C133.9,100.3,133.9,100.4,133.9,100.5z M135,100.1
				c1.7-0.8,3.2,0.2,4.8,0.5C138.2,100.4,136.6,100.2,135,100.1z M139.9,99.4c-1.1-0.3-2.1-0.6-3.2-0.9c-1.7-0.4-3.4-0.7-5-1.2
				c-3-1-5.9-2.2-9.2-2.5c0-0.1,0-0.3,0.1-0.4c0.1,0,0.3-0.1,0.4-0.1c2.8,0.5,5.6,0.9,8.4,1.5c0.7,0.1,1.2,0.7,1.8,1
				c0.8,0.4,1.6,0.7,2.4,0.9c1.1,0.4,2.3,0.6,3.5,1c0.3,0.1,0.6,0.3,0.9,0.4C140,99.2,139.9,99.3,139.9,99.4z"/>
		</g>
		<path fill="#E29153" d="M128.9,103.1c1.5-0.1,3.1-0.1,4.6-0.2c0,0.1,0,0.2,0,0.3c-1.6,0.1-3.1,0.1-4.7,0.2
			C128.8,103.3,128.9,103.2,128.9,103.1z"/>
		<path fill="#E29153" d="M106.1,91.7c0.5-0.1,1-0.1,1.6-0.2c0.6,0,1.1,0,1.7-0.1c7.5-0.1,12.9,7.9,9.7,14.6
			c-1.7,3.6-5.6,5.9-9.8,5.6c-4.3-0.3-8.1-3.2-9.4-7.3c-1.3-4-0.1-8.1,3.3-10.7C104,92.9,105.1,92.3,106.1,91.7z M108.2,92.5
			c-0.2,0-0.4,0-0.6,0c-1.8-0.1-3.2,0.8-4.4,1.9c-2.7,2.4-3.6,5.5-2.6,8.9c1,3.7,3.5,6,7.2,6.8c4.9,1.1,9.6-1.8,10.8-6.5
			c1.2-4.6-1.7-9.6-6.4-11C110.9,92.2,109.5,91.7,108.2,92.5z"/>
		<path fill="#FFFFFF" d="M106.1,91.7c-1,0.6-2.1,1.2-3.1,1.9c-3.3,2.7-4.5,6.8-3.3,10.7c1.3,4.1,5.1,7,9.4,7.3
			c4.2,0.3,8.1-2,9.8-5.6c3.2-6.7-2.1-14.7-9.7-14.6c-0.6,0-1.1,0-1.7,0.1c1.6-0.8,3.3-0.4,4.9,0.1c4.2,1.4,6.9,4.3,7.6,8.7
			c0.7,4.2-0.9,7.6-4.4,10c-3.8,2.6-9.1,2.3-12.8-0.6c-3.8-3-5.1-7.9-3.3-12.3C100.9,94.5,103.1,92.5,106.1,91.7z"/>
		<path fill="#E29153" d="M107.6,92.5c0.2,0,0.4,0,0.6,0c2.2-0.2,4.2,0.3,6.1,1.5c4.1,2.6,5.3,7.7,2.9,11.8
			c-2.3,3.9-7.4,5.3-11.8,3.1c-4.2-2.1-6-7.2-4.2-11.3C102.5,94.8,104.7,93.2,107.6,92.5z M108.6,93.9c-1,0.3-2.1,0.4-3,0.9
			c-2.9,1.5-4.2,4.8-3.6,8c0.7,3.2,3.5,5.7,6.8,6c3.3,0.3,6.5-1.6,7.7-4.6c1.2-2.9,0.3-6.6-2.1-8.5
			C112.7,94.3,110.8,93.3,108.6,93.9L108.6,93.9z"/>
		<path fill="#FFFFFF" d="M107.6,92.5c-2.9,0.7-5,2.3-6.3,5.1c-1.9,4.1,0,9.2,4.2,11.3c4.3,2.2,9.5,0.8,11.8-3.1
			c2.4-4.2,1.1-9.3-2.9-11.8c-1.9-1.2-3.9-1.7-6.1-1.5c1.3-0.8,2.7-0.3,4,0.1c4.6,1.4,7.5,6.4,6.4,11c-1.2,4.7-5.9,7.6-10.8,6.5
			c-3.7-0.8-6.2-3.1-7.2-6.8c-1-3.5,0-6.5,2.6-8.9C104.4,93.3,105.8,92.4,107.6,92.5z"/>
		<path fill="#FFFFFF" d="M108.5,93.9c2.3-0.6,4.2,0.4,5.9,1.7c2.5,2,3.3,5.7,2.1,8.5c-1.3,3-4.4,4.9-7.7,4.6
			c-3.3-0.3-6.1-2.8-6.8-6c-0.7-3.2,0.7-6.5,3.6-8C106.4,94.3,107.5,94.2,108.5,93.9c-0.3,0.1-0.6,0.3-1,0.4c-2.3,0.5-3.9,2-4.8,4.1
			c-1.3,2.9-0.4,6.3,2,8.3c2.5,2.1,6.1,2.3,8.8,0.6c2.5-1.7,3.8-4.9,2.9-7.8c-0.8-3-3.6-5.2-6.8-5.4C109.2,94.1,108.9,94,108.5,93.9
			z"/>
		<path fill="#E29153" d="M108.5,93.9c0.4,0,0.7,0.1,1.1,0.1c3.2,0.1,6,2.3,6.8,5.4c0.8,3-0.4,6.2-2.9,7.8c-2.7,1.8-6.3,1.5-8.8-0.6
			c-2.4-2-3.3-5.4-2-8.3c0.9-2.1,2.5-3.6,4.8-4.1C107.9,94.3,108.2,94.1,108.5,93.9C108.6,93.9,108.5,93.9,108.5,93.9z M110.1,95.9
			c-0.8,0-1.6-0.1-2.4,0c-2.5,0.6-4.3,2.7-4.4,5.3c-0.1,2.7,1.6,5.1,4.3,6c2.3,0.7,4.5,0.3,6.2-1.5c1.6-1.7,2.1-3.8,1.2-6
			C114.1,97.5,112.6,96.1,110.1,95.9L110.1,95.9z"/>
		<path fill="#FFFFFF" d="M110.1,95.9c2.5,0.1,4,1.6,4.9,3.8c0.9,2.2,0.5,4.3-1.2,6c-1.7,1.8-3.8,2.3-6.2,1.5
			c-2.7-0.9-4.4-3.3-4.3-6c0.1-2.5,1.8-4.7,4.4-5.3C108.5,95.8,109.3,95.9,110.1,95.9c-0.6,0.1-1.2,0.1-1.8,0.2
			c-2.6,0.4-4.4,2.4-4.6,4.9c-0.2,2.4,1.4,4.9,3.7,5.7c2.6,0.9,5.4,0.1,6.8-2.1c1.3-2,1.1-4.9-0.7-6.6
			C112.6,97.1,111.2,96.6,110.1,95.9z"/>
		<path fill="#E29153" d="M110.1,95.9c1.2,0.7,2.5,1.2,3.5,2.1c1.8,1.7,2,4.6,0.7,6.6c-1.5,2.2-4.2,3.1-6.8,2.1
			c-2.3-0.8-3.9-3.3-3.7-5.7c0.2-2.5,2-4.5,4.6-4.9C108.9,96,109.5,96,110.1,95.9C110.1,95.9,110.1,95.9,110.1,95.9z M111.5,97.2
			c-2.2-1.2-5.1-0.3-6.3,2c-1.3,2.4-0.4,5.4,2,6.6c2.4,1.2,5.3,0.3,6.6-2C115,101.3,114.1,98.5,111.5,97.2z"/>
		<path fill="#FFFFFF" d="M111.5,97.2c2.6,1.4,3.5,4.1,2.2,6.6c-1.2,2.3-4.2,3.2-6.6,2c-2.4-1.2-3.3-4.2-2-6.6
			C106.4,96.9,109.3,96,111.5,97.2z M111.3,97.4c-2.4-1.1-5-0.1-6,2.2c-1,2.3,0,4.9,2.3,5.9c2.3,1,5,0,6-2.2
			C114.6,101.1,113.6,98.5,111.3,97.4z"/>
		<path fill="#E29153" d="M111.3,97.4c2.3,1,3.3,3.6,2.2,5.9c-1,2.2-3.7,3.2-6,2.2c-2.3-1-3.3-3.7-2.3-5.9
			C106.3,97.3,108.9,96.4,111.3,97.4z M111,98.2c-1.8-0.9-4-0.1-4.9,1.6c-0.9,1.8-0.1,4.1,1.7,5c1.8,0.9,4.1,0.1,5-1.7
			C113.6,101.3,112.8,99,111,98.2z"/>
		<path fill="#FFFFFF" d="M111,98.2c1.8,0.9,2.6,3.1,1.8,4.9c-0.8,1.8-3.2,2.6-5,1.7c-1.8-0.9-2.6-3.1-1.7-5
			C107,98.1,109.3,97.3,111,98.2z M108,104.4c1.7,0.8,3.6,0.1,4.4-1.6c0.8-1.7,0.1-3.5-1.6-4.3c-1.7-0.8-3.6-0.1-4.4,1.5
			C105.6,101.6,106.3,103.6,108,104.4z"/>
		<path fill="#E29153" d="M108,104.4c-1.7-0.8-2.4-2.8-1.6-4.4c0.8-1.6,2.7-2.3,4.4-1.5c1.7,0.8,2.4,2.7,1.6,4.3
			C111.6,104.6,109.7,105.3,108,104.4z M111.3,102.3c0.4-0.9,0-2-1-2.5c-1-0.5-2.3-0.1-2.7,0.8c-0.4,0.9,0.1,2,1.1,2.5
			C109.7,103.5,110.9,103.2,111.3,102.3z"/>
		<path fill="#FFFFFF" d="M111.3,102.3c-0.4,0.9-1.6,1.2-2.6,0.8c-1-0.5-1.5-1.6-1.1-2.5c0.4-0.9,1.6-1.3,2.7-0.8
			C111.3,100.3,111.7,101.4,111.3,102.3z"/>
		<path fill="#E29153" d="M111.9,118c5.4-7.5,16.4-6.9,20.2,1.3c2,4.2,1.5,8.4-1.4,12c-3,3.7-7.1,5.1-11.7,4c-4.5-1-7.4-4-8.6-8.5
			c-0.6-2.5-0.3-5,0.6-7.3C111.3,118.9,111.6,118.5,111.9,118z M114.3,117.2c-0.4,0.4-0.8,0.7-1.1,1.1c-2,2.5-2.5,5.3-1.7,8.3
			c1.2,4.6,5.1,7.7,10,7.9c4.7,0.2,9.1-2.8,10.6-7.1c1.4-4,0.6-7.7-2.5-10.6c-3.2-3.1-7.1-3.9-11.3-2.4
			C116.7,114.9,115.1,115.6,114.3,117.2z"/>
		<path fill="#E29153" d="M128.1,110.6c0.1-0.1,0.1-0.3,0.2-0.3c2.5-1.3,5.1-2.6,7.6-3.8c0.6-0.3,1.4-0.1,2.1-0.3
			c0.8-0.2,1.7-0.4,2.5-0.7c1.1-0.4,2.2-0.9,3.3-1.3c0.3-0.1,0.6-0.1,1-0.2c0,0.1,0.1,0.2,0.1,0.3c-1,0.4-2,0.8-3,1.2
			c-1.6,0.7-3.1,1.4-4.7,2c-3,1-6.1,1.8-8.9,3.5C128.2,110.8,128.1,110.7,128.1,110.6z M134.4,107.6c0.1,0.1,0.1,0.3,0.2,0.4
			c1-0.4,1.9-0.8,2.9-1.2c-0.1-0.2-0.1-0.3-0.2-0.5C136.3,106.8,135.4,107.2,134.4,107.6z"/>
		<path fill="#E29153" d="M141.3,107.8c0.8-1.7,2.7-1.7,4.1-2.5C144.1,106.1,142.7,106.9,141.3,107.8z"/>
		<g>
			<path fill="none" stroke="#E29153" stroke-width="0.5" stroke-miterlimit="10" d="M141.8,105.5c1-0.4,2-0.8,3-1.2
				c0-0.1-0.1-0.2-0.1-0.3c-0.3,0.1-0.7,0.1-1,0.2c-1.1,0.4-2.2,0.9-3.3,1.3c-0.8,0.3-1.6,0.5-2.5,0.7c-0.7,0.1-1.5,0-2.1,0.3
				c-2.6,1.2-5.1,2.5-7.6,3.8c-0.1,0.1-0.2,0.2-0.2,0.3c0.1,0.1,0.1,0.2,0.2,0.4c2.8-1.7,5.9-2.4,8.9-3.5
				C138.7,106.9,140.3,106.1,141.8,105.5z"/>
			<path fill="none" stroke="#E29153" stroke-width="0.5" stroke-miterlimit="10" d="M111.9,118c-0.3,0.5-0.6,1-0.8,1.5
				c-0.2,0.4-0.5,0.7-0.7,1.1c0.3-0.4,0.5-0.7,0.7-1.1c-0.9,2.4-1.2,4.8-0.6,7.3c1.1,4.6,4,7.5,8.6,8.5c4.6,1.1,8.7-0.3,11.7-4
				c2.9-3.6,3.4-7.8,1.4-12C128.3,111.1,117.3,110.4,111.9,118z"/>
			<path fill="none" stroke="#E29153" stroke-width="0.5" stroke-miterlimit="10" d="M140.6,108.5c-1.2,0.8-2.4,1.6-3.6,2.4
				c0.1,0.1,0.1,0.1,0.2,0.2c1.2-0.8,2.4-1.6,3.6-2.4C140.7,108.6,140.6,108.6,140.6,108.5z"/>
			<path fill="none" stroke="#E29153" stroke-width="0.5" stroke-miterlimit="10" d="M138.2,113.8c0,0.1,0.1,0.1,0.1,0.2
				c1.2-1,2.4-1.9,3.6-2.9c-0.1-0.1-0.1-0.1-0.2-0.2C140.6,111.9,139.4,112.9,138.2,113.8z"/>
			<path fill="none" stroke="#E29153" stroke-width="0.5" stroke-miterlimit="10" d="M141.3,107.8c1.4-0.8,2.8-1.6,4.1-2.5
				C144,106,142.2,106.1,141.3,107.8z"/>
			<path fill="#FFFFFF" stroke="#E29153" stroke-width="0.5" stroke-miterlimit="10" d="M150.1,104.5c-1.3-1.5-3-1.7-4.8-1.2
				c-8.7,2.7-17.4,5.2-26,8c-3.7,1.2-7.1,2.8-9.1,6.4c-0.6,1.1-0.9,2.1-0.8,3.3c0,0.5,0,1.1-0.2,1.5c-0.6,1.1-0.6,2.3-0.3,3.5
				c0.2,0.6,0.4,1.1,0.5,1.7c0.7,3,3.1,4.9,4.8,7.2c0.2,0.3,0.7,0.5,1.2,0.6c1.8,0.7,3.6,1.3,5.5,1.9c0.6,0.2,1.4,0.1,2-0.1
				c0.4-0.1,0.7-0.6,1.1-0.5c2.2,0.1,3.8-1,5.4-2.3c1-0.8,2.1-1.4,3-2.2c1-1,1.9-2.1,2.8-3.2c4.6-5.3,9.2-10.7,13.8-16
				c0.8-1,1.6-2,2.1-3.2C151.8,107.9,151.4,106,150.1,104.5z M130.7,131.2c-3,3.7-7.1,5.1-11.7,4c-4.5-1-7.4-4-8.6-8.5
				c-0.6-2.5,1.2-8.3,1.5-8.8c5.4-7.5,16.4-6.9,20.2,1.3C134.1,123.5,133.6,127.6,130.7,131.2z M128.2,110.9
				c-0.1-0.1-0.1-0.2-0.2-0.4c0.1-0.1,0.1-0.3,0.2-0.3c2.5-1.3,5.1-2.6,7.6-3.8c0.6-0.3,1.4-0.1,2.1-0.3c0.8-0.2,1.7-0.4,2.5-0.7
				c1.1-0.4,2.2-0.9,3.3-1.3c0.3-0.1,0.6-0.1,1-0.2c0,0.1,0.1,0.2,0.1,0.3c-1,0.4-2,0.8-3,1.2c-1.6,0.7-3.1,1.4-4.7,2
				C134.1,108.5,131,109.2,128.2,110.9z M136.9,110.9c1.2-0.8,2.4-1.6,3.6-2.4c0,0.1,0.1,0.1,0.1,0.2c-1.2,0.8-2.4,1.6-3.6,2.4
				C137,111,137,110.9,136.9,110.9z M138.4,114.1c0-0.1-0.1-0.1-0.1-0.2c1.2-1,2.4-2,3.6-2.9c0.1,0.1,0.1,0.1,0.2,0.2
				C140.8,112.1,139.6,113.1,138.4,114.1z M141.3,107.8c0.8-1.7,2.7-1.7,4.1-2.5C144.1,106.1,142.7,106.9,141.3,107.8z"/>
		</g>
		<path fill="#E29153" d="M138.2,113.8c1.2-1,2.4-2,3.6-2.9c0.1,0.1,0.1,0.1,0.2,0.2c-1.2,1-2.4,1.9-3.6,2.9
			C138.3,114,138.3,113.9,138.2,113.8z"/>
		<path fill="#E29153" d="M136.9,110.9c1.2-0.8,2.4-1.6,3.6-2.4c0,0.1,0.1,0.1,0.1,0.2c-1.2,0.8-2.4,1.6-3.6,2.4
			C137,111,137,110.9,136.9,110.9z"/>
		<path fill="#E29153" d="M113.2,118.3c0.4-0.4,0.8-0.7,1.1-1.1c0.4-0.3,0.9-0.7,1.3-1c6-4.6,15-1.4,16.5,5.9c0.8,4-1,8.1-4.5,10.4
			c-3.6,2.4-8.4,2.3-11.9-0.2c-3.4-2.4-4.9-6.4-3.8-10.6C112.2,120.6,112.7,119.5,113.2,118.3z M115.3,117.7
			c-0.2,0.1-0.3,0.3-0.5,0.4c-1.5,1-2,2.6-2.4,4.1c-0.7,3.5,0.4,6.5,3.2,8.7c3,2.3,6.4,2.7,9.8,1.1c4.6-2.1,6.6-7.2,4.7-11.7
			c-1.8-4.4-7.1-6.7-11.7-5C117.3,115.9,115.9,116.3,115.3,117.7z"/>
		<path fill="#FFFFFF" d="M113.2,118.3c-0.4,1.1-1,2.2-1.3,3.4c-1.1,4.1,0.4,8.2,3.8,10.6c3.5,2.5,8.3,2.6,11.9,0.2
			c3.5-2.3,5.3-6.4,4.5-10.4c-1.4-7.3-10.5-10.5-16.5-5.9c-0.4,0.3-0.9,0.7-1.3,1c0.8-1.6,2.4-2.3,4-2.8c4.2-1.4,8.1-0.7,11.3,2.4
			c3,2.9,3.8,6.6,2.5,10.6c-1.5,4.4-5.9,7.3-10.6,7.1c-4.8-0.2-8.8-3.3-10-7.9C110.7,123.7,111.2,120.8,113.2,118.3z"/>
		<path fill="#FFFFFF" d="M134.4,107.6c1-0.4,1.9-0.8,2.9-1.3c0.1,0.2,0.1,0.3,0.2,0.5c-1,0.4-1.9,0.8-2.9,1.2
			C134.5,107.9,134.5,107.8,134.4,107.6z"/>
		<path fill="#E29153" d="M114.8,118.1c0.2-0.1,0.3-0.3,0.5-0.4c1.7-1.4,3.5-2.3,5.8-2.4c4.8-0.4,8.9,2.9,9.4,7.7
			c0.6,4.5-2.8,8.7-7.6,9.5c-4.6,0.8-9.1-2.1-10.1-6.6C112.2,123,113,120.4,114.8,118.1z M116.5,118.7c-0.7,0.8-1.5,1.6-1.9,2.5
			c-1.4,2.9-0.5,6.4,1.9,8.5c2.5,2.2,6.2,2.5,9.1,0.7c2.8-1.7,4.2-5.1,3.4-8.3c-0.8-3-3.7-5.5-6.8-5.6
			C120,116.5,117.9,116.8,116.5,118.7L116.5,118.7z"/>
		<path fill="#FFFFFF" d="M114.8,118.1c-1.8,2.3-2.6,4.9-2,7.8c1,4.4,5.5,7.4,10.1,6.6c4.8-0.8,8.1-5,7.6-9.5
			c-0.6-4.8-4.7-8.1-9.4-7.7c-2.2,0.2-4.1,1-5.8,2.4c0.6-1.4,2-1.8,3.2-2.3c4.5-1.7,9.9,0.6,11.7,5c1.9,4.5-0.2,9.6-4.7,11.7
			c-3.5,1.6-6.8,1.2-9.8-1.1c-2.8-2.2-3.9-5.2-3.2-8.7C112.8,120.7,113.4,119.1,114.8,118.1z"/>
		<path fill="#FFFFFF" d="M116.5,118.7c1.5-1.9,3.6-2.2,5.7-2.2c3.2,0.1,6.1,2.5,6.8,5.6c0.8,3.2-0.6,6.6-3.4,8.3
			c-2.9,1.8-6.6,1.5-9.1-0.7c-2.5-2.1-3.3-5.6-1.9-8.5C115,120.2,115.8,119.5,116.5,118.7c-0.2,0.3-0.3,0.6-0.6,0.9
			c-1.5,1.8-2,3.9-1.4,6.2c0.7,3.1,3.5,5.3,6.6,5.4c3.3,0.2,6.2-1.8,7.3-4.8c1-2.9,0.1-6.2-2.3-8c-2.5-1.9-6.1-2-8.7-0.2
			C117.1,118.4,116.8,118.5,116.5,118.7z"/>
		<path fill="#E29153" d="M116.5,118.7c0.3-0.2,0.7-0.3,1-0.5c2.6-1.8,6.2-1.7,8.7,0.2c2.4,1.9,3.4,5.2,2.3,8c-1.1,3-4.1,5-7.3,4.8
			c-3.1-0.2-5.9-2.4-6.6-5.4c-0.5-2.3-0.1-4.4,1.4-6.2C116.1,119.3,116.3,119,116.5,118.7C116.5,118.7,116.5,118.7,116.5,118.7z
			 M118.9,119.3c-0.6,0.5-1.4,0.9-1.9,1.5c-1.7,2-1.8,4.8-0.3,6.8c1.5,2.2,4.4,3.2,7,2.2c2.3-0.8,3.7-2.5,4-4.9
			c0.3-2.4-0.6-4.3-2.7-5.5C123.1,118.2,121,118,118.9,119.3L118.9,119.3z"/>
		<path fill="#FFFFFF" d="M118.9,119.4c2.1-1.4,4.2-1.1,6.2,0.1c2,1.2,2.9,3.2,2.7,5.5c-0.3,2.4-1.7,4.1-4,4.9c-2.7,0.9-5.5,0-7-2.2
			c-1.4-2.1-1.4-4.9,0.3-6.8C117.5,120.2,118.3,119.8,118.9,119.4c-0.4,0.4-0.9,0.8-1.3,1.3c-1.8,1.9-2.1,4.6-0.7,6.7
			c1.3,2,4.1,3.1,6.4,2.3c2.7-0.8,4.3-3.1,4.2-5.8c-0.1-2.4-2-4.6-4.5-4.9C121.6,118.8,120.2,119.2,118.9,119.4z"/>
		<path fill="#E29153" d="M118.9,119.4c1.3-0.1,2.7-0.5,4-0.4c2.5,0.3,4.4,2.5,4.5,4.9c0.2,2.7-1.5,5-4.2,5.8
			c-2.3,0.7-5.1-0.3-6.4-2.3c-1.4-2.1-1.1-4.8,0.7-6.7C118,120.2,118.5,119.8,118.9,119.4C118.9,119.3,118.9,119.4,118.9,119.4z
			 M120.8,119.5c-2.5,0.4-4.3,2.8-3.9,5.4c0.4,2.7,2.9,4.5,5.6,4.1c2.6-0.4,4.5-2.9,4-5.5C126.1,120.7,123.7,119,120.8,119.5z"/>
		<path fill="#FFFFFF" d="M120.8,119.5c2.9-0.5,5.3,1.2,5.8,3.9c0.4,2.6-1.4,5.1-4,5.5c-2.7,0.4-5.2-1.4-5.6-4.1
			C116.5,122.3,118.3,119.9,120.8,119.5z M120.8,119.8c-2.5,0.6-4.1,2.9-3.5,5.4c0.6,2.4,3,3.9,5.4,3.4c2.4-0.6,4-2.9,3.5-5.3
			C125.6,120.8,123.2,119.3,120.8,119.8z"/>
		<path fill="#E29153" d="M120.8,119.8c2.4-0.5,4.8,1,5.3,3.4c0.5,2.4-1,4.8-3.5,5.3c-2.4,0.5-4.8-1-5.4-3.4
			C116.7,122.8,118.2,120.4,120.8,119.8z M121,120.6c-1.9,0.4-3.3,2.3-2.9,4.2c0.4,2,2.3,3.3,4.3,3c2-0.4,3.3-2.4,2.9-4.4
			C124.9,121.5,122.9,120.2,121,120.6z"/>
		<path fill="#FFFFFF" d="M121,120.6c1.9-0.4,3.9,0.9,4.3,2.8c0.4,2-1,4-2.9,4.4c-2,0.4-4-1-4.3-3C117.7,122.9,119.1,121,121,120.6z
			 M122.3,127.4c1.9-0.4,3-2.1,2.6-3.9c-0.4-1.8-2.1-2.9-3.9-2.5c-1.8,0.4-3,2-2.6,3.8C118.7,126.6,120.5,127.8,122.3,127.4z"/>
		<path fill="#E29153" d="M122.3,127.4c-1.8,0.4-3.6-0.8-3.9-2.6c-0.3-1.8,0.8-3.5,2.6-3.8c1.8-0.4,3.5,0.7,3.9,2.5
			C125.3,125.3,124.2,127,122.3,127.4z M123.7,123.7c-0.2-1-1.2-1.6-2.3-1.4c-1.1,0.2-1.9,1.3-1.7,2.2c0.2,0.9,1.3,1.5,2.4,1.3
			C123.2,125.6,123.9,124.7,123.7,123.7z"/>
		<path fill="#FFFFFF" d="M123.7,123.7c0.2,1-0.5,1.9-1.6,2.2c-1.1,0.2-2.2-0.4-2.4-1.3c-0.2-1,0.5-2,1.7-2.2
			C122.4,122.1,123.5,122.7,123.7,123.7z"/>
	</g>
</g>
</svg>
