<?xml version="1.0" encoding="utf-8"?>
<!-- Generator: Adobe Illustrator 17.1.0, SVG Export Plug-In . SVG Version: 6.00 Build 0)  -->
<!DOCTYPE svg PUBLIC "-//W3C//DTD SVG 1.1//EN" "http://www.w3.org/Graphics/SVG/1.1/DTD/svg11.dtd">
<svg version="1.1" id="Слой_1" xmlns="http://www.w3.org/2000/svg" xmlns:xlink="http://www.w3.org/1999/xlink" x="0px" y="0px"
	 viewBox="0 0 200 200" enable-background="new 0 0 200 200" xml:space="preserve">
<g>
	<circle fill="#E29153" cx="98.9" cy="97.1" r="68.4"/>
	<g>
		
			<rect x="54.5" y="71.6" transform="matrix(0.9662 0.2577 -0.2577 0.9662 25.0208 -12.596)" fill="#FFFFFF" width="12.2" height="35.1"/>
		
			<rect x="131.2" y="71.6" transform="matrix(-0.9662 0.2577 -0.2577 -0.9662 292.9492 139.9218)" fill="#FFFFFF" width="12.2" height="35.1"/>
		<path fill="#FFFFFF" d="M71.8,76.2l-6.4,24.4l3.9,3.5c0.2,0.2,0.5,0.3,0.8,0.2c2.5-0.9,4.4-0.5,5.6,1.5c0.2,0.4,0.6,0.5,1,0.4
			c2.8-0.8,4.7,0.4,6.1,3c0.2,0.3,0.5,0.5,0.8,0.4c3.8-0.4,5.6,1.8,6.3,5.5c0.1,0.3,0.3,0.6,0.7,0.7c2.4,0.5,3.9,2.1,4.3,5
			c0,0.2,0.1,0.4,0.3,0.5c6.8,6.1,10.9,1.6,9.3-1.4c3.6,3.6,9.3-0.5,6.1-5.4c5,4,10.9-0.5,8.1-5.5c7.5,4.2,13.7-2.4,3.8-10.3
			c-15-12.2-23-22.5-38.6-13.4c-10.7,3.4-14.4-2.8-6.7-8.5L71.8,76.2z"/>
		<path fill="#FFFFFF" d="M74.9,109.1c-0.3-3.6-2.8-4.8-5.9-2.8c0,0-0.1,0-0.1,0.1c-2.2,3.5,0.6,7.5,4.3,5.4
			c0.2-0.1,0.4,0.1,0.3,0.3c-1.3,4.1,3.1,7.1,6.3,4.2c0.1-0.1,0.4,0,0.4,0.2c0.2,3.8,3,5.6,5.5,4.2c0.1-0.1,0.3,0,0.3,0.2
			c0.7,4.2,5.6,5.5,9,3.1c0.1-0.1,0.1-0.3,0-0.4c-0.9-0.4-1.4-1-1.7-1.7c0,0,0,0,0-0.1c-0.4-3.3-2-4.9-5-4.4c-0.2,0-0.3-0.1-0.3-0.3
			c0.7-4.6-2.7-6.9-6-5.1c-0.2,0.1-0.3,0-0.3-0.2c-0.3-4.1-3.6-5.1-6.5-2.6C75.2,109.4,74.9,109.3,74.9,109.1z"/>
		<path fill="#FFFFFF" d="M126.1,76.2l6.4,24.8l-3.6,1.4c-8.4-8.4-20.5-20.5-32.2-22.8c-0.8-0.2-1.6-0.2-2.3-0.1
			c-3.7,0.5-8.1,2.2-12.7,4.5c-4.6,1.5-10.6-0.2-3.7-5.1c1.8-1,5.1-4.8,9.5-7.2C104.2,64.7,113.5,74.4,126.1,76.2z"/>
		<circle fill="#E29153" cx="58.5" cy="101.7" r="2.7"/>
		<circle fill="#E29153" cx="139.3" cy="101.7" r="2.7"/>
	</g>
</g>
</svg>
