<?xml version="1.0" encoding="utf-8"?>
<!-- Generator: Adobe Illustrator 17.1.0, SVG Export Plug-In . SVG Version: 6.00 Build 0)  -->
<!DOCTYPE svg PUBLIC "-//W3C//DTD SVG 1.1//EN" "http://www.w3.org/Graphics/SVG/1.1/DTD/svg11.dtd">
<svg version="1.1" id="Слой_1" xmlns="http://www.w3.org/2000/svg" xmlns:xlink="http://www.w3.org/1999/xlink" x="0px" y="0px"
	 viewBox="0 0 200 200" enable-background="new 0 0 200 200" xml:space="preserve">
<g>
	<circle fill="#E29153" cx="98.9" cy="97.3" r="68.4"/>
	<g>
		<path fill="#FFFFFF" d="M44.1,112.2h-1.9c-0.2,0-0.4-0.2-0.4-0.4v-4.6c0-0.1,0.1-0.3,0.2-0.3l0.6-0.4c0.1-0.1,0.2-0.2,0.2-0.3
			v-6.5c0-0.2,0.1-0.3,0.2-0.4c3.9-1.8,7.7-2.9,11.3-3.1c0.1,0,0.3-0.1,0.3-0.2l2.7-6.2c0.1-0.1,0.2-0.2,0.4-0.2l4.2,0
			c0.2,0,0.3-0.1,0.4-0.3c0.3-0.9,1-1.7,1.9-2.3c0.3-0.2,0.6,0,0.6,0.3V89c0,0.2,0.2,0.4,0.4,0.4H66c0.2,0,0.4-0.2,0.4-0.4v-2.7
			c0-0.2,0.2-0.4,0.4-0.4h11.1c0.2,0,0.4,0.2,0.4,0.4v19.8c0,0.2-0.2,0.4-0.4,0.4H67.4c-0.2,0-0.4,0.2-0.4,0.4v4.4
			c0,0.2-0.2,0.4-0.4,0.4h-9.7c-0.2,0-0.4-0.2-0.4-0.4c-0.3-10-11.7-11-12,0.6C44.5,112.1,44.3,112.2,44.1,112.2z"/>
		<ellipse fill="#FFFFFF" cx="50.5" cy="109.8" rx="4.7" ry="5.1"/>
		<ellipse fill="#E29153" cx="50.5" cy="109.8" rx="2.4" ry="2.6"/>
		<ellipse fill="#FFFFFF" cx="88.6" cy="109.8" rx="4.7" ry="5.1"/>
		<ellipse fill="#E29153" cx="88.6" cy="109.8" rx="2.4" ry="2.6"/>
		<ellipse fill="#FFFFFF" cx="98.8" cy="109.8" rx="4.7" ry="5.1"/>
		<ellipse fill="#E29153" cx="98.8" cy="109.8" rx="2.4" ry="2.6"/>
		<ellipse fill="#FFFFFF" cx="133.5" cy="109.8" rx="4.7" ry="5.1"/>
		<ellipse fill="#E29153" cx="133.5" cy="109.8" rx="2.4" ry="2.6"/>
		<ellipse fill="#FFFFFF" cx="143.5" cy="109.8" rx="4.7" ry="5.1"/>
		<ellipse fill="#E29153" cx="143.5" cy="109.8" rx="2.4" ry="2.6"/>
		<path fill="#E29153" d="M65,110.1h-6.3c-0.3,0-0.6-0.2-0.6-0.6V108c0-0.3,0.2-0.6,0.6-0.6H65c0.3,0,0.6,0.2,0.6,0.6v1.6
			C65.5,109.9,65.3,110.1,65,110.1z"/>
		<path fill="#E29153" d="M58.8,91.2h6.1c0.1,0,0.2,0.1,0.2,0.2v5.1c0,0.1-0.1,0.2-0.2,0.2H57c-0.2,0-0.3-0.2-0.2-0.3l1.8-5.1
			C58.6,91.3,58.7,91.2,58.8,91.2z"/>
		<path fill="#FFFFFF" d="M81.9,113.9H69.3c-0.3,0-0.5-0.2-0.5-0.5v-4.5c0-0.3,0.2-0.5,0.5-0.5h12.6c0.3,0,0.5,0.2,0.5,0.5v4.5
			C82.3,113.7,82.1,113.9,81.9,113.9z"/>
		<path fill="#FFFFFF" d="M90.5,85.1h-6.6c-0.3,0-0.5-0.2-0.5-0.5v-4.5c0-0.3,0.2-0.5,0.5-0.5h6.6c0.3,0,0.5,0.2,0.5,0.5v4.5
			C91,84.8,90.7,85.1,90.5,85.1z"/>
		<path fill="#FFFFFF" d="M90.5,92.6h-6.6c-0.3,0-0.5-0.2-0.5-0.5v-4.5c0-0.3,0.2-0.5,0.5-0.5h6.6c0.3,0,0.5,0.2,0.5,0.5V92
			C91,92.3,90.7,92.6,90.5,92.6z"/>
		<path fill="#FFFFFF" d="M90.5,100.1h-6.6c-0.3,0-0.5-0.2-0.5-0.5v-4.5c0-0.3,0.2-0.5,0.5-0.5h6.6c0.3,0,0.5,0.2,0.5,0.5v4.5
			C91,99.9,90.7,100.1,90.5,100.1z"/>
		<path fill="#FFFFFF" d="M148.2,85.1h-6.6c-0.3,0-0.5-0.2-0.5-0.5v-4.5c0-0.3,0.2-0.5,0.5-0.5h6.6c0.3,0,0.5,0.2,0.5,0.5v4.5
			C148.7,84.8,148.5,85.1,148.2,85.1z"/>
		<path fill="#FFFFFF" d="M148.2,92.6h-6.6c-0.3,0-0.5-0.2-0.5-0.5v-4.5c0-0.3,0.2-0.5,0.5-0.5h6.6c0.3,0,0.5,0.2,0.5,0.5V92
			C148.7,92.3,148.5,92.6,148.2,92.6z"/>
		<path fill="#FFFFFF" d="M148.2,100.1h-6.6c-0.3,0-0.5-0.2-0.5-0.5v-4.5c0-0.3,0.2-0.5,0.5-0.5h6.6c0.3,0,0.5,0.2,0.5,0.5v4.5
			C148.7,99.9,148.5,100.1,148.2,100.1z"/>
		<path fill="#FFFFFF" d="M135.3,85.1H96.6c-0.3,0-0.5-0.2-0.5-0.5v-4.5c0-0.3,0.2-0.5,0.5-0.5h38.7c0.3,0,0.5,0.2,0.5,0.5v4.5
			C135.9,84.8,135.6,85.1,135.3,85.1z"/>
		<path fill="#FFFFFF" d="M135.3,92.6H96.6c-0.3,0-0.5-0.2-0.5-0.5v-4.5c0-0.3,0.2-0.5,0.5-0.5h38.7c0.3,0,0.5,0.2,0.5,0.5V92
			C135.9,92.3,135.6,92.6,135.3,92.6z"/>
		<path fill="#FFFFFF" d="M135.3,100.1H96.6c-0.3,0-0.5-0.2-0.5-0.5v-4.5c0-0.3,0.2-0.5,0.5-0.5h38.7c0.3,0,0.5,0.2,0.5,0.5v4.5
			C135.9,99.9,135.6,100.1,135.3,100.1z"/>
		<path fill="#FFFFFF" d="M94.7,100.6V80.1c0-0.3-0.2-0.5-0.5-0.5h-1.3c-0.3,0-0.5,0.2-0.5,0.5v20.5c0,0.3-0.2,0.5-0.5,0.5h-7.9
			c-0.3,0-0.5,0.2-0.5,0.5v1.3c0,0.3,0.2,0.5,0.5,0.5h20.5c0.3,0,0.5-0.2,0.5-0.5v-1.3c0-0.3-0.2-0.5-0.5-0.5h-9.2
			C95,101.1,94.7,100.9,94.7,100.6z"/>
		<path fill="#FFFFFF" d="M151.6,82.3h-0.5c-0.3,0-0.6,0.3-0.5,0.6l1.7,17.6c0,0.3-0.2,0.6-0.5,0.6h-11.5c-0.3,0-0.5-0.2-0.5-0.5
			V80.1c0-0.3-0.2-0.5-0.5-0.5h-1.3c-0.3,0-0.5,0.2-0.5,0.5v20.5c0,0.3-0.2,0.5-0.5,0.5h-7.9c-0.3,0-0.5,0.2-0.5,0.5v1.3
			c0,0.3,0.2,0.5,0.5,0.5h26.6c0.3,0,0.5-0.2,0.5-0.5v-1.8c0,0,0-0.1,0-0.1l-3.9-18.3C152,82.5,151.8,82.3,151.6,82.3z"/>
	</g>
</g>
</svg>
