<?xml version="1.0" encoding="utf-8"?>
<!-- Generator: Adobe Illustrator 17.1.0, SVG Export Plug-In . SVG Version: 6.00 Build 0)  -->
<!DOCTYPE svg PUBLIC "-//W3C//DTD SVG 1.1//EN" "http://www.w3.org/Graphics/SVG/1.1/DTD/svg11.dtd">
<svg version="1.1" id="Слой_1" xmlns="http://www.w3.org/2000/svg" xmlns:xlink="http://www.w3.org/1999/xlink" x="0px" y="0px"
	 viewBox="0 0 200 200" enable-background="new 0 0 200 200" xml:space="preserve">
<g>
	<path fill="#E29153" d="M94.1,123.6v-9h71.1c0.1-0.3,0.2-0.7,0.2-1H94.1v-9h72.8c0.2-2.3,0.3-4.6,0.3-6.9
		c0-37.8-30.6-68.4-68.4-68.4S30.4,60,30.4,97.8c0,37.8,30.6,68.4,68.4,68.4c17.8,0,34-6.8,46.2-18h-61v-13.6h72.4
		c0.2-0.4,0.5-0.7,0.7-1.1H94.1v-9h67.7c0.1-0.3,0.3-0.6,0.4-1H94.1z"/>
	<g>
		<g>
			<path fill="#FFFFFF" d="M63.8,116.8c1-0.9,1.9-1.8,3-2.6c1.2-0.8,1.9-1.8,1.6-3.3c-0.1-0.6,0-1.2,0-1.8c2.6,0,5.1,0,7.5,0
				c0.1,0.1,0.2,0.2,0.2,0.2c-0.9,4,1.5,5.8,4.6,7.2c0.2,0.1,0.3,0.2,0.5,0.4C75.4,116.8,69.6,116.8,63.8,116.8z"/>
			<path fill="#FFFFFF" d="M68.5,78.2c2.5,0,5,0,7.5,0c0,9.6,0,19.1,0,28.7c-2.5,0-5,0-7.5,0C68.5,97.3,68.5,87.9,68.5,78.2z"/>
			<path fill="#FFFFFF" d="M66.5,64.4c3.6,0,7.2,0,10.8,0c0.3,0,0.9,0.6,0.9,0.9c0.1,3.7,0,7.4,0,11.3c-4,0-7.8,0-11.7,0
				C66.5,72.6,66.5,68.6,66.5,64.4z"/>
			<path fill="#FFFFFF" d="M110.3,58.4c1.9,0,3.8,0,5.5,0c0.5-2.8-0.6-4.3-3.2-4.5c-0.9-0.1-1.8,0-2.7,0c-3.8-0.1-7.5,0-11.3-1.1
				c-7.8-2.2-15.7-3.7-23.6-5.4c-0.7-0.1-1.4,0-2.5,0c-0.4,0-1.2,0-1.8,0.2c-2.8,1.3-5.6,2.7-8.4,4c-3.2,1.6-6.4,3.2-9.7,4.8
				c0,0.2,0,0.3,0,0.5c5.2,2.8,11,0.8,16.5,1.7c0,1.7,0,3.4,0,5.1c4.1,0,8.1,0,12.2,0c0-1.8,0-3.5,0-5.2c9.3,0,18.4,0,27.5,0
				c0.1,0.2,0.1,0.4,0.1,0.5c0,4.2,0,8.4,0,12.6h0c0,0.5,0,1,0,1.5c0,0.5-0.5,1.2-0.9,1.5c-1.7,1.3-2.3,3.6-0.8,4.9
				c1.1,1,2.1,1.8,1.9,3.4c0,0.3,0.6,0.6,0.9,1c0.1,0.1,0.2,0.3,0.2,0.5c0.2,0.4,0,0.8-0.4,0.9c-0.2,0-0.9,0.2-1.1,0.2
				c-0.3,0.1-0.5,0.4-0.3,0.7c0.1,0.2,2.5,0.9,3.2-0.1c0.7-1,0.7-2.1-0.3-3c-1.4-1.4-1.4-1.9,0.1-3c1.9-1.3,1.9-4.3-0.1-5.4
				c-0.9-0.5-1-1.1-1-2c0-0.4,0-0.8,0-1.2h0c0-3.9,0-7.7,0-11.6C110.2,59.6,110.3,59,110.3,58.4z M71,55c0,0.3-0.7,0.8-1.1,0.8
				c-4.3,0.1-8.7,0-13.3,0c5-2.4,9.8-4.7,14.9-7.2C71.4,51,71.3,53,71,55z M95.6,53.8c-4.4,0-8.8,0.1-13.2,0c-2.1,0-4,0.3-5.8,1.4
				c-0.5,0.3-1.1,0.6-2,1c-0.3-2.6-0.5-4.9-0.8-7.6c7.4,1.7,14.6,3.3,21.8,4.9C95.6,53.6,95.6,53.7,95.6,53.8z M110.6,76.1
				c0.5,0.3,0.7,0.8,0.7,1.4c0,1.1-0.7,1.8-1.8,1.8c-1.1,0-1.9-0.7-1.8-1.8c0-0.3,0.2-0.7,0.4-1C108.7,75.9,109.8,75.6,110.6,76.1z"
				/>
		</g>
		<rect x="92.3" y="92.6" fill="#FFFFFF" width="35.1" height="4.4"/>
		<polyline fill="none" stroke="#FFFFFF" stroke-miterlimit="10" points="122.8,97 122.8,92.6 109.6,85.3 96.8,92.6 96.8,97 		"/>
		<line fill="none" stroke="#E29153" stroke-miterlimit="10" x1="96.7" y1="92.6" x2="96.7" y2="97"/>
		<line fill="none" stroke="#E29153" stroke-miterlimit="10" x1="122.7" y1="92.6" x2="122.7" y2="97"/>
		<g>
			<path fill="#FFFFFF" d="M105.1,101.8c0.6-0.3,1.2-0.6,1.8-0.9c0,0,0,0.1,0.1,0.1c-0.6,0.3-1.2,0.6-1.8,0.9
				C105.1,101.8,105.1,101.8,105.1,101.8z"/>
			<path fill="#E29153" d="M103.6,102.4c2.3-3.2,7-2.9,8.6,0.6c0.8,1.8,0.6,3.6-0.6,5.1c-1.3,1.6-3,2.2-5,1.7
				c-1.9-0.4-3.2-1.7-3.6-3.7c-0.3-1.1-0.1-2.1,0.3-3.1C103.4,102.8,103.5,102.6,103.6,102.4z M104.7,102c-0.2,0.2-0.3,0.3-0.5,0.5
				c-0.8,1.1-1,2.3-0.7,3.6c0.5,2,2.2,3.3,4.3,3.4c2,0.1,3.9-1.2,4.5-3.1c0.6-1.7,0.2-3.3-1.1-4.5c-1.4-1.3-3-1.7-4.8-1
				C105.7,101.1,105,101.3,104.7,102z"/>
			<path fill="#E29153" d="M104.2,102.5c0.2-0.2,0.3-0.3,0.5-0.5c0.2-0.1,0.4-0.3,0.6-0.4c2.5-2,6.4-0.6,7,2.5
				c0.3,1.7-0.4,3.5-1.9,4.4c-1.5,1-3.6,1-5.1-0.1c-1.4-1-2.1-2.8-1.6-4.5C103.8,103.5,104,103,104.2,102.5z M105.1,102.3
				c-0.1,0.1-0.1,0.1-0.2,0.2c-0.6,0.4-0.9,1.1-1,1.8c-0.3,1.5,0.2,2.8,1.4,3.7c1.3,1,2.7,1.2,4.2,0.5c1.9-0.9,2.8-3.1,2-5
				c-0.8-1.9-3-2.9-5-2.1C105.9,101.5,105.4,101.6,105.1,102.3z"/>
			<path fill="#FFFFFF" d="M104.2,102.5c-0.2,0.5-0.4,1-0.6,1.5c-0.5,1.8,0.2,3.5,1.6,4.5c1.5,1.1,3.5,1.1,5.1,0.1
				c1.5-1,2.2-2.7,1.9-4.4c-0.6-3.1-4.5-4.5-7-2.5c-0.2,0.1-0.4,0.3-0.6,0.4c0.3-0.7,1-1,1.7-1.2c1.8-0.6,3.4-0.3,4.8,1
				c1.3,1.3,1.6,2.8,1.1,4.5c-0.6,1.9-2.5,3.1-4.5,3.1c-2.1-0.1-3.8-1.4-4.3-3.4C103.1,104.8,103.4,103.6,104.2,102.5z"/>
			<path fill="#E29153" d="M104.9,102.4c0.1-0.1,0.1-0.1,0.2-0.2c0.7-0.6,1.5-1,2.4-1c2-0.2,3.8,1.3,4,3.3c0.2,1.9-1.2,3.7-3.2,4.1
				c-2,0.3-3.9-0.9-4.3-2.8C103.8,104.5,104.1,103.4,104.9,102.4z M105.6,102.7c-0.3,0.4-0.6,0.7-0.8,1.1c-0.6,1.3-0.2,2.7,0.8,3.7
				c1.1,0.9,2.6,1.1,3.9,0.3c1.2-0.7,1.8-2.2,1.5-3.6c-0.3-1.3-1.6-2.3-2.9-2.4C107.1,101.7,106.2,101.9,105.6,102.7L105.6,102.7z"
				/>
			<path fill="#FFFFFF" d="M104.9,102.4c-0.8,1-1.1,2.1-0.8,3.4c0.4,1.9,2.3,3.2,4.3,2.8c2-0.4,3.5-2.2,3.2-4.1
				c-0.3-2.1-2-3.5-4-3.3c-0.9,0.1-1.7,0.4-2.4,1c0.3-0.6,0.8-0.8,1.4-1c1.9-0.7,4.2,0.3,5,2.1c0.8,1.9-0.1,4.1-2,5
				c-1.5,0.7-2.9,0.5-4.2-0.5c-1.2-0.9-1.7-2.2-1.4-3.7C104,103.5,104.3,102.9,104.9,102.4z"/>
			<path fill="#FFFFFF" d="M105.6,102.7c0.6-0.8,1.5-1,2.4-0.9c1.3,0,2.6,1.1,2.9,2.4c0.3,1.4-0.2,2.8-1.5,3.6
				c-1.2,0.8-2.8,0.6-3.9-0.3c-1.1-0.9-1.4-2.4-0.8-3.7C105,103.3,105.3,103,105.6,102.7c-0.1,0.1-0.1,0.3-0.2,0.4
				c-0.7,0.8-0.8,1.7-0.6,2.6c0.3,1.3,1.5,2.3,2.8,2.3c1.4,0.1,2.7-0.8,3.1-2.1c0.4-1.2,0-2.6-1-3.4c-1.1-0.8-2.6-0.9-3.7-0.1
				C105.9,102.5,105.7,102.6,105.6,102.7z"/>
			<path fill="#E29153" d="M105.6,102.7c0.1-0.1,0.3-0.1,0.4-0.2c1.1-0.8,2.6-0.7,3.7,0.1c1,0.8,1.4,2.2,1,3.4
				c-0.5,1.3-1.7,2.1-3.1,2.1c-1.3-0.1-2.5-1-2.8-2.3c-0.2-1,0-1.9,0.6-2.6C105.4,102.9,105.5,102.8,105.6,102.7L105.6,102.7z
				 M106.6,102.9c-0.3,0.2-0.6,0.4-0.8,0.6c-0.7,0.8-0.8,2-0.1,2.9c0.7,0.9,1.9,1.4,3,1c1-0.3,1.6-1.1,1.7-2.1
				c0.1-1-0.3-1.8-1.1-2.4C108.4,102.5,107.5,102.4,106.6,102.9L106.6,102.9z"/>
			<path fill="#FFFFFF" d="M106.6,103c0.9-0.6,1.8-0.5,2.6,0c0.9,0.5,1.3,1.4,1.1,2.4c-0.1,1-0.7,1.8-1.7,2.1c-1.1,0.4-2.4,0-3-1
				c-0.6-0.9-0.6-2.1,0.1-2.9C106,103.3,106.4,103.2,106.6,103c-0.2,0.2-0.4,0.3-0.6,0.5c-0.8,0.8-0.9,2-0.3,2.9
				c0.6,0.9,1.7,1.3,2.7,1c1.1-0.4,1.8-1.3,1.8-2.5c-0.1-1-0.9-2-1.9-2.1C107.8,102.7,107.2,102.9,106.6,103z"/>
			<path fill="#E29153" d="M106.6,103c0.6-0.1,1.2-0.2,1.7-0.2c1.1,0.1,1.9,1.1,1.9,2.1c0.1,1.1-0.6,2.1-1.8,2.5
				c-1,0.3-2.2-0.1-2.7-1c-0.6-0.9-0.5-2.1,0.3-2.9C106.2,103.3,106.4,103.1,106.6,103C106.6,102.9,106.6,103,106.6,103z M107.4,103
				c-1.1,0.2-1.8,1.2-1.7,2.3c0.2,1.2,1.2,1.9,2.4,1.8c1.1-0.2,1.9-1.3,1.7-2.4C109.7,103.5,108.6,102.8,107.4,103z"/>
			<path fill="#FFFFFF" d="M107.4,103c1.2-0.2,2.3,0.5,2.4,1.7c0.2,1.1-0.6,2.2-1.7,2.4c-1.1,0.2-2.2-0.6-2.4-1.8
				C105.6,104.2,106.4,103.2,107.4,103z M107.4,103.2c-1.1,0.2-1.7,1.3-1.5,2.3c0.2,1,1.3,1.7,2.3,1.4c1-0.2,1.7-1.3,1.5-2.3
				C109.5,103.6,108.5,102.9,107.4,103.2z"/>
			<path fill="#E29153" d="M107.4,103.2c1-0.2,2,0.4,2.3,1.5c0.2,1-0.4,2-1.5,2.3c-1,0.2-2.1-0.4-2.3-1.4
				C105.7,104.4,106.3,103.4,107.4,103.2z M107.5,103.5c-0.8,0.2-1.4,1-1.2,1.8c0.2,0.9,1,1.4,1.8,1.3c0.8-0.2,1.4-1,1.2-1.9
				C109.2,103.9,108.3,103.3,107.5,103.5z"/>
			<path fill="#FFFFFF" d="M107.5,103.5c0.8-0.2,1.7,0.4,1.8,1.2c0.2,0.8-0.4,1.7-1.2,1.9c-0.8,0.2-1.7-0.4-1.8-1.3
				C106.1,104.5,106.7,103.6,107.5,103.5z M108.1,106.4c0.8-0.2,1.3-0.9,1.1-1.7c-0.2-0.8-0.9-1.2-1.7-1.1c-0.8,0.2-1.3,0.9-1.1,1.6
				C106.6,106.1,107.3,106.6,108.1,106.4z"/>
			<path fill="#E29153" d="M108.1,106.4c-0.8,0.2-1.5-0.3-1.7-1.1c-0.1-0.8,0.4-1.5,1.1-1.6c0.8-0.2,1.5,0.3,1.7,1.1
				C109.4,105.5,108.9,106.3,108.1,106.4z M108.7,104.8c-0.1-0.4-0.5-0.7-1-0.6c-0.5,0.1-0.8,0.5-0.7,1c0.1,0.4,0.6,0.7,1,0.6
				C108.4,105.6,108.7,105.2,108.7,104.8z"/>
			<path fill="#FFFFFF" d="M108.7,104.8c0.1,0.4-0.2,0.8-0.7,0.9c-0.5,0.1-0.9-0.2-1-0.6c-0.1-0.4,0.2-0.9,0.7-1
				C108.1,104.1,108.6,104.4,108.7,104.8z"/>
		</g>
		<g>
			<path fill="#FFFFFF" d="M105.4,111.6c0.5-0.3,1.1-0.6,1.6-0.9c0,0,0,0.1,0,0.1C106.5,111.1,106,111.4,105.4,111.6
				C105.4,111.7,105.4,111.6,105.4,111.6z"/>
			<path fill="#E29153" d="M104,112.2c2.1-3,6.5-2.7,8,0.5c0.8,1.7,0.6,3.3-0.6,4.8c-1.2,1.5-2.8,2-4.6,1.6
				c-1.8-0.4-2.9-1.6-3.4-3.4c-0.2-1-0.1-2,0.2-2.9C103.8,112.5,103.9,112.3,104,112.2z M105,111.9c-0.1,0.1-0.3,0.3-0.4,0.4
				c-0.8,1-1,2.1-0.7,3.3c0.5,1.8,2,3,3.9,3.1c1.8,0.1,3.6-1.1,4.2-2.8c0.5-1.6,0.2-3-1-4.2c-1.3-1.2-2.8-1.5-4.4-1
				C105.9,110.9,105.3,111.2,105,111.9z"/>
			<path fill="#E29153" d="M104.5,112.3c0.1-0.1,0.3-0.3,0.4-0.4c0.2-0.1,0.3-0.3,0.5-0.4c2.3-1.8,5.9-0.5,6.5,2.3
				c0.3,1.6-0.4,3.2-1.8,4.1c-1.4,0.9-3.3,0.9-4.7-0.1c-1.3-1-1.9-2.6-1.5-4.2C104.1,113.2,104.4,112.7,104.5,112.3z M105.4,112.1
				c-0.1,0.1-0.1,0.1-0.2,0.2c-0.6,0.4-0.8,1-0.9,1.6c-0.3,1.4,0.2,2.6,1.3,3.5c1.2,0.9,2.5,1.1,3.9,0.4c1.8-0.8,2.6-2.9,1.9-4.6
				c-0.7-1.7-2.8-2.7-4.6-2C106.2,111.3,105.6,111.5,105.4,112.1z"/>
			<path fill="#FFFFFF" d="M104.5,112.3c-0.2,0.4-0.4,0.9-0.5,1.3c-0.4,1.6,0.2,3.2,1.5,4.2c1.4,1,3.3,1,4.7,0.1
				c1.4-0.9,2.1-2.5,1.8-4.1c-0.6-2.9-4.2-4.2-6.5-2.3c-0.2,0.1-0.3,0.3-0.5,0.4c0.3-0.6,0.9-0.9,1.6-1.1c1.7-0.6,3.2-0.3,4.4,1
				c1.2,1.2,1.5,2.6,1,4.2c-0.6,1.7-2.3,2.9-4.2,2.8c-1.9-0.1-3.5-1.3-3.9-3.1C103.6,114.4,103.8,113.3,104.5,112.3z"/>
			<path fill="#E29153" d="M105.2,112.2c0.1-0.1,0.1-0.1,0.2-0.2c0.7-0.6,1.4-0.9,2.3-1c1.9-0.1,3.5,1.2,3.7,3.1
				c0.2,1.8-1.1,3.4-3,3.8c-1.8,0.3-3.6-0.9-4-2.6C104.1,114.1,104.4,113.1,105.2,112.2z M105.8,112.4c-0.3,0.3-0.6,0.6-0.8,1
				c-0.5,1.2-0.2,2.5,0.8,3.4c1,0.9,2.4,1,3.6,0.3c1.1-0.7,1.7-2,1.3-3.3c-0.3-1.2-1.4-2.2-2.7-2.2
				C107.2,111.6,106.4,111.7,105.8,112.4L105.8,112.4z"/>
			<path fill="#FFFFFF" d="M105.2,112.2c-0.7,0.9-1,1.9-0.8,3.1c0.4,1.8,2.2,2.9,4,2.6c1.9-0.3,3.2-2,3-3.8
				c-0.2-1.9-1.8-3.2-3.7-3.1c-0.9,0.1-1.6,0.4-2.3,1c0.2-0.6,0.8-0.7,1.3-0.9c1.8-0.7,3.9,0.3,4.6,2c0.7,1.8-0.1,3.8-1.9,4.6
				c-1.4,0.6-2.7,0.5-3.9-0.4c-1.1-0.9-1.6-2.1-1.3-3.5C104.4,113.2,104.6,112.6,105.2,112.2z"/>
			<path fill="#FFFFFF" d="M105.8,112.4c0.6-0.7,1.4-0.9,2.2-0.9c1.2,0,2.4,1,2.7,2.2c0.3,1.3-0.2,2.6-1.3,3.3
				c-1.1,0.7-2.6,0.6-3.6-0.3c-1-0.9-1.3-2.2-0.8-3.4C105.2,113.1,105.6,112.8,105.8,112.4c-0.1,0.1-0.1,0.2-0.2,0.4
				c-0.6,0.7-0.8,1.6-0.6,2.4c0.3,1.2,1.4,2.1,2.6,2.2c1.3,0.1,2.5-0.7,2.9-1.9c0.4-1.1,0-2.4-0.9-3.2c-1-0.8-2.4-0.8-3.4-0.1
				C106.1,112.3,105.9,112.4,105.8,112.4z"/>
			<path fill="#E29153" d="M105.8,112.4c0.1-0.1,0.3-0.1,0.4-0.2c1-0.7,2.4-0.7,3.4,0.1c1,0.7,1.3,2.1,0.9,3.2
				c-0.4,1.2-1.6,2-2.9,1.9c-1.2-0.1-2.3-0.9-2.6-2.2c-0.2-0.9,0-1.7,0.6-2.4C105.7,112.7,105.8,112.6,105.8,112.4L105.8,112.4z
				 M106.8,112.7c-0.3,0.2-0.6,0.3-0.8,0.6c-0.7,0.8-0.7,1.9-0.1,2.7c0.6,0.9,1.7,1.3,2.8,0.9c0.9-0.3,1.5-1,1.6-1.9
				c0.1-0.9-0.2-1.7-1-2.2C108.4,112.3,107.6,112.2,106.8,112.7L106.8,112.7z"/>
			<path fill="#FFFFFF" d="M106.8,112.7c0.8-0.5,1.6-0.5,2.4,0c0.8,0.5,1.2,1.3,1,2.2c-0.1,1-0.7,1.6-1.6,1.9
				c-1.1,0.4-2.2,0-2.8-0.9c-0.6-0.8-0.5-1.9,0.1-2.7C106.2,113,106.5,112.9,106.8,112.7c-0.2,0.2-0.4,0.3-0.5,0.5
				c-0.7,0.7-0.8,1.8-0.3,2.7c0.5,0.8,1.6,1.2,2.5,0.9c1-0.3,1.7-1.2,1.6-2.3c-0.1-0.9-0.8-1.8-1.8-1.9
				C107.9,112.5,107.3,112.6,106.8,112.7z"/>
			<path fill="#E29153" d="M106.8,112.7c0.5-0.1,1.1-0.2,1.6-0.2c1,0.1,1.7,1,1.8,1.9c0.1,1.1-0.6,2-1.6,2.3c-0.9,0.3-2-0.1-2.5-0.9
				c-0.5-0.8-0.4-1.9,0.3-2.7C106.4,113,106.6,112.9,106.8,112.7C106.8,112.7,106.8,112.7,106.8,112.7z M107.5,112.8
				c-1,0.2-1.7,1.1-1.5,2.1c0.2,1.1,1.1,1.8,2.2,1.6c1-0.2,1.8-1.2,1.6-2.2C109.6,113.2,108.7,112.6,107.5,112.8z"/>
			<path fill="#FFFFFF" d="M107.5,112.8c1.1-0.2,2.1,0.5,2.3,1.6c0.2,1-0.6,2-1.6,2.2c-1.1,0.2-2-0.6-2.2-1.6
				C105.8,113.9,106.5,112.9,107.5,112.8z M107.5,112.9c-1,0.2-1.6,1.2-1.4,2.1c0.2,1,1.2,1.5,2.1,1.3c1-0.2,1.6-1.2,1.4-2.1
				C109.4,113.3,108.5,112.7,107.5,112.9z"/>
			<path fill="#E29153" d="M107.5,112.9c1-0.2,1.9,0.4,2.1,1.3c0.2,0.9-0.4,1.9-1.4,2.1c-1,0.2-1.9-0.4-2.1-1.3
				C105.9,114.1,106.5,113.1,107.5,112.9z M107.6,113.2c-0.8,0.1-1.3,0.9-1.2,1.7c0.1,0.8,0.9,1.3,1.7,1.2c0.8-0.2,1.3-1,1.2-1.7
				C109.2,113.6,108.4,113,107.6,113.2z"/>
			<path fill="#FFFFFF" d="M107.6,113.2c0.8-0.1,1.5,0.4,1.7,1.1c0.2,0.8-0.4,1.6-1.2,1.7c-0.8,0.2-1.6-0.4-1.7-1.2
				C106.3,114.1,106.9,113.3,107.6,113.2z M108.1,115.9c0.7-0.1,1.2-0.8,1-1.6c-0.1-0.7-0.8-1.1-1.5-1c-0.7,0.1-1.2,0.8-1,1.5
				C106.7,115.6,107.4,116,108.1,115.9z"/>
			<path fill="#E29153" d="M108.1,115.9c-0.7,0.1-1.4-0.3-1.5-1c-0.1-0.7,0.3-1.4,1-1.5c0.7-0.1,1.4,0.3,1.5,1
				C109.3,115.1,108.9,115.8,108.1,115.9z M108.7,114.4c-0.1-0.4-0.5-0.6-0.9-0.5c-0.4,0.1-0.8,0.5-0.7,0.9c0.1,0.4,0.5,0.6,0.9,0.5
				C108.5,115.2,108.7,114.8,108.7,114.4z"/>
			<path fill="#FFFFFF" d="M108.7,114.4c0.1,0.4-0.2,0.8-0.6,0.9c-0.4,0.1-0.9-0.1-0.9-0.5c-0.1-0.4,0.2-0.8,0.7-0.9
				C108.2,113.8,108.6,114,108.7,114.4z"/>
		</g>
		<g>
			<path fill="#FFFFFF" d="M105.5,120.5c0.6-0.3,1.1-0.6,1.7-0.9c0,0,0,0.1,0.1,0.1C106.6,120,106.1,120.3,105.5,120.5
				C105.5,120.5,105.5,120.5,105.5,120.5z"/>
			<path fill="#E29153" d="M104,121c2.2-3.1,6.7-2.8,8.3,0.5c0.8,1.7,0.6,3.4-0.6,4.9c-1.2,1.5-2.9,2.1-4.8,1.7
				c-1.8-0.4-3-1.6-3.5-3.5c-0.3-1-0.1-2,0.3-3C103.8,121.4,103.9,121.2,104,121z M105,120.7c-0.2,0.2-0.3,0.3-0.5,0.5
				c-0.8,1-1,2.2-0.7,3.4c0.5,1.9,2.1,3.2,4.1,3.2c1.9,0.1,3.7-1.1,4.3-2.9c0.6-1.6,0.2-3.1-1-4.4c-1.3-1.3-2.9-1.6-4.6-1
				C106,119.8,105.4,120.1,105,120.7z"/>
			<path fill="#E29153" d="M104.6,121.2c0.2-0.2,0.3-0.3,0.5-0.5c0.2-0.1,0.4-0.3,0.5-0.4c2.4-1.9,6.2-0.6,6.7,2.4
				c0.3,1.6-0.4,3.3-1.8,4.3c-1.5,1-3.4,0.9-4.9-0.1c-1.4-1-2-2.7-1.6-4.3C104.2,122.1,104.4,121.7,104.6,121.2z M105.4,120.9
				c-0.1,0.1-0.1,0.1-0.2,0.2c-0.6,0.4-0.8,1.1-1,1.7c-0.3,1.5,0.2,2.7,1.3,3.6c1.2,1,2.6,1.1,4,0.5c1.9-0.9,2.7-3,1.9-4.8
				c-0.7-1.8-2.9-2.8-4.8-2.1C106.3,120.2,105.7,120.3,105.4,120.9z"/>
			<path fill="#FFFFFF" d="M104.6,121.2c-0.2,0.5-0.4,0.9-0.5,1.4c-0.4,1.7,0.2,3.4,1.6,4.3c1.4,1,3.4,1.1,4.9,0.1
				c1.4-0.9,2.2-2.6,1.8-4.3c-0.6-3-4.3-4.3-6.7-2.4c-0.2,0.1-0.4,0.3-0.5,0.4c0.3-0.7,1-0.9,1.6-1.2c1.7-0.6,3.3-0.3,4.6,1
				c1.2,1.2,1.6,2.7,1,4.4c-0.6,1.8-2.4,3-4.3,2.9c-2-0.1-3.6-1.3-4.1-3.2C103.6,123.4,103.8,122.2,104.6,121.2z"/>
			<path fill="#E29153" d="M105.2,121.1c0.1-0.1,0.1-0.1,0.2-0.2c0.7-0.6,1.4-0.9,2.4-1c2-0.1,3.6,1.2,3.9,3.2
				c0.2,1.9-1.1,3.6-3.1,3.9c-1.9,0.3-3.7-0.9-4.1-2.7C104.2,123.1,104.5,122.1,105.2,121.1z M105.9,121.3c-0.3,0.3-0.6,0.6-0.8,1
				c-0.6,1.2-0.2,2.6,0.8,3.5c1,0.9,2.5,1,3.7,0.3c1.2-0.7,1.7-2.1,1.4-3.4c-0.3-1.2-1.5-2.3-2.8-2.3
				C107.4,120.4,106.5,120.6,105.9,121.3L105.9,121.3z"/>
			<path fill="#FFFFFF" d="M105.2,121.1c-0.8,1-1.1,2-0.8,3.2c0.4,1.8,2.3,3,4.1,2.7c2-0.3,3.3-2.1,3.1-3.9c-0.2-2-1.9-3.3-3.9-3.2
				c-0.9,0.1-1.7,0.4-2.4,1c0.2-0.6,0.8-0.8,1.3-0.9c1.9-0.7,4,0.3,4.8,2.1c0.8,1.9-0.1,4-1.9,4.8c-1.4,0.6-2.8,0.5-4-0.5
				c-1.2-0.9-1.6-2.1-1.3-3.6C104.4,122.2,104.6,121.5,105.2,121.1z"/>
			<path fill="#FFFFFF" d="M105.9,121.4c0.6-0.8,1.5-0.9,2.3-0.9c1.3,0,2.5,1,2.8,2.3c0.3,1.3-0.2,2.7-1.4,3.4
				c-1.2,0.7-2.7,0.6-3.7-0.3c-1-0.9-1.4-2.3-0.8-3.5C105.3,122,105.7,121.7,105.9,121.4c-0.1,0.1-0.1,0.3-0.2,0.4
				c-0.6,0.7-0.8,1.6-0.6,2.5c0.3,1.3,1.4,2.2,2.7,2.2c1.3,0.1,2.6-0.7,3-2c0.4-1.2,0-2.5-1-3.3c-1-0.8-2.5-0.8-3.6-0.1
				C106.2,121.2,106,121.3,105.9,121.4z"/>
			<path fill="#E29153" d="M105.9,121.4c0.1-0.1,0.3-0.1,0.4-0.2c1.1-0.7,2.5-0.7,3.6,0.1c1,0.8,1.4,2.1,1,3.3c-0.5,1.2-1.7,2-3,2
				c-1.3-0.1-2.4-1-2.7-2.2c-0.2-0.9,0-1.8,0.6-2.5C105.8,121.6,105.8,121.5,105.9,121.4L105.9,121.4z M106.9,121.6
				c-0.3,0.2-0.6,0.4-0.8,0.6c-0.7,0.8-0.7,2-0.1,2.8c0.6,0.9,1.8,1.3,2.9,0.9c0.9-0.3,1.5-1,1.6-2c0.1-1-0.3-1.8-1.1-2.3
				C108.6,121.1,107.8,121.1,106.9,121.6L106.9,121.6z"/>
			<path fill="#FFFFFF" d="M106.9,121.6c0.8-0.6,1.7-0.5,2.5,0c0.8,0.5,1.2,1.3,1.1,2.3c-0.1,1-0.7,1.7-1.6,2
				c-1.1,0.4-2.3,0-2.9-0.9c-0.6-0.9-0.6-2,0.1-2.8C106.3,122,106.7,121.8,106.9,121.6c-0.2,0.2-0.4,0.3-0.5,0.5
				c-0.7,0.8-0.8,1.9-0.3,2.8c0.5,0.8,1.7,1.3,2.6,1c1.1-0.3,1.8-1.3,1.7-2.4c-0.1-1-0.8-1.9-1.8-2
				C108,121.4,107.5,121.6,106.9,121.6z"/>
			<path fill="#E29153" d="M106.9,121.6c0.6-0.1,1.1-0.2,1.7-0.2c1,0.1,1.8,1,1.8,2c0.1,1.1-0.6,2.1-1.7,2.4c-1,0.3-2.1-0.1-2.6-1
				c-0.6-0.9-0.4-2,0.3-2.8C106.5,122,106.7,121.8,106.9,121.6C106.9,121.6,106.9,121.6,106.9,121.6z M107.7,121.7
				c-1,0.2-1.7,1.2-1.6,2.2c0.2,1.1,1.2,1.9,2.3,1.7c1.1-0.2,1.8-1.2,1.7-2.3C109.8,122.2,108.9,121.5,107.7,121.7z"/>
			<path fill="#FFFFFF" d="M107.7,121.7c1.2-0.2,2.2,0.5,2.4,1.6c0.2,1.1-0.6,2.1-1.7,2.3c-1.1,0.2-2.1-0.6-2.3-1.7
				C105.9,122.8,106.7,121.8,107.7,121.7z M107.7,121.8c-1,0.2-1.7,1.2-1.4,2.2c0.2,1,1.2,1.6,2.2,1.4c1-0.2,1.6-1.2,1.4-2.2
				C109.6,122.2,108.7,121.6,107.7,121.8z"/>
			<path fill="#E29153" d="M107.7,121.8c1-0.2,2,0.4,2.2,1.4c0.2,1-0.4,2-1.4,2.2c-1,0.2-2-0.4-2.2-1.4
				C106,123,106.6,122.1,107.7,121.8z M107.8,122.1c-0.8,0.2-1.3,1-1.2,1.7c0.1,0.8,1,1.4,1.8,1.2c0.8-0.2,1.4-1,1.2-1.8
				C109.4,122.5,108.6,122,107.8,122.1z"/>
			<path fill="#FFFFFF" d="M107.8,122.1c0.8-0.2,1.6,0.4,1.8,1.2c0.2,0.8-0.4,1.6-1.2,1.8c-0.8,0.2-1.6-0.4-1.8-1.2
				C106.4,123.1,107,122.3,107.8,122.1z M108.3,124.9c0.8-0.2,1.2-0.9,1.1-1.6c-0.2-0.7-0.8-1.2-1.6-1c-0.7,0.1-1.2,0.8-1.1,1.6
				C106.8,124.6,107.6,125.1,108.3,124.9z"/>
			<path fill="#E29153" d="M108.3,124.9c-0.8,0.2-1.5-0.3-1.6-1.1c-0.1-0.7,0.3-1.4,1.1-1.6c0.7-0.1,1.4,0.3,1.6,1
				C109.5,124.1,109.1,124.8,108.3,124.9z M108.9,123.4c-0.1-0.4-0.5-0.7-1-0.6c-0.5,0.1-0.8,0.5-0.7,0.9c0.1,0.4,0.5,0.6,1,0.5
				C108.7,124.2,108.9,123.8,108.9,123.4z"/>
			<path fill="#FFFFFF" d="M108.9,123.4c0.1,0.4-0.2,0.8-0.7,0.9c-0.4,0.1-0.9-0.1-1-0.5c-0.1-0.4,0.2-0.8,0.7-0.9
				C108.4,122.8,108.8,123,108.9,123.4z"/>
		</g>
		<path fill="#FFFFFF" d="M105.2,130.1c0.7-0.4,1.3-0.7,2-1.1c0,0,0,0.1,0.1,0.1c-0.7,0.4-1.4,0.7-2,1.1
			C105.3,130.1,105.2,130.1,105.2,130.1z"/>
		<path fill="#E29153" d="M103.6,130.8c2.6-3.7,8-3.4,9.9,0.6c1,2.1,0.7,4.1-0.7,5.9c-1.5,1.8-3.5,2.5-5.7,2c-2.2-0.5-3.6-2-4.2-4.2
			c-0.1-0.3-0.1-0.6-0.1-0.9c-0.1-0.9,0.1-1.8,0.4-2.7C103.3,131.2,103.4,131,103.6,130.8z M104.7,130.4c-0.2,0.2-0.4,0.4-0.6,0.5
			c-1,1.2-1.2,2.6-0.8,4.1c0.6,2.3,2.5,3.8,4.9,3.9c2.3,0.1,4.4-1.4,5.2-3.5c0.7-2,0.3-3.8-1.2-5.2c-1.6-1.5-3.5-1.9-5.5-1.2
			C105.9,129.3,105.1,129.6,104.7,130.4z"/>
		<path fill="#E29153" d="M104.2,130.9c0.2-0.2,0.4-0.4,0.6-0.5c0.2-0.2,0.4-0.3,0.6-0.5c2.9-2.3,7.4-0.7,8.1,2.9
			c0.4,1.9-0.5,4-2.2,5.1c-1.8,1.2-4.1,1.1-5.8-0.1c-1.7-1.2-2.4-3.2-1.9-5.2C103.7,132,104,131.5,104.2,130.9z M105.2,130.6
			c-0.1,0.1-0.2,0.1-0.2,0.2c-0.7,0.5-1,1.3-1.2,2c-0.4,1.7,0.2,3.2,1.6,4.3c1.5,1.1,3.1,1.3,4.8,0.6c2.2-1,3.2-3.5,2.3-5.8
			c-0.9-2.1-3.5-3.3-5.7-2.5C106.2,129.7,105.5,129.9,105.2,130.6z"/>
		<path fill="#FFFFFF" d="M104.2,130.9c-0.2,0.6-0.5,1.1-0.6,1.7c-0.5,2,0.2,4,1.9,5.2c1.7,1.2,4.1,1.3,5.8,0.1
			c1.7-1.1,2.6-3.2,2.2-5.1c-0.7-3.6-5.1-5.2-8.1-2.9c-0.2,0.2-0.4,0.3-0.6,0.5c0.4-0.8,1.2-1.1,1.9-1.4c2.1-0.7,4-0.4,5.5,1.2
			c1.5,1.5,1.9,3.2,1.2,5.2c-0.7,2.2-2.9,3.6-5.2,3.5c-2.4-0.1-4.3-1.6-4.9-3.9C103,133.6,103.2,132.2,104.2,130.9z"/>
		<path fill="#E29153" d="M105,130.8c0.1-0.1,0.2-0.1,0.2-0.2c0.8-0.7,1.7-1.1,2.8-1.2c2.3-0.2,4.3,1.4,4.6,3.8
			c0.3,2.2-1.4,4.3-3.7,4.7c-2.3,0.4-4.5-1.1-4.9-3.2C103.7,133.2,104.1,132,105,130.8z M105.8,131.1c-0.3,0.4-0.7,0.8-0.9,1.2
			c-0.7,1.4-0.3,3.1,1,4.2c1.2,1.1,3,1.2,4.4,0.3c1.4-0.9,2.1-2.5,1.7-4.1c-0.4-1.5-1.8-2.7-3.3-2.7
			C107.5,130,106.5,130.2,105.8,131.1L105.8,131.1z"/>
		<path fill="#FFFFFF" d="M105,130.8c-0.9,1.1-1.3,2.4-1,3.9c0.5,2.2,2.7,3.6,4.9,3.2c2.3-0.4,4-2.5,3.7-4.7c-0.3-2.4-2.3-4-4.6-3.8
			c-1.1,0.1-2,0.5-2.8,1.2c0.3-0.7,1-0.9,1.6-1.1c2.2-0.8,4.8,0.3,5.7,2.5c0.9,2.2-0.1,4.7-2.3,5.8c-1.7,0.8-3.3,0.6-4.8-0.6
			c-1.4-1.1-1.9-2.6-1.6-4.3C104,132.1,104.3,131.3,105,130.8z"/>
		<path fill="#FFFFFF" d="M105.8,131.1c0.7-0.9,1.7-1.1,2.8-1.1c1.5,0,3,1.2,3.3,2.7c0.4,1.6-0.3,3.2-1.7,4.1
			c-1.4,0.9-3.2,0.7-4.4-0.3c-1.2-1.1-1.6-2.8-1-4.2C105.1,131.9,105.5,131.5,105.8,131.1c-0.1,0.1-0.2,0.3-0.3,0.4
			c-0.8,0.9-1,1.9-0.7,3c0.4,1.5,1.7,2.6,3.2,2.7c1.6,0.1,3-0.9,3.6-2.4c0.5-1.4,0-3-1.1-3.9c-1.2-0.9-3-1-4.2-0.1
			C106.1,131,105.9,131,105.8,131.1z"/>
		<path fill="#E29153" d="M105.8,131.1c0.2-0.1,0.3-0.2,0.5-0.3c1.3-0.9,3-0.8,4.2,0.1c1.2,0.9,1.7,2.5,1.1,3.9
			c-0.5,1.5-2,2.4-3.6,2.4c-1.5-0.1-2.9-1.2-3.2-2.7c-0.3-1.1-0.1-2.1,0.7-3C105.6,131.4,105.7,131.3,105.8,131.1L105.8,131.1z
			 M107,131.4c-0.3,0.2-0.7,0.4-0.9,0.7c-0.8,1-0.9,2.3-0.2,3.4c0.7,1.1,2.1,1.6,3.4,1.1c1.1-0.4,1.8-1.2,2-2.4
			c0.1-1.2-0.3-2.1-1.3-2.7C109,130.9,108,130.8,107,131.4L107,131.4z"/>
		<path fill="#FFFFFF" d="M107,131.4c1-0.7,2-0.6,3,0c1,0.6,1.4,1.6,1.3,2.7c-0.1,1.2-0.8,2-2,2.4c-1.3,0.5-2.7,0-3.4-1.1
			c-0.7-1-0.7-2.4,0.2-3.4C106.3,131.8,106.7,131.7,107,131.4c-0.2,0.2-0.4,0.4-0.6,0.6c-0.9,0.9-1,2.3-0.3,3.3c0.6,1,2,1.5,3.1,1.1
			c1.3-0.4,2.1-1.5,2-2.9c-0.1-1.2-1-2.2-2.2-2.4C108.3,131.2,107.6,131.4,107,131.4z"/>
		<path fill="#E29153" d="M107,131.4c0.7-0.1,1.3-0.3,2-0.2c1.2,0.1,2.1,1.2,2.2,2.4c0.1,1.3-0.7,2.5-2,2.9
			c-1.1,0.4-2.5-0.1-3.1-1.1c-0.7-1-0.5-2.4,0.3-3.3C106.5,131.8,106.8,131.6,107,131.4C107,131.4,107,131.4,107,131.4z
			 M107.9,131.5c-1.2,0.2-2.1,1.4-1.9,2.6c0.2,1.3,1.4,2.2,2.7,2c1.3-0.2,2.2-1.4,2-2.7C110.5,132.1,109.3,131.3,107.9,131.5z"/>
		<path fill="#FFFFFF" d="M107.9,131.5c1.4-0.2,2.6,0.6,2.8,1.9c0.2,1.3-0.7,2.5-2,2.7c-1.3,0.2-2.5-0.7-2.7-2
			C105.8,132.9,106.7,131.7,107.9,131.5z M107.9,131.7c-1.2,0.3-2,1.4-1.7,2.6c0.3,1.2,1.5,1.9,2.6,1.6c1.2-0.3,2-1.4,1.7-2.6
			C110.2,132.1,109.1,131.4,107.9,131.7z"/>
		<path fill="#E29153" d="M107.9,131.7c1.2-0.3,2.3,0.5,2.6,1.7c0.3,1.2-0.5,2.3-1.7,2.6c-1.2,0.3-2.4-0.5-2.6-1.6
			C105.9,133.1,106.7,132,107.9,131.7z M108,132c-0.9,0.2-1.6,1.1-1.4,2.1c0.2,1,1.1,1.6,2.1,1.5c1-0.2,1.6-1.2,1.4-2.1
			C109.9,132.5,108.9,131.9,108,132z"/>
		<path fill="#FFFFFF" d="M108,132c0.9-0.2,1.9,0.5,2.1,1.4c0.2,1-0.5,2-1.4,2.1c-1,0.2-1.9-0.5-2.1-1.5
			C106.4,133.2,107.1,132.2,108,132z M108.7,135.4c0.9-0.2,1.5-1,1.3-1.9c-0.2-0.9-1-1.4-1.9-1.2c-0.9,0.2-1.4,1-1.3,1.9
			C106.9,135,107.8,135.6,108.7,135.4z"/>
		<path fill="#E29153" d="M108.7,135.4c-0.9,0.2-1.8-0.4-1.9-1.3c-0.2-0.9,0.4-1.7,1.3-1.9c0.9-0.2,1.7,0.4,1.9,1.2
			C110.1,134.4,109.6,135.2,108.7,135.4z M109.3,133.6c-0.1-0.5-0.6-0.8-1.1-0.7c-0.6,0.1-0.9,0.6-0.8,1.1c0.1,0.5,0.6,0.8,1.2,0.6
			C109.1,134.5,109.4,134.1,109.3,133.6z"/>
		<path fill="#FFFFFF" d="M109.3,133.6c0.1,0.5-0.2,1-0.8,1.1c-0.5,0.1-1.1-0.2-1.2-0.6c-0.1-0.5,0.3-1,0.8-1.1
			C108.7,132.8,109.2,133.1,109.3,133.6z"/>
		<path fill="#FFFFFF" d="M84.1,148.2h61c4.4-4,8.2-8.6,11.4-13.6H84.1V148.2z"/>
	</g>
</g>
</svg>
