<?xml version="1.0" encoding="utf-8"?>
<!-- Generator: Adobe Illustrator 17.1.0, SVG Export Plug-In . SVG Version: 6.00 Build 0)  -->
<!DOCTYPE svg PUBLIC "-//W3C//DTD SVG 1.1//EN" "http://www.w3.org/Graphics/SVG/1.1/DTD/svg11.dtd">
<svg version="1.1" id="Слой_1" xmlns="http://www.w3.org/2000/svg" xmlns:xlink="http://www.w3.org/1999/xlink" x="0px" y="0px"
	 viewBox="0 0 200 200" enable-background="new 0 0 200 200" xml:space="preserve">
<rect fill="#FFFFFF" width="200" height="200"/>
<g>
	<circle fill="#E29153" cx="98.8" cy="97.3" r="68.4"/>
	<g>
		<polygon fill="none" points="98.9,69.5 98.1,71.5 90.5,90.9 98.8,82.9 106.6,90.2 99.7,71.5 		"/>
		<polygon fill="none" points="106.8,90.9 110.2,94.1 110,93.4 106.6,90.2 		"/>
		<polygon fill="none" points="90.5,90.9 90.5,90.9 87.1,94.1 87.1,94.1 		"/>
		<polygon fill="#FFFFFF" points="110,93.4 110.2,94.1 106.8,90.9 106.6,90.2 98.8,82.9 90.5,90.9 90.5,90.9 87.1,94.1 87.1,94.1 
			65.8,114.5 69.5,118.2 98.9,90.4 128.3,118.2 131.9,114.3 		"/>
		<path fill="#FFFFFF" d="M76.1,122.5v20h46.2v-19.4L98.8,101L76.1,122.5z M98.7,135.8H91v-7.5h7.7V135.8z M98.7,127.2H91v-7.5h7.7
			V127.2z M99.7,119.7h7.7v7.5h-7.7V119.7z M99.7,128.3h7.7v7.5h-7.7V128.3z"/>
		<rect x="91" y="119.7" fill="#E29153" width="7.7" height="7.5"/>
		<rect x="99.7" y="119.7" fill="#E29153" width="7.7" height="7.5"/>
		<rect x="99.7" y="128.3" fill="#E29153" width="7.7" height="7.5"/>
		<rect x="91" y="128.3" fill="#E29153" width="7.7" height="7.5"/>
		<path fill="#FFFFFF" d="M98.1,71.5l0.8-2l0.7,2l7.2,19.4l3.4,3.2l-8.9-22.9c2.8-0.8,5-3.2,5.2-6.1c0.1-1.7,0-3.4,1.6-4.7
			c0.2-0.2,0.2-0.9,0-1.2c-0.2-0.2-0.8-0.2-1.2-0.1c-1.7,0.7-2.9,1.8-3.4,3.5c-0.2,0.7-0.4,1.5-0.6,2.2c-0.5,1.5-1.8,2.3-3.2,2.1
			c-0.4,0-0.7-0.1-1.1-0.2c-0.1,0-0.1-0.1-0.2-0.1c-1.6-0.7-2.4-2.5-1.4-4c1.9-2.6,3.1-5.6,5.5-7.9c0.5-0.4,0.8-1.3,0.8-1.8
			c-0.2-1.6,0.4-2.5,2-2.9c1.8-0.5,2.8-2.1,2.8-3.9c0-2.3,0-4.7,0-7c0-0.6-0.2-1.5-0.5-1.6c-0.6-0.2-0.9-0.5-1.1-0.9v-7.4
			c-0.6-0.1-1.1-0.1-1.7-0.2v7c-3.9-3.1-7.5-3-11.3-0.1c0-2.5,0-4.7,0-7c-0.6,0-1.1,0.1-1.7,0.1v7.3c-0.1,0.3-0.3,0.5-0.5,0.5
			c-1.2,0.3-1.5,1.1-1.4,2.1c0,2.4,0,4.8,0,7.1c0,1.7,1,2.8,2.4,3.6c0.8,0.5,1.7,0.7,2.7,1.1c0,0.8-0.2,1.5,0,2.1
			c0.3,0.7,0.8,1.4,1.3,2c0.2,0.3,0.9,0.6,0.9,0.7c-0.2,0.5-0.5,1-0.9,1.3c-0.4,0.3-0.9,0.4-1.4,0.6c-3.3,1.6-4.8,4.9-3.8,8.4
			c0.8,2.6,2.7,4.4,5.1,5.1l-9.4,22.9l3.4-3.2L98.1,71.5z"/>
	</g>
</g>
</svg>
