<svg xmlns="http://www.w3.org/2000/svg" viewBox="0 0 200 200"><circle fill="#E29153" cx="99.6" cy="97.2" r="68.4"/><path fill="#FFF" d="M65.7 127.9c.4-1.8.9-3.6 1.3-5.4.1 0 .2.1.3.1-.4 1.8-.9 3.6-1.3 5.4-.1 0-.2-.1-.3-.1z"/><path fill="#E29153" d="M64.3 132.1c-2.5-10.8 6.8-20.1 17.2-17.1 5.4 1.6 8.7 5.3 9.6 10.8 1 5.6-1 10.4-5.6 13.7-4.5 3.2-9.4 3.5-14.4.9-2.7-1.4-4.7-3.7-6.1-6.4-.3-.7-.5-1.3-.7-1.9zm1.2-2.8c0 .6.1 1.3.1 1.9.7 3.7 2.8 6.4 6.1 8.1 5.1 2.6 11 1.5 14.9-2.7 3.9-4 4.7-10.3 2-15.1-2.5-4.4-6.4-6.6-11.4-6.2-5.3.4-9 3.3-11.1 8.2-.7 1.9-1.4 3.8-.6 5.8z"/><g stroke="#E29153" stroke-width=".5" stroke-miterlimit="10"><path fill="none" d="M76.8 95.4c.4-1.2.9-2.5 1.3-3.7-.1-.1-.2-.1-.4-.2-.2.3-.4.7-.6 1-.5 1.3-.9 2.7-1.5 4-.4.9-.8 1.9-1.3 2.7-.4.7-1.2 1.3-1.4 2.1-1 3.3-1.8 6.6-2.6 9.9 0 .1.1.3.1.5.2 0 .3.1.5.1.7-3.8 2.5-7.2 3.9-10.7.8-1.8 1.3-3.8 2-5.7zm-12.5 36.7c.2.6.4 1.3.6 1.9.1.5.3 1 .4 1.5-.1-.5-.3-1-.4-1.5 1.4 2.7 3.3 4.9 6.1 6.4 5 2.6 9.9 2.3 14.4-.9 4.6-3.3 6.6-8 5.6-13.7-1-5.5-4.2-9.2-9.6-10.8-10.3-3-19.6 6.3-17.1 17.1zm14.2-33.2c-.2 1.7-.5 3.4-.7 5.1h.3c.3-1.7.5-3.4.8-5.1h-.4zm2.9 6.3h.3c.1-1.9.2-3.7.3-5.6h-.3c-.1 1.9-.2 3.8-.3 5.6zm-3-7.6c.4-1.9.7-3.8 1.1-5.7-.5 2-1.9 3.7-1.1 5.7z"/><path fill="#FFF" d="M82.4 87.2c-2.3-.1-3.9 1.3-4.8 3.4-4.5 9.9-9 19.7-13.4 29.6-1.9 4.2-3.1 8.5-1.5 13.2.5 1.4 1.1 2.5 2.3 3.3.5.3 1 .8 1.2 1.4.6 1.4 1.5 2.4 2.9 3 .6.3 1.3.6 1.9.9 3.2 1.8 6.8 1.1 10.2 1.4.5 0 1-.3 1.5-.5 2-1.1 4.1-2.2 6-3.4.7-.4 1.1-1.2 1.6-1.9.2-.4.1-1.1.4-1.4 1.8-1.9 2.1-4.2 2.2-6.6.1-1.5.4-3 .4-4.5-.1-1.7-.4-3.4-.6-5-1.1-8.3-2.2-16.7-3.4-25-.2-1.5-.6-3-1.2-4.4-1.3-2.3-3.3-3.4-5.7-3.5zm8.7 38.5c1 5.6-1 10.4-5.6 13.7-4.5 3.2-9.4 3.5-14.4.9-2.7-1.4-6.5-7.6-6.7-8.3-2.5-10.8 6.8-20.1 17.2-17.1 5.2 1.6 8.5 5.4 9.5 10.8zm-20.2-13.8c-.2 0-.3-.1-.5-.1 0-.2-.1-.3-.1-.5.8-3.3 1.7-6.6 2.6-9.9.2-.8 1-1.4 1.4-2.1.5-.9 1-1.8 1.3-2.7.5-1.3 1-2.7 1.5-4 .1-.4.4-.7.6-1 .1.1.2.1.4.2-.4 1.2-.9 2.4-1.3 3.7-.7 1.9-1.2 3.9-1.9 5.8-1.5 3.4-3.3 6.8-4 10.6zm6.8-7.9c.2-1.7.5-3.4.7-5.1h.3c-.3 1.7-.5 3.4-.8 5.1h-.2zm4 1.3h-.3c.1-1.9.2-3.7.2-5.6h.3c0 1.9-.1 3.7-.2 5.6zm-3.3-7.7c-.8-2.1.6-3.8 1.1-5.7-.4 2-.7 3.8-1.1 5.7z"/></g><path fill="#E29153" d="M65.6 131.2c0-.6-.1-1.3-.1-1.9 0-.7.1-1.3.1-2 .6-9 10.7-14.5 18.3-10.1 4.2 2.4 6.5 7.3 5.7 12.2-.7 5.1-4.6 9.3-9.6 10.5-4.8 1.1-9.6-.7-12.5-4.9-.7-1.1-1.2-2.5-1.9-3.8zm1.2-2.4v.8c-.3 2.1.7 3.9 1.8 5.4 2.6 3.4 6.2 4.8 10.4 4 4.5-.8 7.4-3.6 8.8-7.9 1.8-5.7-1.2-11.6-6.7-13.5-5.3-1.8-11.6 1.1-13.7 6.5-.7 1.5-1.5 3-.6 4.7z"/><path fill="#FFF" d="M65.6 131.2c.7 1.3 1.2 2.7 2 3.8 2.8 4.2 7.7 6.1 12.5 4.9 5-1.2 8.9-5.4 9.6-10.5.7-4.9-1.6-9.8-5.7-12.2-7.7-4.5-17.8 1.1-18.3 10.1 0 .7-.1 1.3-.1 2-.8-2-.2-4 .6-5.8 2-4.9 5.8-7.8 11.1-8.2 5-.4 8.9 1.8 11.4 6.2 2.8 4.8 1.9 11.1-2 15.1-4 4.2-9.9 5.3-14.9 2.7-3.4-1.7-5.5-4.4-6.2-8.1z"/><path fill="#E29153" d="M66.7 129.6v-.8c0-2.6.8-5 2.4-7.1 3.5-4.6 9.6-5.6 14.4-2.4 4.5 3.1 5.6 9.4 2.5 14.3-2.9 4.8-9.2 6.5-13.9 3.9-3.1-1.7-4.8-4.4-5.4-7.9zm1.8-1.1c.2 1.2.2 2.6.7 3.7 1.5 3.6 5.3 5.5 9.2 5 3.9-.5 7.1-3.6 7.8-7.6.7-3.9-1.2-7.8-4.7-9.6-3.3-1.7-7.8-1-10.4 1.7-1.7 1.9-3.1 4.1-2.6 6.8z"/><path fill="#FFF" d="M66.7 129.6c.6 3.5 2.3 6.2 5.4 8 4.7 2.6 11 .9 13.9-3.9 3-4.9 1.9-11.3-2.5-14.3-4.8-3.3-10.9-2.2-14.4 2.4-1.6 2.1-2.4 4.5-2.4 7.1-.8-1.7-.1-3.2.5-4.7 2.1-5.4 8.4-8.4 13.7-6.5 5.5 1.9 8.5 7.8 6.7 13.5-1.3 4.3-4.3 7.1-8.8 7.9-4.2.8-7.8-.6-10.4-4-1-1.7-1.9-3.4-1.7-5.5z"/><path fill="#FFF" d="M68.6 128.6c-.5-2.8.8-4.9 2.6-6.8 2.6-2.8 7.1-3.4 10.4-1.7 3.5 1.8 5.4 5.7 4.7 9.6-.7 4-3.9 7-7.8 7.6-3.9.5-7.6-1.5-9.2-5-.5-1.2-.5-2.5-.7-3.7.1.4.3.8.4 1.2.4 2.8 2 4.9 4.4 6.2 3.3 1.8 7.5 1.1 10.1-1.6 2.7-2.8 3.3-7 1.5-10.4-1.7-3.2-5.4-4.9-9-4.3-3.7.7-6.6 3.8-7.1 7.6-.1.4-.3.9-.3 1.3z"/><path fill="#E29153" d="M68.6 128.6c.1-.4.2-.9.3-1.3.5-3.8 3.4-6.9 7.1-7.6 3.6-.7 7.3 1.1 9 4.3 1.8 3.4 1.2 7.6-1.5 10.4-2.6 2.7-6.8 3.4-10.1 1.6-2.4-1.3-4-3.3-4.4-6.2-.1-.4-.3-.9-.4-1.2-.1-.1 0 0 0 0zm2.4-1.7c-.1 1-.3 1.9-.2 2.9.4 3.1 2.8 5.4 5.9 5.7 3.2.4 6.3-1.4 7.6-4.6 1.1-2.7.7-5.3-1.2-7.5-1.9-2.1-4.3-2.8-7-2-2.8.9-4.6 2.6-5.1 5.5z"/><path fill="#FFF" d="M71.1 126.9c.4-3 2.3-4.6 5-5.5 2.7-.8 5.2-.1 7 2 2 2.2 2.3 4.8 1.2 7.5-1.3 3.2-4.4 4.9-7.6 4.6-3-.4-5.4-2.6-5.9-5.7-.1-1 .2-2 .3-2.9 0 .7 0 1.4.1 2.2.3 3.1 2.5 5.5 5.4 5.9 2.9.4 6-1.2 7.2-3.9 1.4-3 .6-6.4-1.9-8.3-2.2-1.7-5.7-1.8-7.9.2-1.3 1-2 2.6-2.9 3.9z"/><path fill="#E29153" d="M71.1 126.9c.9-1.3 1.7-2.9 2.9-3.9 2.2-2 5.7-1.9 7.9-.2 2.5 2 3.3 5.3 1.9 8.3-1.2 2.6-4.3 4.3-7.2 3.9-3-.4-5.2-2.8-5.4-5.9-.1-.8-.1-1.5-.1-2.2-.1 0 0 0 0 0zm1.6-1.6c-1.6 2.6-.8 6.1 1.8 7.7 2.7 1.8 6.4 1 8.1-1.8 1.7-2.7.9-6.3-1.7-8-3-1.7-6.4-.8-8.2 2.1z"/><path fill="#FFF" d="M72.7 125.3c1.9-2.9 5.3-3.8 8.1-2 2.6 1.7 3.4 5.3 1.7 8s-5.3 3.5-8.1 1.8c-2.6-1.7-3.4-5.2-1.7-7.8zm.3.3c-1.5 2.7-.6 6 2 7.4 2.6 1.4 5.8.4 7.3-2.2 1.4-2.6.5-5.9-2-7.3-2.7-1.4-5.9-.5-7.3 2.1z"/><path fill="#E29153" d="M73 125.6c1.4-2.6 4.6-3.5 7.3-2.1 2.6 1.4 3.5 4.7 2 7.3-1.4 2.6-4.7 3.6-7.3 2.2-2.6-1.4-3.5-4.7-2-7.4zm.8.4c-1.2 2-.5 4.8 1.5 6 2.1 1.3 4.8.6 6.1-1.5 1.2-2.1.5-4.9-1.6-6.1-2-1.2-4.8-.4-6 1.6z"/><path fill="#FFF" d="M73.8 126c1.2-2 4-2.8 6-1.6 2.1 1.2 2.8 4 1.6 6.1-1.2 2.1-4 2.8-6.1 1.5-2-1.2-2.7-4-1.5-6zm7.2 4.2c1.1-2 .5-4.3-1.5-5.4-1.9-1.1-4.2-.4-5.3 1.5-1.1 1.9-.5 4.3 1.3 5.4 1.9 1.1 4.4.4 5.5-1.5z"/><path fill="#E29153" d="M81 130.2c-1.1 1.9-3.6 2.6-5.4 1.5-1.8-1.1-2.4-3.5-1.3-5.4 1.1-1.9 3.4-2.6 5.3-1.5s2.5 3.4 1.4 5.4zm-2.3-4.1c-1-.6-2.4-.2-3.1 1-.7 1.2-.4 2.7.7 3.3 1 .5 2.4 0 3.1-1.1.7-1.3.4-2.6-.7-3.2z"/><path fill="#FFF" d="M78.7 126.1c1 .6 1.3 2 .7 3.2-.6 1.1-2 1.6-3.1 1.1-1.1-.6-1.4-2.1-.7-3.3.7-1.2 2.1-1.6 3.1-1zM101.4 98l-2.1-.3c.2.9.4 1.8.7 2.7.4 1.8.8 3.5 1.3 5.3.3 1.2-.2 2.3-1.3 2.9-1 .5-2.3.3-3.1-.6-.3-.4-.5-.9-.6-1.3-.7-2.8-1.4-5.6-2-8.4 0 0 0-.1-.1-.2-.1.1-.3.2-.4.3-.6.6-1.1 1.3-1.2 2.2-.3 2.3-.5 4.7-.8 7-.3 2.3 1.5 4 3.4 4.2 3.5.4 7 .9 10.5 1.3h.4c0-.1 0-.2.1-.3.4-3.4.8-6.8 1.3-10.2.3-2.1-1.1-3.9-3.2-4.2-.3 0-.4-.2-.5-.5-.3-1.1-.6-2.2-1-3.3-.7-2.2-3.3-3.4-5.4-2.5-1.6.7-2.6 2.5-2.1 4.3.8 3.4 1.7 6.8 2.5 10.3.2.6.8 1 1.4.9.6-.2.9-.8.8-1.4-.7-3.2-1.5-6.3-2.3-9.4-.1-.3-.2-.6-.2-.9-.1-.9.5-1.6 1.4-1.6.8 0 1.4.3 1.7 1.1.3.7.5 1.7.8 2.6z"/><path fill="#E29153" d="M75 105.7c.3-.2.5-.3.8-.5.3.3.5.5.6.9.1.6.3 1.1.8 1.4.2-.3.4-.7.6-1 .5.1.9.2 1.2.6.2.4.7.8 1.2.9.1-.4.1-.7.2-1.1.4 0 .8 0 1.1.5.3.5.7.9 1.3 1 .1-.4.1-.7.2-1.1.5 0 .9.1 1.1.5.3.5.7.8 1.3.9.1-.4.1-.7.2-1.1.5 0 .9.1 1.1.5.3.5.7.8 1.3.9.1-.4.1-.7.2-1.1.5 0 .8 0 1.1.5.2.4.6.6.9.9 0 0 .1 0 .1-.1.1-1 .3-2 .4-3.1-.1 0-.3 0-.4-.1-3.7-.5-7.5-1-11.2-1.5-.7-.1-1.2-.4-1.6-1-.5-.7-.6-1.4-.1-2.2.5-.8 1.2-1.3 2.2-1.2l8.7 1.2c1 .1 1.9.3 3 .4.1-.8.2-1.5.3-2.2 0-.1-.1-.3-.2-.4-.3-.4-.6-.7-1.2-.8-.1.4-.1.7-.2 1.1-.4 0-.8 0-1.1-.5-.3-.5-.7-.9-1.3-1-.1.4-.1.7-.2 1.1-.4 0-.8 0-1.1-.5-.3-.5-.7-.9-1.3-1-.1.4-.1.7-.2 1.1-.4 0-.8 0-1.1-.5-.3-.5-.7-.9-1.3-1-.1.4-.1.8-.2 1.1-.5 0-.8-.1-1.1-.5-.3-.5-.7-.8-1.3-.9-.1.4-.1.8-.2 1.1-.5 0-.9 0-1.3-.3s-.9-.5-1.4-.4c.1.3.1.5.2.7.1.5-.2.9-.8.9-.4 0-.9.1-1.3.2-.1 0-.3.1-.5.2l.5.5c.4.4.3.8-.1 1.2l-.9.9c-.1.1-.2.4-.3.6.4 0 .8.1 1.2.1v1.1c-.1 1-.2 1.6.1 2.1z"/><path fill="#FFF" d="M108.8 103.6c-.1 1.1-.3 2.1-.4 3.2.7.1 1.4.2 2 .3 1 .1 1.3.5 1.1 1.5 0 .3-.1.6-.1 1-.1.7-.5 1-1.2.9-.7-.1-1.5-.2-2.3-.3-.1 1.1-.3 2.1-.4 3.2.1 0 .2.1.3.1.7.1 1.4.2 2 .3 2.3.3 4.4-1.3 4.7-3.6.1-.9.3-1.8.1-2.8-.4-1.7-1.4-2.8-3.1-3.2-.8-.5-1.7-.5-2.7-.6z"/><path fill="#FFF" d="M135 119.1c-1-.8-1.4-1.7-1.4-2.9 0-.7-.1-1.5-.3-2.2-.9-3.1-1.5-6.3-2.7-9.3-1.9-4.6-.3-9.1 0-13.6 0-.7.4-1.5.2-2-.2-.4-1-.6-1.5-.9.9-.8 1.9-1.6 3.1-2.6-.7-.3-1.3-.5-1.9-.8-.7 1.1-.7 3.3-2.3.9 0-.1-.2-.2-.3-.1-2.1.6-1.6-1.1-1.7-2-.2-1.8-.1-3.6-.1-5.5 0-4.5-1.6-8.4-4.8-11.5-1.2-1.1-2.7-2-4.1-2.8-1.6-.8-3.4-1.3-5-2.1-.5-.2-1-1.1-.9-1.6.1-.8.1-1.5 0-2.1l1.3-.9c.7-.4.5-1.4-.2-1.6L110 55c-.6-1-1.4-1.8-2.3-2.7-1.1-1-2.5-1.6-4.1-.9-1.2.5-2.5 2.3-3.2 4.2l-2.8 1.6c-.7.4-.6 1.4.1 1.6l2 .8c0 .2.1.4.2.6.9 1.9 2.2 3.7 3.5 5.4.8 1 .7 1.6-.1 2.4-1.9 1.9-3.4 4-3.1 6.9 0 .5-.2 1-.4 1.5-.8 2.9-1.7 5.9-2.4 8.8-.7 2.9-1.9 9.5-1.3 10 .8.7 4.2 0 4.2 0 .6-.1.4-1.2 1-1.9 1-1.3 4.2-6 4.8-7.3 1.9 2.5 2.2 5.1.8 7.9-.9 1.8-1.3 3.7-1.9 5.6-.2.6-.4 1.1-.8 2.3l-1.7 21.4c0 .5 0 .9-.2 1.3-.7 1.4-1.9 2.6-2.6 4-.4.8-.8 1.9-.6 2.8.3 1.2 1.6 1.2 2.6.9.9-.3 1.8-.9 2.7-1.4 1.2-.7 2.3-1.5 3.6-2.1 1.3-.6 1.9-1.3 1.8-2.9 0-1.5.4-3.1.7-4.6.1-.5.3-1 .3-1.5-.2-2.7-.5-5.3-.5-8 0-1.2 0-2.4.5-3.5 1.1-2.4 2.3-4.7 3.7-6.9 1.1-1.9 3.6-1.8 4.6.1 3.8 7.2 7.5 14.4 11.2 21.6.5.9.4 2.1.6 3.1.1.5-.1 1 0 1.5.2 1.3.9 2.2 2.3 2.2s2.3-.6 2.4-2c.1-.8-.1-1.7-.1-2.5 0-.7 0-1.5.3-2 1-1.6.9-2.9-.8-4.2z"/></svg>