<svg xmlns="http://www.w3.org/2000/svg" viewBox="0 0 200 200"><circle fill="#E29153" cx="98.9" cy="97.1" r="68.4"/><path fill="#FFF" d="M59.227 70.629l11.788 3.144-9.045 33.913-11.788-3.144zm88.505 33.923l-11.787 3.144-9.045-33.914 11.787-3.143zM71.8 76.2l-6.4 24.4 3.9 3.5c.2.2.5.3.8.2 2.5-.9 4.4-.5 5.6 1.5.2.4.6.5 1 .4 2.8-.8 4.7.4 6.1 3 .2.3.5.5.8.4 3.8-.4 5.6 1.8 6.3 5.5.1.3.3.6.7.7 2.4.5 3.9 2.1 4.3 5 0 .2.1.4.3.5 6.8 6.1 10.9 1.6 9.3-1.4 3.6 3.6 9.3-.5 6.1-5.4 5 4 10.9-.5 8.1-5.5 7.5 4.2 13.7-2.4 3.8-10.3-15-12.2-23-22.5-38.6-13.4-10.7 3.4-14.4-2.8-6.7-8.5l-5.4-.6z"/><path fill="#FFF" d="M74.9 109.1c-.3-3.6-2.8-4.8-5.9-2.8 0 0-.1 0-.1.1-2.2 3.5.6 7.5 4.3 5.4.2-.1.4.1.3.3-1.3 4.1 3.1 7.1 6.3 4.2.1-.1.4 0 .4.2.2 3.8 3 5.6 5.5 4.2.1-.1.3 0 .3.2.7 4.2 5.6 5.5 9 3.1.1-.1.1-.3 0-.4-.9-.4-1.4-1-1.7-1.7v-.1c-.4-3.3-2-4.9-5-4.4-.2 0-.3-.1-.3-.3.7-4.6-2.7-6.9-6-5.1-.2.1-.3 0-.3-.2-.3-4.1-3.6-5.1-6.5-2.6 0 .2-.3.1-.3-.1zm51.2-32.9l6.4 24.8-3.6 1.4c-8.4-8.4-20.5-20.5-32.2-22.8-.8-.2-1.6-.2-2.3-.1-3.7.5-8.1 2.2-12.7 4.5-4.6 1.5-10.6-.2-3.7-5.1 1.8-1 5.1-4.8 9.5-7.2 16.7-7 26 2.7 38.6 4.5z"/><circle fill="#E29153" cx="58.5" cy="101.7" r="2.7"/><circle fill="#E29153" cx="139.3" cy="101.7" r="2.7"/></svg>