<svg xmlns="http://www.w3.org/2000/svg" viewBox="0 0 200 200"><circle fill="#E29153" cx="98.9" cy="97.3" r="68.4"/><path fill="#FFF" d="M44.1 112.2h-1.9c-.2 0-.4-.2-.4-.4v-4.6c0-.1.1-.3.2-.3l.6-.4c.1-.1.2-.2.2-.3v-6.5c0-.2.1-.3.2-.4 3.9-1.8 7.7-2.9 11.3-3.1.1 0 .3-.1.3-.2l2.7-6.2c.1-.1.2-.2.4-.2h4.2c.2 0 .3-.1.4-.3.3-.9 1-1.7 1.9-2.3.3-.2.6 0 .6.3V89c0 .2.2.4.4.4h.8c.2 0 .4-.2.4-.4v-2.7c0-.2.2-.4.4-.4h11.1c.2 0 .4.2.4.4v19.8c0 .2-.2.4-.4.4H67.4c-.2 0-.4.2-.4.4v4.4c0 .2-.2.4-.4.4h-9.7c-.2 0-.4-.2-.4-.4-.3-10-11.7-11-12 .6 0 .2-.2.3-.4.3z"/><ellipse fill="#FFF" cx="50.5" cy="109.8" rx="4.7" ry="5.1"/><ellipse fill="#E29153" cx="50.5" cy="109.8" rx="2.4" ry="2.6"/><ellipse fill="#FFF" cx="88.6" cy="109.8" rx="4.7" ry="5.1"/><ellipse fill="#E29153" cx="88.6" cy="109.8" rx="2.4" ry="2.6"/><ellipse fill="#FFF" cx="98.8" cy="109.8" rx="4.7" ry="5.1"/><ellipse fill="#E29153" cx="98.8" cy="109.8" rx="2.4" ry="2.6"/><ellipse fill="#FFF" cx="133.5" cy="109.8" rx="4.7" ry="5.1"/><ellipse fill="#E29153" cx="133.5" cy="109.8" rx="2.4" ry="2.6"/><ellipse fill="#FFF" cx="143.5" cy="109.8" rx="4.7" ry="5.1"/><ellipse fill="#E29153" cx="143.5" cy="109.8" rx="2.4" ry="2.6"/><path fill="#E29153" d="M65 110.1h-6.3c-.3 0-.6-.2-.6-.6V108c0-.3.2-.6.6-.6H65c.3 0 .6.2.6.6v1.6c-.1.3-.3.5-.6.5zm-6.2-18.9h6.1c.1 0 .2.1.2.2v5.1c0 .1-.1.2-.2.2H57c-.2 0-.3-.2-.2-.3l1.8-5.1s.1-.1.2-.1z"/><path fill="#FFF" d="M81.9 113.9H69.3c-.3 0-.5-.2-.5-.5v-4.5c0-.3.2-.5.5-.5h12.6c.3 0 .5.2.5.5v4.5c-.1.3-.3.5-.5.5zm8.6-28.8h-6.6c-.3 0-.5-.2-.5-.5v-4.5c0-.3.2-.5.5-.5h6.6c.3 0 .5.2.5.5v4.5c0 .2-.3.5-.5.5zm0 7.5h-6.6c-.3 0-.5-.2-.5-.5v-4.5c0-.3.2-.5.5-.5h6.6c.3 0 .5.2.5.5V92c0 .3-.3.6-.5.6zm0 7.5h-6.6c-.3 0-.5-.2-.5-.5v-4.5c0-.3.2-.5.5-.5h6.6c.3 0 .5.2.5.5v4.5c0 .3-.3.5-.5.5zm57.7-15h-6.6c-.3 0-.5-.2-.5-.5v-4.5c0-.3.2-.5.5-.5h6.6c.3 0 .5.2.5.5v4.5c0 .2-.2.5-.5.5zm0 7.5h-6.6c-.3 0-.5-.2-.5-.5v-4.5c0-.3.2-.5.5-.5h6.6c.3 0 .5.2.5.5V92c0 .3-.2.6-.5.6zm0 7.5h-6.6c-.3 0-.5-.2-.5-.5v-4.5c0-.3.2-.5.5-.5h6.6c.3 0 .5.2.5.5v4.5c0 .3-.2.5-.5.5zm-12.9-15H96.6c-.3 0-.5-.2-.5-.5v-4.5c0-.3.2-.5.5-.5h38.7c.3 0 .5.2.5.5v4.5c.1.2-.2.5-.5.5zm0 7.5H96.6c-.3 0-.5-.2-.5-.5v-4.5c0-.3.2-.5.5-.5h38.7c.3 0 .5.2.5.5V92c.1.3-.2.6-.5.6zm0 7.5H96.6c-.3 0-.5-.2-.5-.5v-4.5c0-.3.2-.5.5-.5h38.7c.3 0 .5.2.5.5v4.5c.1.3-.2.5-.5.5z"/><path fill="#FFF" d="M94.7 100.6V80.1c0-.3-.2-.5-.5-.5h-1.3c-.3 0-.5.2-.5.5v20.5c0 .3-.2.5-.5.5H84c-.3 0-.5.2-.5.5v1.3c0 .3.2.5.5.5h20.5c.3 0 .5-.2.5-.5v-1.3c0-.3-.2-.5-.5-.5h-9.2c-.3 0-.6-.2-.6-.5zm56.9-18.3h-.5c-.3 0-.6.3-.5.6l1.7 17.6c0 .3-.2.6-.5.6h-11.5c-.3 0-.5-.2-.5-.5V80.1c0-.3-.2-.5-.5-.5H138c-.3 0-.5.2-.5.5v20.5c0 .3-.2.5-.5.5h-7.9c-.3 0-.5.2-.5.5v1.3c0 .3.2.5.5.5h26.6c.3 0 .5-.2.5-.5V101l-3.9-18.3c-.3-.2-.5-.4-.7-.4z"/></svg>