<svg xmlns="http://www.w3.org/2000/svg" viewBox="0 0 200 200"><circle fill="#E29153" cx="99.7" cy="97.2" r="68.4"/><path fill="#FFF" d="M54.9 80.3v-11h48.3L117.5 53l27 31.5-4.2 3.5-22.8-26.2L94.6 88l-4-3 2.7-4.5z"/><path fill="#FFF" d="M58 82.5h31.6l-2.3 2.7 7.3 6.3 22.8-26.9L137.2 88v26.8h2.6v3.9H55.6v-3.8h2.6v-9.4z"/><path fill="#E29153" d="M82.3 95H92v20.5h-9.7zM65 94.1h4.8V99H65zm5.5 0h4.8V99h-4.8zm0 5.6h4.8v4.9h-4.8zm-5.5 0h4.8v4.9H65zm55.2-18.9h4.5v4.5h-4.5zm5 0h4.5v4.5h-4.5zm0 5.1h4.5v4.5h-4.5zm-5 0h4.5v4.5h-4.5zm-14.8-5.1h4.5v4.5h-4.5zm5 0h4.5v4.5h-4.5zm0 5.1h4.5v4.5h-4.5zm-5 0h4.5v4.5h-4.5zm14.8 9.1h4.5v4.5h-4.5zm5 0h4.5v4.5h-4.5zm0 5.2h4.5v4.5h-4.5zm-5 0h4.5v4.5h-4.5zM105.1 95h4.5v4.5h-4.5zm5 0h4.5v4.5h-4.5zm0 5.2h4.5v4.5h-4.5zm-5 0h4.5v4.5h-4.5zm-46.9 5.1h20.3v9.6H58.2z"/><path fill="#FFF" d="M59.3 106.1h1.6v8.1h-1.6zm2.3 0h1.6v8.1h-1.6zm2.4 0h1.6v8.1H64zm2.3 0h1.6v8.1h-1.6zm2.4 0h1.6v8.1h-1.6zm2.4 0h1.6v8.1h-1.6zm2.3 0H75v8.1h-1.6zm2.4 0h1.6v8.1h-1.6zm41.3 17.8c-3.8 0-6.9 4-7.4 9.2H75.9c-.6 0-1.1.5-1.1 1.1v1.9c0 .6.5 1.1 1.1 1.1h1.2v1.4c0 .3.3.6.6.6h2.4v.9h-2.4c-.3 0-.6.3-.6.6v1.1c0 .3.3.6.6.6h9.5c.3 0 .6-.3.6-.6v-1.1c0-.3-.3-.6-.6-.6h-2.4V139h2.5c.3 0 .6-.3.6-.6V137h21.8c.8 4.7 3.8 8.1 7.3 8.1 4.1 0 7.5-4.8 7.5-10.6.1-5.9-3.3-10.6-7.4-10.6zm0 16.8c-2.4 0-4.4-2.8-4.4-6.2 0-3.4 2-6.2 4.4-6.2 2.4 0 4.4 2.8 4.4 6.2 0 3.4-2 6.2-4.4 6.2z"/><ellipse fill="#E29153" cx="117.1" cy="134.5" rx="4.4" ry="6.2"/></svg>