<svg xmlns="http://www.w3.org/2000/svg" viewBox="0 0 200 200"><circle fill="#E29153" cx="99.3" cy="97.1" r="68.4"/><g fill="#FFF"><path d="M86.9 81.7c-.4.1-.9.1-1.9.3.8-1.1 1.3-1.8 2.2-3-1.1.3-1.8.5-2.7.7.6-1.7.6-3.6 2.7-4.5 1.9-.8 1.6-2.2.7-3.5-.6-.5-1.6-.9-1.6-1.5s.6-1.6 1.2-1.8c1.8-.6.5-2 1.1-2.9H87c.6-1.3 1.2-2.5 1.8-3.7-.6-.2-1.1-.3-1.6-.4-.1-.1-.3-.2-.4-.3 2.6-.5 1.9-2.5 2.3-4.1.7 1.4-.7 4.2 2.9 3.8-.8.7-1.1 1-1.3 1.2.6.8 1.3 1.5 1.9 2.3-.2.1-.4.3-.5.3l1.2 2.1c-.3.2-.7.4-1.1.6.9.7 1.8 1.5 2.7 2.3-.1.2-.1.3-.2.5-.8-.2-1.7-.4-2.5-.7-.1.1-.2.3-.3.4.5.5.9 1.2 1.5 1.4.6.2 1.4-.2 2.5-.4-.6 1-.9 1.4-1.2 2-.4-.1-.8-.3-1.3-.5-.3.6-.7 1.2-1 1.8.7 0 1.3 0 2-.1 1.6-.3 2.6.2 2.4 1.5-.1.6-.9 1.2-1.6 2 .4.4.9 1.1 1.6 1.5.6.4 1.5.5 2.2.8v.6c-.9.3-1.7.6-2.6 1-.2.1-.5.6-.4.8.1.4.3.8.7 1 1.4 1.1 2.9 2.1 4.7 3.3-1.8.8-3.2 1.5-4.6 2.1-.3-.4-.7-.8-1.1-1.2-.1.1-.2.3-.4.4.3 1.3 1.6 1.6 2.7 2 .7.3 1.5.6 2.1 1.1.3.3.4.9.5 1.3-.4.1-.8.2-1.3.3-.4.1-.7.3-1.2.5 1.6 1.8 2.2 4.2 4.8 4.9.4.1.6 1.1.9 1.6l-.3.3c-1.7-.6-3.4-1.3-5-1.9-.1.1-.1.2-.2.3 1.3 1 2.5 2 3.9 3.1-1.8 1.3-2.9.2-4.1-.6 1.8 2.2 4.3 3.8 4.9 6.8-.1.1-.3.2-.4.3-.4-.3-.8-.6-1.1-.9-.1.1-.2.1-.2.2.3.4.5.7.8 1.1.4.6.8 1.3.9 2 .1.5-.3 1.1-.4 1.7-.6-.3-1.2-.5-1.7-.9-.4-.3-.6-.9-1.1-1.2.6 1.3 1.3 2.6 1.7 4 .2.6 0 1.5-.3 2-.7.9-.6 1.5.3 2.1 1.9 1.2 2.7 3.1 3.3 5.3-1-.2-1.9-.4-2.9-.7-.3.3-.5.9-.9 1.1-.5.3-1.2.4-1.7.3-.2 0-.5-.8-.4-1.2.2-1.4-.1-2.2-1.7-2.4-1-.2-2-.9-3.4-1.6.1 1.3.1 2.3.2 3.3.4 2.9.2 3.1-2.7 3.1-1.2 0-1.5-.5-1.4-1.6.1-.9.1-1.8.1-2.7 0-.3-.3-.8-.4-.8-.3 0-.7.2-1 .4-1.8 2.1-4.5 2.7-6.7 3.9-.7.4-2-.2-3.2-.3-.1-2.6 3.5-2.7 4-5.6-1.6 1.3-2.8 2.3-4.3 3.5-.1-2.5 1.3-4 2.5-5.6.9-1.1 2-2.1 2.8-3.3.5-.8.5-1.8.8-3-1.6.7-3.1 1.4-4.7 2.1-.3-1.5 1.1-3.4-1.5-3.6.3-2.4.9-4.2 3-5.6 1.1-.7 2-1.8 2.9-2.9.4-.4.5-1 .7-1.5-.1-.1-.3-.2-.4-.3-.5.4-.9.9-1.5 1.4-.4-3.3 2.9-4.9 3.6-7.5-.2-.1-.3-.1-.5-.2-.8.5-1.5 1-2.4 1.6.5-2.2 1.1-4 3.2-5.4-1 .2-2.1.4-3.1.5-.1-.1-.1-.2-.2-.3.9-.6 1.8-1.3 2.7-1.9-.1-.2-.2-.3-.3-.5l-2.8 1.4c.8-1.7.5-3.4 2.6-3.8.6-.1 1-.9 1.5-1.3-.2-.2-.3-.3-.4-.5zm-39.3 36.5c.5.5 1 1 1.6 1.4.3.2.8.2 1.2.3.1-.4.2-.8.2-1.2 0-.8.1-1.7-.1-2.4-.4-1.2-2-2.7-1.8-3.8.2-1.4 1.6.9 2.5 1.4-.1-.8-.7-1.6-.3-2.2.3-.4 1.1-.2 1.7-.3-.1.1-.3.2-.4.3-.7-.6-2.1-.9-2.1-1.8 0-.3.5-.4.8-.5.4-.6.9-1.3 1.4-2.1-.7-.3-1.5-.1-1.7-.8-.2-.6.6-1 .9-1.4.6-.9 1.8-1.6.9-3-.1-.1-.1-.6 0-.6 1.6-1.1.8-2.7.8-4.1 0-1-.1-2 1.4-1.2.3.2.8-.2 1.3-.3-.1-.4-.2-.9-.4-1.2-.2-.4-.5-.8-.8-1.2 1.7-1.2 1.8-2.7 1.1-4.6-.4-1-.4-2.2-.5-3.2 0-.3.3-.5.5-.4.7.2 1.3.5 2 .7-.3-.9-1.7-2.1-1-2.8.3-.3.9.2 1.6.4.1-.7.6-1.5.3-2-.6-1.3-.3-2.2.4-3.5 1-1.7 1.2-3.9 2-5.8.5-1.2 1.1-2.4 1.8-3.6.2-.3.6-.3.7 0 1 2.1 2.2 4.2 2.5 6.6.1 1.1 1.8 2.2-.5 3.5.9 0 1.4-.5 1.7-.1.5.7-.6 1.6-.9 2.4.3.1.9-.1 1.2.3.5.9-.6 1.9-1 3.3.8-.5 1.3-2 2.1-1.3 1.6 1.2-1 3.6-1.6 5.4.5-.2 1-.8 1.4-.4.7.7-.7 1.8-1 2.6.1.1.2.1.3.2l1.2-2.1c.1 0 .2.1.4.1-.4 1.2-.7 2.4-1.1 3.6-.4 1-.9 1.9-1.3 2.8-.1.2 0 .5.3.6.9.2 1.6.4 2.4.6.3.1.4.4.2.6-.6.9-1.1 1.7.3 2.4.2.1.3.4.2.6-.4.7-.8 1.3-1.2 2 .4.3.8.6 1.3 1 .3-.3.7-.6 1.2-1.1.5 1 .1 1.7-.7 2.3-.6.5-1 1.3-1.5 1.9l.3.3c.4-.4.9-.8 1.3-1.2.1.1.2.1.2.2l-.9 1.8c-.5 1.3-1.3 2.4-.9 4 .2.7-.4 1.7-.7 2.5-.6 1.3-1.4 2.5-1.8 3.8-.2.8.2 1.8.4 2.9-.4.8-.8 2-1.5 3.1-.2.4-.7.7-1.2.7-2.5 0-5-.1-7.5-.2-.9 0-1.9-.1-2.8-.3-1.3-.2-2.8-.5-3.8-1.3-1.5-1.1-2.6-2.8-3.8-4.2.5 0 .6-.2.8-.4z"/><path d="M78.8 109.5c.1 3.7.1 3.7 3.6 2.9-1.1 1.5-2 2.7-2.9 3.9-1.4 1.8-2.6 3.7-1.8 6.2.1.3-.3 1.1-.5 1.1-.7 0-1.4-.2-2.1-.5-.9.3-1.8 1.3-2.6-.2-1.7.7-3.3 1.4-5 2.1-.3.1-.6-.1-.6-.4.1-3.5 3.5-4.7 5.6-6.8l-.3-.3c-.4.2-.7.5-1.2.8-.4-.3-.8-.7-1.3-1-.4.7-.9 1.3-1.5 2.1-.8-2.2 1-5 2.8-5.5 1.3-.3 2.5-1.2 3.7-1.9l-.3-.6-3.9 1.2c-.1-.2-.2-.3-.3-.5.6-.4 1.2-.9 1.9-1.3s1.5-.8 2-1.5c-1.2.4-2.4.8-3.6 1.1-.5-3.2 2.6-2.9 3.9-4.4-.7.2-1.3.4-2.1.7-.8-3 3-2.8 3.5-5.2h-3.2c-.7-2.2 2.5-1.4 2.7-3.1-1 .3-1.9.6-2.9.9-.2-2.2.7-3.5 3.2-3.6-.1-.1-.2-.3-.3-.4-.7-.1-1.3-.2-2.3-.4.8-1 1.6-2 2.5-3.1-.1-.1-.4-.3-1-.7.5-.3.9-.5 1.2-.7 0-.1-.1-.2-.1-.2-.4 0-.8.1-1.6.1.4-1.1.7-2.1 1.3-2.9.5-.8 1.3-1.2.4-2.3-.3-.4.3-1.4.4-2.1.1-1.9 0-3.8.1-5.6 0-.7.2-1.4.3-2.1h.5c0 1.5-.1 3.1 0 4.6 0 .6.2 1.2.4 1.8.3 1.2.5 2.4.8 3.5.2.8.4 1.8.9 2.4 1 1.2.6 2.2-.3 3.3 1 1.2 1.9 2.3 3 3.6h-2.6c1.1 1.2 2 2.3 3.1 3.6-.7.3-1.2.5-1.9.7.7.6 1.3 1.1 1.9 1.5v.6c-.6.1-1.2.1-1.9.2 0 .2-.1.7-.3 1.3-.5-.2-1-.5-1.2-.5-.4 1.6-.9 3.5-1.3 5.4-.3 1.1-.6 2.4 1.2 2.2z"/></g><path fill="#E29153" d="M88.7 115.5c6.7-6.4 17.4-3.6 19.6 5.2 1.1 4.5-.2 8.5-3.7 11.5-3.7 3.1-7.9 3.7-12.3 1.7-4.2-1.9-6.5-5.3-6.8-10-.1-2.6.7-4.9 2-7.1.5-.4.8-.9 1.2-1.3zm2.5-.2c-.4.3-.9.6-1.3.9-2.4 2.1-3.4 4.8-3.3 7.8.2 4.8 3.6 8.5 8.3 9.7 4.5 1.1 9.5-.9 11.8-5 2.1-3.7 2-7.4-.4-10.9-2.5-3.7-6.2-5.1-10.6-4.5-1.7.2-3.4.5-4.5 2z"/><path fill="#FFF" d="M106 111.4l.3-.3c2.7-.8 5.5-1.6 8.2-2.3.7-.2 1.4.1 2.1.1.8 0 1.7-.1 2.5-.2 1.2-.2 2.3-.4 3.5-.6.3-.1.7 0 1 0v.3c-1.1.2-2.1.4-3.2.6-1.7.3-3.3.8-5 1-3.1.4-6.3.6-9.4 1.7.1 0 0-.2 0-.3zm6.8-1.7c0 .1.1.3.1.4 1-.2 2-.4 3.1-.6 0-.2-.1-.3-.1-.5-1.1.3-2.1.5-3.1.7zm6.7 1.5c1.1-1.5 3-1.2 4.5-1.6-1.4.5-2.9 1-4.5 1.6z"/><g stroke="#E29153" stroke-width=".5" stroke-miterlimit="10"><path fill="none" d="M115.5 110.1c1.7-.2 3.3-.7 5-1 1.1-.2 2.1-.4 3.2-.6v-.3h-1c-1.2.2-2.3.5-3.5.6-.8.1-1.7.2-2.5.2-.7 0-1.5-.3-2.1-.1-2.8.7-5.5 1.5-8.2 2.3-.1 0-.2.2-.3.3 0 .1.1.3.1.4 2.9-1.2 6.1-1.4 9.3-1.8zm3.2 1.7c-1.3.5-2.7 1.1-4 1.6 0 .1.1.2.1.2 1.3-.5 2.7-1.1 4-1.6-.1-.1-.1-.2-.1-.2zm-30 3.7c-.4.4-.7.8-1.1 1.3-1.4 2.2-2.2 4.5-2 7.1.2 4.7 2.5 8.1 6.8 10 4.3 2 8.6 1.4 12.3-1.7 3.6-3 4.9-7 3.7-11.5-2.3-8.7-13-11.5-19.7-5.2zm26.6 1.1c0 .1.1.2.1.2 1.4-.7 2.8-1.4 4.1-2.2 0-.1-.1-.2-.1-.3-1.3.8-2.7 1.5-4.1 2.3zm4.2-5.4c1.5-.5 3-1.1 4.5-1.6-1.5.4-3.3.1-4.5 1.6z"/><path fill="#FFF" d="M128.8 109.7c-.9-1.7-2.6-2.3-4.5-2.1-9 .9-18 1.8-27 2.8-3.8.4-7.5 1.4-10.2 4.5-.8.9-1.3 1.8-1.4 3.1 0 .5-.2 1.1-.5 1.4-.8 1-1.1 2.1-1 3.4.1.6.1 1.2.2 1.8.1 3.1 2.1 5.4 3.3 7.9.2.4.6.6 1 .8 1.7 1 3.3 2 5 2.9.6.3 1.3.3 2 .3.4 0 .8-.4 1.2-.3 2.1.5 3.9-.2 5.7-1.2 1.1-.6 2.3-1 3.4-1.6 1.2-.8 2.2-1.7 3.4-2.6 5.6-4.3 11.1-8.7 16.6-13.1 1-.8 1.9-1.7 2.6-2.7 1.2-1.6 1.2-3.6.2-5.3zm-22.5 1.4c2.7-.8 5.5-1.6 8.2-2.3.7-.2 1.4.1 2.1.1.8 0 1.7-.1 2.5-.2 1.2-.2 2.3-.4 3.5-.6.3-.1.7 0 1 0v.3c-1.1.2-2.1.4-3.2.6-1.7.3-3.3.8-5 1-3.1.4-6.3.6-9.4 1.7 0-.1-.1-.3-.1-.4.2 0 .3-.1.4-.2zm-1.7 21.1c-3.7 3.1-7.9 3.7-12.3 1.7-4.2-1.9-6.5-5.3-6.8-10-.1-2.6.7-4.9 2-7.1.4-.4.7-.8 1.1-1.3 6.7-6.4 17.4-3.6 19.6 5.2 1.2 4.5-.1 8.5-3.6 11.5zm10-18.8c1.3-.5 2.7-1.1 4-1.6 0 .1.1.2.1.2-1.3.5-2.7 1.1-4 1.6 0-.1 0-.1-.1-.2zm.8 3.4c0-.1-.1-.2-.1-.2 1.4-.7 2.7-1.4 4.1-2.2 0 .1.1.2.1.3-1.3.7-2.7 1.4-4.1 2.1zm4.1-5.6c1.1-1.5 3-1.2 4.5-1.6-1.4.5-2.9 1-4.5 1.6z"/></g><path fill="#FFF" d="M115.3 116.6c1.4-.7 2.7-1.4 4.1-2.2 0 .1.1.2.1.3-1.4.7-2.8 1.4-4.1 2.2 0-.2 0-.3-.1-.3zm-.7-3.2c1.3-.5 2.7-1.1 4-1.6 0 .1.1.2.1.2-1.3.5-2.7 1.1-4 1.6 0-.1 0-.1-.1-.2z"/><path fill="#E29153" d="M89.9 116.1c.4-.3.9-.6 1.3-.9.5-.3 1-.5 1.5-.8 6.7-3.4 15 1.6 15 9 0 4-2.5 7.7-6.4 9.3-4 1.6-8.7.6-11.7-2.5-2.9-3-3.6-7.3-1.7-11.1.6-1 1.3-2 2-3zm2.2-.2l-.6.3c-1.6.7-2.5 2.1-3.1 3.6-1.4 3.3-.9 6.5 1.5 9.2 2.5 2.9 5.7 3.9 9.4 3 4.9-1.1 7.9-5.8 6.9-10.6-.9-4.6-5.7-7.9-10.5-7.2-1.3.3-2.7.4-3.6 1.7z"/><path fill="#FFF" d="M89.9 116.1c-.6 1-1.4 2-1.9 3.1-1.8 3.8-1.1 8.1 1.7 11.1 3 3.1 7.7 4.1 11.7 2.5 3.9-1.6 6.4-5.3 6.4-9.3 0-7.4-8.3-12.4-15-9-.5.3-1 .5-1.5.8 1.1-1.4 2.8-1.8 4.4-2 4.4-.6 8.1.9 10.6 4.5 2.4 3.5 2.5 7.2.4 10.9-2.3 4-7.2 6.1-11.8 5-4.7-1.1-8-4.9-8.3-9.7-.2-3.1.9-5.8 3.3-7.9z"/><path d="M112.8 109.7c1-.2 2-.5 3.1-.7 0 .2.1.3.1.5-1 .2-2 .4-3.1.6 0-.1-.1-.2-.1-.4z"/><path fill="#E29153" d="M91.5 116.2l.6-.3c1.9-1.1 3.9-1.5 6.1-1.3 4.8.6 8.1 4.6 7.8 9.4-.3 4.5-4.4 8-9.3 7.9-4.7-.1-8.6-3.9-8.7-8.4 0-3 1.3-5.4 3.5-7.3zm1.6.9c-.8.7-1.8 1.3-2.4 2.1-1.9 2.6-1.7 6.2.3 8.7 2 2.6 5.6 3.6 8.8 2.4 3.1-1.2 5.1-4.2 4.9-7.5-.2-3.1-2.5-6.1-5.6-6.8-2.2-.4-4.3-.4-6 1.1z"/><path fill="#FFF" d="M91.5 116.2c-2.3 1.9-3.5 4.3-3.5 7.3.1 4.5 4 8.3 8.7 8.4 4.9.1 8.9-3.4 9.3-7.9.3-4.8-3-8.8-7.8-9.4-2.2-.3-4.2.2-6.1 1.3.9-1.3 2.3-1.4 3.6-1.6 4.8-.8 9.6 2.5 10.5 7.2.9 4.8-2 9.4-6.9 10.6-3.7.9-6.9-.1-9.4-3-2.4-2.7-2.9-5.9-1.5-9.2.6-1.5 1.5-3 3.1-3.7z"/><path fill="#FFF" d="M93 117.1c1.8-1.5 3.9-1.5 6-1 3.1.7 5.5 3.7 5.6 6.8.2 3.3-1.8 6.3-4.9 7.5-3.2 1.2-6.7.2-8.8-2.4-2-2.6-2.2-6.1-.3-8.7.7-.9 1.7-1.5 2.4-2.2-.2.2-.4.5-.7.8-1.9 1.5-2.7 3.5-2.6 5.8.1 3.2 2.4 5.8 5.4 6.6 3.2.8 6.5-.5 8.1-3.3 1.6-2.6 1.3-6-.8-8.3-2.1-2.4-5.6-3.1-8.5-1.9-.2.1-.5.2-.9.3z"/><path fill="#E29153" d="M93 117.1c.3-.1.7-.2 1-.3 2.9-1.3 6.4-.5 8.5 1.9 2 2.3 2.3 5.7.8 8.3-1.7 2.8-5 4.1-8.1 3.3-3-.8-5.3-3.5-5.4-6.6-.1-2.3.7-4.3 2.6-5.8.2-.2.4-.5.6-.8.1 0 0 0 0 0zm2.3 1.1c-.7.4-1.5.6-2.2 1.1-2 1.6-2.7 4.3-1.7 6.7 1.1 2.5 3.7 3.9 6.5 3.5 2.4-.3 4.1-1.7 4.9-4 .7-2.3.2-4.3-1.5-5.9-1.7-1.7-3.7-2.3-6-1.4z"/><path fill="#FFF" d="M95.3 118.2c2.3-1 4.3-.3 6 1.3 1.8 1.6 2.3 3.7 1.5 5.9-.8 2.3-2.5 3.7-4.9 4-2.8.4-5.4-1.1-6.5-3.5-1-2.3-.4-5 1.7-6.7.7-.4 1.5-.6 2.2-1-.5.3-1 .6-1.5 1-2.1 1.5-2.9 4.1-2 6.4.9 2.3 3.4 3.8 5.8 3.5 2.8-.3 4.9-2.3 5.2-4.9.3-2.3-1.1-4.9-3.5-5.7-1.2-.3-2.7-.1-4-.3z"/><path fill="#E29153" d="M95.3 118.2c1.3.1 2.8 0 4 .4 2.4.8 3.8 3.3 3.5 5.7-.4 2.6-2.5 4.6-5.2 4.9-2.4.3-4.9-1.3-5.8-3.5-.9-2.3-.1-4.9 2-6.4.5-.4 1-.8 1.5-1.1zm1.8.5c-2.5-.1-4.7 2-4.8 4.5-.1 2.7 2 5 4.7 5.1 2.7.1 5-2 5-4.6.1-2.8-2-4.9-4.9-5z"/><path fill="#FFF" d="M97.1 118.7c2.9.1 5 2.2 4.9 5-.1 2.6-2.4 4.7-5 4.6-2.7-.1-4.8-2.4-4.7-5.1.1-2.5 2.3-4.6 4.8-4.5zm0 .4c-2.6.1-4.6 2.1-4.5 4.6.1 2.5 2.2 4.4 4.6 4.3 2.5-.1 4.5-2.1 4.4-4.6 0-2.5-2-4.4-4.5-4.3z"/><path fill="#E29153" d="M97.1 119.1c2.5-.1 4.5 1.9 4.6 4.4.1 2.4-1.9 4.5-4.4 4.6-2.5.1-4.6-1.9-4.6-4.3-.2-2.6 1.8-4.7 4.4-4.7zm0 .8c-2 0-3.7 1.6-3.7 3.6s1.6 3.7 3.7 3.7c2 0 3.7-1.7 3.7-3.7s-1.7-3.6-3.7-3.6z"/><path fill="#FFF" d="M97.1 119.9c2 0 3.7 1.7 3.7 3.6 0 2-1.7 3.7-3.7 3.7s-3.7-1.7-3.7-3.7c.1-2 1.8-3.7 3.7-3.6zm0 6.9c1.9 0 3.3-1.5 3.3-3.3 0-1.8-1.5-3.2-3.3-3.2-1.8 0-3.3 1.4-3.3 3.2-.1 1.8 1.4 3.3 3.3 3.3z"/><path fill="#E29153" d="M97.1 126.8c-1.9 0-3.4-1.5-3.4-3.3 0-1.8 1.5-3.2 3.3-3.2 1.9 0 3.3 1.4 3.3 3.2.2 1.8-1.3 3.3-3.2 3.3zm2-3.4c0-1-.9-1.8-2-1.8s-2.1.9-2.1 1.9c0 1 1 1.8 2.1 1.7 1.2 0 2.1-.8 2-1.8z"/><path fill="#FFF" d="M99.1 123.4c0 1-.9 1.8-2 1.8s-2-.8-2.1-1.7c0-1 .9-1.9 2.1-1.9 1.1 0 2 .8 2 1.8z"/><path fill="#E29153" d="M105.3 90.6c8.8-2.8 17.2 4.3 15.4 13.2-.9 4.6-3.8 7.6-8.3 8.7-4.6 1.2-8.7-.1-11.8-3.8-3-3.5-3.6-7.6-1.8-12 1-2.4 2.7-4.1 4.9-5.5.6-.1 1.1-.4 1.6-.6zm2.4.9c-.5.1-1 .1-1.6.2-3.1.8-5.2 2.8-6.4 5.6-1.8 4.4-.5 9.2 3.3 12.3 3.6 2.9 8.9 3.2 12.8.6 3.5-2.4 5-5.8 4.4-10-.7-4.4-3.4-7.3-7.6-8.7-1.6-.4-3.3-.9-4.9 0z"/><g stroke="#E29153" stroke-width=".5" stroke-miterlimit="10"><path fill="none" d="M128.9 103.1v.3c1.6-.1 3.1-.1 4.7-.2v-.3c-1.6.1-3.2.1-4.7.2zm.7-2.9c1.4.1 2.9.2 4.3.3v-.3c-1.4-.1-2.9-.2-4.3-.3v.3zm-24.3-9.6c-.5.2-1 .4-1.5.7-.4.1-.8.3-1.2.4.4-.2.8-.3 1.2-.4-2.2 1.4-3.9 3.1-4.9 5.5-1.8 4.3-1.2 8.4 1.8 12 3.1 3.6 7.1 5 11.8 3.8 4.5-1.2 7.4-4.2 8.3-8.7 1.7-9-6.7-16.1-15.5-13.3zm29.7 9.5c1.6.2 3.2.3 4.8.5-1.6-.3-3.1-1.3-4.8-.5zm.7-2.4l-2.4-.9c-.6-.3-1.2-.9-1.8-1-2.8-.6-5.6-1-8.4-1.5-.1 0-.3.1-.4.1 0 .1 0 .3-.1.4 3.2.3 6.2 1.6 9.2 2.5 1.6.5 3.3.8 5 1.2 1.1.3 2.1.6 3.2.9 0-.1.1-.2.1-.3-.3-.1-.6-.3-.9-.4-1.2-.3-2.4-.6-3.5-1z"/><path fill="#FFF" d="M140.8 98.9c-8.5-3.1-17-6.2-25.6-9.2-3.6-1.3-7.3-2-11.1-.3-1.1.5-2 1.1-2.6 2.1-.3.4-.6.9-1 1.1-1.1.6-1.9 1.4-2.3 2.6-.2.6-.4 1.1-.6 1.7-1.3 2.8-.5 5.7-.5 8.6 0 .4.3.8.6 1.2 1.1 1.6 2.1 3.2 3.3 4.8.4.5 1.1.9 1.7 1.2.3.2.9 0 1.2.2 1.7 1.4 3.6 1.5 5.7 1.4 1.2-.1 2.5.1 3.7 0 1.4-.2 2.8-.6 4.2-.9 6.9-1.5 13.8-3 20.7-4.6 1.2-.3 2.5-.7 3.6-1.3 1.8-1 2.6-2.8 2.5-4.8-.4-2-1.7-3.2-3.5-3.8zm-20.1 4.9c-.9 4.6-3.8 7.6-8.3 8.7-4.6 1.2-8.7-.1-11.8-3.8-3-3.5-3.6-7.6-1.8-12 1-2.4 4.5-5.4 4.9-5.5.5-.2 1-.4 1.5-.7 8.9-2.7 17.3 4.4 15.5 13.3zm8.1-.5v-.3c1.5-.1 3.1-.1 4.6-.2v.3c-1.4.1-3 .2-4.6.2zm5.1-2.8c-1.4-.1-2.9-.2-4.3-.3v-.3c1.4.1 2.9.2 4.3.3v.3zm1.1-.4c1.7-.8 3.2.2 4.8.5-1.6-.2-3.2-.4-4.8-.5zm4.9-.7c-1.1-.3-2.1-.6-3.2-.9-1.7-.4-3.4-.7-5-1.2-3-1-5.9-2.2-9.2-2.5 0-.1 0-.3.1-.4.1 0 .3-.1.4-.1 2.8.5 5.6.9 8.4 1.5.7.1 1.2.7 1.8 1 .8.4 1.6.7 2.4.9 1.1.4 2.3.6 3.5 1 .3.1.6.3.9.4 0 .1-.1.2-.1.3z"/></g><path fill="#E29153" d="M128.9 103.1c1.5-.1 3.1-.1 4.6-.2v.3c-1.6.1-3.1.1-4.7.2 0-.1.1-.2.1-.3zm-22.8-11.4c.5-.1 1-.1 1.6-.2.6 0 1.1 0 1.7-.1 7.5-.1 12.9 7.9 9.7 14.6-1.7 3.6-5.6 5.9-9.8 5.6-4.3-.3-8.1-3.2-9.4-7.3-1.3-4-.1-8.1 3.3-10.7.8-.7 1.9-1.3 2.9-1.9zm2.1.8h-.6c-1.8-.1-3.2.8-4.4 1.9-2.7 2.4-3.6 5.5-2.6 8.9 1 3.7 3.5 6 7.2 6.8 4.9 1.1 9.6-1.8 10.8-6.5 1.2-4.6-1.7-9.6-6.4-11-1.3-.4-2.7-.9-4-.1z"/><path fill="#FFF" d="M106.1 91.7c-1 .6-2.1 1.2-3.1 1.9-3.3 2.7-4.5 6.8-3.3 10.7 1.3 4.1 5.1 7 9.4 7.3 4.2.3 8.1-2 9.8-5.6 3.2-6.7-2.1-14.7-9.7-14.6-.6 0-1.1 0-1.7.1 1.6-.8 3.3-.4 4.9.1 4.2 1.4 6.9 4.3 7.6 8.7.7 4.2-.9 7.6-4.4 10-3.8 2.6-9.1 2.3-12.8-.6-3.8-3-5.1-7.9-3.3-12.3 1.4-2.9 3.6-4.9 6.6-5.7z"/><path fill="#E29153" d="M107.6 92.5h.6c2.2-.2 4.2.3 6.1 1.5 4.1 2.6 5.3 7.7 2.9 11.8-2.3 3.9-7.4 5.3-11.8 3.1-4.2-2.1-6-7.2-4.2-11.3 1.3-2.8 3.5-4.4 6.4-5.1zm1 1.4c-1 .3-2.1.4-3 .9-2.9 1.5-4.2 4.8-3.6 8 .7 3.2 3.5 5.7 6.8 6 3.3.3 6.5-1.6 7.7-4.6 1.2-2.9.3-6.6-2.1-8.5-1.7-1.4-3.6-2.4-5.8-1.8z"/><path fill="#FFF" d="M107.6 92.5c-2.9.7-5 2.3-6.3 5.1-1.9 4.1 0 9.2 4.2 11.3 4.3 2.2 9.5.8 11.8-3.1 2.4-4.2 1.1-9.3-2.9-11.8-1.9-1.2-3.9-1.7-6.1-1.5 1.3-.8 2.7-.3 4 .1 4.6 1.4 7.5 6.4 6.4 11-1.2 4.7-5.9 7.6-10.8 6.5-3.7-.8-6.2-3.1-7.2-6.8-1-3.5 0-6.5 2.6-8.9 1.1-1.1 2.5-2 4.3-1.9z"/><path fill="#FFF" d="M108.5 93.9c2.3-.6 4.2.4 5.9 1.7 2.5 2 3.3 5.7 2.1 8.5-1.3 3-4.4 4.9-7.7 4.6-3.3-.3-6.1-2.8-6.8-6-.7-3.2.7-6.5 3.6-8 .8-.4 1.9-.5 2.9-.8-.3.1-.6.3-1 .4-2.3.5-3.9 2-4.8 4.1-1.3 2.9-.4 6.3 2 8.3 2.5 2.1 6.1 2.3 8.8.6 2.5-1.7 3.8-4.9 2.9-7.8-.8-3-3.6-5.2-6.8-5.4-.4 0-.7-.1-1.1-.2z"/><path fill="#E29153" d="M108.5 93.9c.4 0 .7.1 1.1.1 3.2.1 6 2.3 6.8 5.4.8 3-.4 6.2-2.9 7.8-2.7 1.8-6.3 1.5-8.8-.6-2.4-2-3.3-5.4-2-8.3.9-2.1 2.5-3.6 4.8-4.1.4.1.7-.1 1-.3.1 0 0 0 0 0zm1.6 2c-.8 0-1.6-.1-2.4 0-2.5.6-4.3 2.7-4.4 5.3-.1 2.7 1.6 5.1 4.3 6 2.3.7 4.5.3 6.2-1.5 1.6-1.7 2.1-3.8 1.2-6-.9-2.2-2.4-3.6-4.9-3.8z"/><path fill="#FFF" d="M110.1 95.9c2.5.1 4 1.6 4.9 3.8.9 2.2.5 4.3-1.2 6-1.7 1.8-3.8 2.3-6.2 1.5-2.7-.9-4.4-3.3-4.3-6 .1-2.5 1.8-4.7 4.4-5.3.8-.1 1.6 0 2.4 0-.6.1-1.2.1-1.8.2-2.6.4-4.4 2.4-4.6 4.9-.2 2.4 1.4 4.9 3.7 5.7 2.6.9 5.4.1 6.8-2.1 1.3-2 1.1-4.9-.7-6.6-.9-.9-2.3-1.4-3.4-2.1z"/><path fill="#E29153" d="M110.1 95.9c1.2.7 2.5 1.2 3.5 2.1 1.8 1.7 2 4.6.7 6.6-1.5 2.2-4.2 3.1-6.8 2.1-2.3-.8-3.9-3.3-3.7-5.7.2-2.5 2-4.5 4.6-4.9.5-.1 1.1-.1 1.7-.2zm1.4 1.3c-2.2-1.2-5.1-.3-6.3 2-1.3 2.4-.4 5.4 2 6.6 2.4 1.2 5.3.3 6.6-2 1.2-2.5.3-5.3-2.3-6.6z"/><path fill="#FFF" d="M111.5 97.2c2.6 1.4 3.5 4.1 2.2 6.6-1.2 2.3-4.2 3.2-6.6 2-2.4-1.2-3.3-4.2-2-6.6 1.3-2.3 4.2-3.2 6.4-2zm-.2.2c-2.4-1.1-5-.1-6 2.2-1 2.3 0 4.9 2.3 5.9s5 0 6-2.2 0-4.8-2.3-5.9z"/><path fill="#E29153" d="M111.3 97.4c2.3 1 3.3 3.6 2.2 5.9-1 2.2-3.7 3.2-6 2.2s-3.3-3.7-2.3-5.9c1.1-2.3 3.7-3.2 6.1-2.2zm-.3.8c-1.8-.9-4-.1-4.9 1.6-.9 1.8-.1 4.1 1.7 5 1.8.9 4.1.1 5-1.7.8-1.8 0-4.1-1.8-4.9z"/><path fill="#FFF" d="M111 98.2c1.8.9 2.6 3.1 1.8 4.9-.8 1.8-3.2 2.6-5 1.7-1.8-.9-2.6-3.1-1.7-5 .9-1.7 3.2-2.5 4.9-1.6zm-3 6.2c1.7.8 3.6.1 4.4-1.6.8-1.7.1-3.5-1.6-4.3-1.7-.8-3.6-.1-4.4 1.5-.8 1.6-.1 3.6 1.6 4.4z"/><path fill="#E29153" d="M108 104.4c-1.7-.8-2.4-2.8-1.6-4.4.8-1.6 2.7-2.3 4.4-1.5 1.7.8 2.4 2.7 1.6 4.3-.8 1.8-2.7 2.5-4.4 1.6zm3.3-2.1c.4-.9 0-2-1-2.5s-2.3-.1-2.7.8c-.4.9.1 2 1.1 2.5 1 .4 2.2.1 2.6-.8z"/><path fill="#FFF" d="M111.3 102.3c-.4.9-1.6 1.2-2.6.8-1-.5-1.5-1.6-1.1-2.5.4-.9 1.6-1.3 2.7-.8 1 .5 1.4 1.6 1 2.5z"/><path fill="#E29153" d="M111.9 118c5.4-7.5 16.4-6.9 20.2 1.3 2 4.2 1.5 8.4-1.4 12-3 3.7-7.1 5.1-11.7 4-4.5-1-7.4-4-8.6-8.5-.6-2.5-.3-5 .6-7.3.3-.6.6-1 .9-1.5zm2.4-.8c-.4.4-.8.7-1.1 1.1-2 2.5-2.5 5.3-1.7 8.3 1.2 4.6 5.1 7.7 10 7.9 4.7.2 9.1-2.8 10.6-7.1 1.4-4 .6-7.7-2.5-10.6-3.2-3.1-7.1-3.9-11.3-2.4-1.6.5-3.2 1.2-4 2.8zm13.8-6.6c.1-.1.1-.3.2-.3 2.5-1.3 5.1-2.6 7.6-3.8.6-.3 1.4-.1 2.1-.3.8-.2 1.7-.4 2.5-.7 1.1-.4 2.2-.9 3.3-1.3.3-.1.6-.1 1-.2 0 .1.1.2.1.3l-3 1.2c-1.6.7-3.1 1.4-4.7 2-3 1-6.1 1.8-8.9 3.5-.1-.2-.2-.3-.2-.4zm6.3-3c.1.1.1.3.2.4 1-.4 1.9-.8 2.9-1.2-.1-.2-.1-.3-.2-.5-1 .5-1.9.9-2.9 1.3zm6.9.2c.8-1.7 2.7-1.7 4.1-2.5-1.3.8-2.7 1.6-4.1 2.5z"/><g stroke="#E29153" stroke-width=".5" stroke-miterlimit="10"><path fill="none" d="M141.8 105.5l3-1.2c0-.1-.1-.2-.1-.3-.3.1-.7.1-1 .2-1.1.4-2.2.9-3.3 1.3-.8.3-1.6.5-2.5.7-.7.1-1.5 0-2.1.3-2.6 1.2-5.1 2.5-7.6 3.8-.1.1-.2.2-.2.3.1.1.1.2.2.4 2.8-1.7 5.9-2.4 8.9-3.5 1.6-.6 3.2-1.4 4.7-2zM111.9 118c-.3.5-.6 1-.8 1.5-.2.4-.5.7-.7 1.1.3-.4.5-.7.7-1.1-.9 2.4-1.2 4.8-.6 7.3 1.1 4.6 4 7.5 8.6 8.5 4.6 1.1 8.7-.3 11.7-4 2.9-3.6 3.4-7.8 1.4-12-3.9-8.2-14.9-8.9-20.3-1.3zm28.7-9.5l-3.6 2.4.2.2 3.6-2.4c-.1-.1-.2-.1-.2-.2zm-2.4 5.3c0 .1.1.1.1.2 1.2-1 2.4-1.9 3.6-2.9l-.2-.2c-1.1 1-2.3 2-3.5 2.9zm3.1-6c1.4-.8 2.8-1.6 4.1-2.5-1.4.7-3.2.8-4.1 2.5z"/><path fill="#FFF" d="M150.1 104.5c-1.3-1.5-3-1.7-4.8-1.2-8.7 2.7-17.4 5.2-26 8-3.7 1.2-7.1 2.8-9.1 6.4-.6 1.1-.9 2.1-.8 3.3 0 .5 0 1.1-.2 1.5-.6 1.1-.6 2.3-.3 3.5.2.6.4 1.1.5 1.7.7 3 3.1 4.9 4.8 7.2.2.3.7.5 1.2.6 1.8.7 3.6 1.3 5.5 1.9.6.2 1.4.1 2-.1.4-.1.7-.6 1.1-.5 2.2.1 3.8-1 5.4-2.3 1-.8 2.1-1.4 3-2.2 1-1 1.9-2.1 2.8-3.2 4.6-5.3 9.2-10.7 13.8-16 .8-1 1.6-2 2.1-3.2.7-2 .3-3.9-1-5.4zm-19.4 26.7c-3 3.7-7.1 5.1-11.7 4-4.5-1-7.4-4-8.6-8.5-.6-2.5 1.2-8.3 1.5-8.8 5.4-7.5 16.4-6.9 20.2 1.3 2 4.3 1.5 8.4-1.4 12zm-2.5-20.3c-.1-.1-.1-.2-.2-.4.1-.1.1-.3.2-.3 2.5-1.3 5.1-2.6 7.6-3.8.6-.3 1.4-.1 2.1-.3.8-.2 1.7-.4 2.5-.7 1.1-.4 2.2-.9 3.3-1.3.3-.1.6-.1 1-.2 0 .1.1.2.1.3l-3 1.2c-1.6.7-3.1 1.4-4.7 2-3 1.1-6.1 1.8-8.9 3.5zm8.7 0l3.6-2.4c0 .1.1.1.1.2l-3.6 2.4c0-.1 0-.2-.1-.2zm1.5 3.2c0-.1-.1-.1-.1-.2 1.2-1 2.4-2 3.6-2.9l.2.2c-1.3.9-2.5 1.9-3.7 2.9zm2.9-6.3c.8-1.7 2.7-1.7 4.1-2.5-1.3.8-2.7 1.6-4.1 2.5z"/></g><path fill="#E29153" d="M138.2 113.8c1.2-1 2.4-2 3.6-2.9l.2.2c-1.2 1-2.4 1.9-3.6 2.9-.1 0-.1-.1-.2-.2zm-1.3-2.9l3.6-2.4c0 .1.1.1.1.2l-3.6 2.4c0-.1 0-.2-.1-.2zm-23.7 7.4c.4-.4.8-.7 1.1-1.1.4-.3.9-.7 1.3-1 6-4.6 15-1.4 16.5 5.9.8 4-1 8.1-4.5 10.4-3.6 2.4-8.4 2.3-11.9-.2-3.4-2.4-4.9-6.4-3.8-10.6.3-1.1.8-2.2 1.3-3.4zm2.1-.6c-.2.1-.3.3-.5.4-1.5 1-2 2.6-2.4 4.1-.7 3.5.4 6.5 3.2 8.7 3 2.3 6.4 2.7 9.8 1.1 4.6-2.1 6.6-7.2 4.7-11.7-1.8-4.4-7.1-6.7-11.7-5-1.1.6-2.5 1-3.1 2.4z"/><path fill="#FFF" d="M113.2 118.3c-.4 1.1-1 2.2-1.3 3.4-1.1 4.1.4 8.2 3.8 10.6 3.5 2.5 8.3 2.6 11.9.2 3.5-2.3 5.3-6.4 4.5-10.4-1.4-7.3-10.5-10.5-16.5-5.9-.4.3-.9.7-1.3 1 .8-1.6 2.4-2.3 4-2.8 4.2-1.4 8.1-.7 11.3 2.4 3 2.9 3.8 6.6 2.5 10.6-1.5 4.4-5.9 7.3-10.6 7.1-4.8-.2-8.8-3.3-10-7.9-.8-2.9-.3-5.8 1.7-8.3zm21.2-10.7c1-.4 1.9-.8 2.9-1.3.1.2.1.3.2.5-1 .4-1.9.8-2.9 1.2-.1-.1-.1-.2-.2-.4z"/><path fill="#E29153" d="M114.8 118.1c.2-.1.3-.3.5-.4 1.7-1.4 3.5-2.3 5.8-2.4 4.8-.4 8.9 2.9 9.4 7.7.6 4.5-2.8 8.7-7.6 9.5-4.6.8-9.1-2.1-10.1-6.6-.6-2.9.2-5.5 2-7.8zm1.7.6c-.7.8-1.5 1.6-1.9 2.5-1.4 2.9-.5 6.4 1.9 8.5 2.5 2.2 6.2 2.5 9.1.7 2.8-1.7 4.2-5.1 3.4-8.3-.8-3-3.7-5.5-6.8-5.6-2.2 0-4.3.3-5.7 2.2z"/><path fill="#FFF" d="M114.8 118.1c-1.8 2.3-2.6 4.9-2 7.8 1 4.4 5.5 7.4 10.1 6.6 4.8-.8 8.1-5 7.6-9.5-.6-4.8-4.7-8.1-9.4-7.7-2.2.2-4.1 1-5.8 2.4.6-1.4 2-1.8 3.2-2.3 4.5-1.7 9.9.6 11.7 5 1.9 4.5-.2 9.6-4.7 11.7-3.5 1.6-6.8 1.2-9.8-1.1-2.8-2.2-3.9-5.2-3.2-8.7.3-1.6.9-3.2 2.3-4.2z"/><path fill="#FFF" d="M116.5 118.7c1.5-1.9 3.6-2.2 5.7-2.2 3.2.1 6.1 2.5 6.8 5.6.8 3.2-.6 6.6-3.4 8.3-2.9 1.8-6.6 1.5-9.1-.7-2.5-2.1-3.3-5.6-1.9-8.5.4-1 1.2-1.7 1.9-2.5-.2.3-.3.6-.6.9-1.5 1.8-2 3.9-1.4 6.2.7 3.1 3.5 5.3 6.6 5.4 3.3.2 6.2-1.8 7.3-4.8 1-2.9.1-6.2-2.3-8-2.5-1.9-6.1-2-8.7-.2-.3.2-.6.3-.9.5z"/><path fill="#E29153" d="M116.5 118.7c.3-.2.7-.3 1-.5 2.6-1.8 6.2-1.7 8.7.2 2.4 1.9 3.4 5.2 2.3 8-1.1 3-4.1 5-7.3 4.8-3.1-.2-5.9-2.4-6.6-5.4-.5-2.3-.1-4.4 1.4-6.2.1-.3.3-.6.5-.9zm2.4.6c-.6.5-1.4.9-1.9 1.5-1.7 2-1.8 4.8-.3 6.8 1.5 2.2 4.4 3.2 7 2.2 2.3-.8 3.7-2.5 4-4.9.3-2.4-.6-4.3-2.7-5.5-1.9-1.2-4-1.4-6.1-.1z"/><path fill="#FFF" d="M118.9 119.4c2.1-1.4 4.2-1.1 6.2.1 2 1.2 2.9 3.2 2.7 5.5-.3 2.4-1.7 4.1-4 4.9-2.7.9-5.5 0-7-2.2-1.4-2.1-1.4-4.9.3-6.8.4-.7 1.2-1.1 1.8-1.5-.4.4-.9.8-1.3 1.3-1.8 1.9-2.1 4.6-.7 6.7 1.3 2 4.1 3.1 6.4 2.3 2.7-.8 4.3-3.1 4.2-5.8-.1-2.4-2-4.6-4.5-4.9-1.4-.2-2.8.2-4.1.4z"/><path fill="#E29153" d="M118.9 119.4c1.3-.1 2.7-.5 4-.4 2.5.3 4.4 2.5 4.5 4.9.2 2.7-1.5 5-4.2 5.8-2.3.7-5.1-.3-6.4-2.3-1.4-2.1-1.1-4.8.7-6.7.5-.5 1-.9 1.4-1.3 0-.1 0 0 0 0zm1.9.1c-2.5.4-4.3 2.8-3.9 5.4.4 2.7 2.9 4.5 5.6 4.1 2.6-.4 4.5-2.9 4-5.5-.4-2.8-2.8-4.5-5.7-4z"/><path fill="#FFF" d="M120.8 119.5c2.9-.5 5.3 1.2 5.8 3.9.4 2.6-1.4 5.1-4 5.5-2.7.4-5.2-1.4-5.6-4.1-.5-2.5 1.3-4.9 3.8-5.3zm0 .3c-2.5.6-4.1 2.9-3.5 5.4.6 2.4 3 3.9 5.4 3.4 2.4-.6 4-2.9 3.5-5.3-.6-2.5-3-4-5.4-3.5z"/><path fill="#E29153" d="M120.8 119.8c2.4-.5 4.8 1 5.3 3.4s-1 4.8-3.5 5.3c-2.4.5-4.8-1-5.4-3.4-.5-2.3 1-4.7 3.6-5.3zm.2.8c-1.9.4-3.3 2.3-2.9 4.2.4 2 2.3 3.3 4.3 3 2-.4 3.3-2.4 2.9-4.4-.4-1.9-2.4-3.2-4.3-2.8z"/><path fill="#FFF" d="M121 120.6c1.9-.4 3.9.9 4.3 2.8.4 2-1 4-2.9 4.4-2 .4-4-1-4.3-3-.4-1.9 1-3.8 2.9-4.2zm1.3 6.8c1.9-.4 3-2.1 2.6-3.9-.4-1.8-2.1-2.9-3.9-2.5-1.8.4-3 2-2.6 3.8.3 1.8 2.1 3 3.9 2.6z"/><path fill="#E29153" d="M122.3 127.4c-1.8.4-3.6-.8-3.9-2.6-.3-1.8.8-3.5 2.6-3.8 1.8-.4 3.5.7 3.9 2.5.4 1.8-.7 3.5-2.6 3.9zm1.4-3.7c-.2-1-1.2-1.6-2.3-1.4-1.1.2-1.9 1.3-1.7 2.2.2.9 1.3 1.5 2.4 1.3 1.1-.2 1.8-1.1 1.6-2.1z"/><path fill="#FFF" d="M123.7 123.7c.2 1-.5 1.9-1.6 2.2-1.1.2-2.2-.4-2.4-1.3-.2-1 .5-2 1.7-2.2 1-.3 2.1.3 2.3 1.3z"/></svg>