<svg xmlns="http://www.w3.org/2000/svg" viewBox="0 0 200 200"><path fill="#E29153" d="M94.1 123.6v-9h71.1c.1-.3.2-.7.2-1H94.1v-9h72.8c.2-2.3.3-4.6.3-6.9 0-37.8-30.6-68.4-68.4-68.4S30.4 60 30.4 97.8s30.6 68.4 68.4 68.4c17.8 0 34-6.8 46.2-18H84v-13.6h72.4c.2-.4.5-.7.7-1.1h-63v-9h67.7c.1-.3.3-.6.4-1H94.1z"/><g fill="#FFF"><path d="M63.8 116.8c1-.9 1.9-1.8 3-2.6 1.2-.8 1.9-1.8 1.6-3.3-.1-.6 0-1.2 0-1.8h7.5l.2.2c-.9 4 1.5 5.8 4.6 7.2.2.1.3.2.5.4-5.8-.1-11.6-.1-17.4-.1zm4.7-38.6H76v28.7h-7.5V78.2zm-2-13.8h10.8c.3 0 .9.6.9.9.1 3.7 0 7.4 0 11.3H66.5V64.4z"/><path d="M110.3 58.4h5.5c.5-2.8-.6-4.3-3.2-4.5-.9-.1-1.8 0-2.7 0-3.8-.1-7.5 0-11.3-1.1-7.8-2.2-15.7-3.7-23.6-5.4-.7-.1-1.4 0-2.5 0-.4 0-1.2 0-1.8.2-2.8 1.3-5.6 2.7-8.4 4-3.2 1.6-6.4 3.2-9.7 4.8v.5c5.2 2.8 11 .8 16.5 1.7v5.1h12.2v-5.2h27.5c.1.2.1.4.1.5v14.1c0 .5-.5 1.2-.9 1.5-1.7 1.3-2.3 3.6-.8 4.9 1.1 1 2.1 1.8 1.9 3.4 0 .3.6.6.9 1 .1.1.2.3.2.5.2.4 0 .8-.4.9-.2 0-.9.2-1.1.2-.3.1-.5.4-.3.7.1.2 2.5.9 3.2-.1.7-1 .7-2.1-.3-3-1.4-1.4-1.4-1.9.1-3 1.9-1.3 1.9-4.3-.1-5.4-.9-.5-1-1.1-1-2V59.9c-.1-.3 0-.9 0-1.5zM71 55c0 .3-.7.8-1.1.8-4.3.1-8.7 0-13.3 0 5-2.4 9.8-4.7 14.9-7.2-.1 2.4-.2 4.4-.5 6.4zm24.6-1.2c-4.4 0-8.8.1-13.2 0-2.1 0-4 .3-5.8 1.4-.5.3-1.1.6-2 1-.3-2.6-.5-4.9-.8-7.6 7.4 1.7 14.6 3.3 21.8 4.9v.3zm15 22.3c.5.3.7.8.7 1.4 0 1.1-.7 1.8-1.8 1.8s-1.9-.7-1.8-1.8c0-.3.2-.7.4-1 .6-.6 1.7-.9 2.5-.4z"/></g><path fill="#FFF" d="M92.3 92.6h35.1V97H92.3z"/><path fill="none" stroke="#FFF" stroke-miterlimit="10" d="M122.8 97v-4.4l-13.2-7.3-12.8 7.3V97"/><path fill="none" stroke="#E29153" stroke-miterlimit="10" d="M96.7 92.6V97m26-4.4V97"/><path fill="#FFF" d="M105.1 101.8l1.8-.9s0 .1.1.1l-1.8.9-.1-.1z"/><path fill="#E29153" d="M103.6 102.4c2.3-3.2 7-2.9 8.6.6.8 1.8.6 3.6-.6 5.1-1.3 1.6-3 2.2-5 1.7-1.9-.4-3.2-1.7-3.6-3.7-.3-1.1-.1-2.1.3-3.1l.3-.6zm1.1-.4l-.5.5c-.8 1.1-1 2.3-.7 3.6.5 2 2.2 3.3 4.3 3.4 2 .1 3.9-1.2 4.5-3.1.6-1.7.2-3.3-1.1-4.5-1.4-1.3-3-1.7-4.8-1-.7.2-1.4.4-1.7 1.1z"/><path fill="#E29153" d="M104.2 102.5l.5-.5c.2-.1.4-.3.6-.4 2.5-2 6.4-.6 7 2.5.3 1.7-.4 3.5-1.9 4.4-1.5 1-3.6 1-5.1-.1-1.4-1-2.1-2.8-1.6-4.5.1-.4.3-.9.5-1.4zm.9-.2l-.2.2c-.6.4-.9 1.1-1 1.8-.3 1.5.2 2.8 1.4 3.7 1.3 1 2.7 1.2 4.2.5 1.9-.9 2.8-3.1 2-5-.8-1.9-3-2.9-5-2.1-.6.1-1.1.2-1.4.9z"/><path fill="#FFF" d="M104.2 102.5l-.6 1.5c-.5 1.8.2 3.5 1.6 4.5 1.5 1.1 3.5 1.1 5.1.1 1.5-1 2.2-2.7 1.9-4.4-.6-3.1-4.5-4.5-7-2.5-.2.1-.4.3-.6.4.3-.7 1-1 1.7-1.2 1.8-.6 3.4-.3 4.8 1 1.3 1.3 1.6 2.8 1.1 4.5-.6 1.9-2.5 3.1-4.5 3.1-2.1-.1-3.8-1.4-4.3-3.4-.3-1.3 0-2.5.8-3.6z"/><path fill="#E29153" d="M104.9 102.4l.2-.2c.7-.6 1.5-1 2.4-1 2-.2 3.8 1.3 4 3.3.2 1.9-1.2 3.7-3.2 4.1-2 .3-3.9-.9-4.3-2.8-.2-1.3.1-2.4.9-3.4zm.7.3c-.3.4-.6.7-.8 1.1-.6 1.3-.2 2.7.8 3.7 1.1.9 2.6 1.1 3.9.3 1.2-.7 1.8-2.2 1.5-3.6-.3-1.3-1.6-2.3-2.9-2.4-1-.1-1.9.1-2.5.9z"/><path fill="#FFF" d="M104.9 102.4c-.8 1-1.1 2.1-.8 3.4.4 1.9 2.3 3.2 4.3 2.8 2-.4 3.5-2.2 3.2-4.1-.3-2.1-2-3.5-4-3.3-.9.1-1.7.4-2.4 1 .3-.6.8-.8 1.4-1 1.9-.7 4.2.3 5 2.1.8 1.9-.1 4.1-2 5-1.5.7-2.9.5-4.2-.5-1.2-.9-1.7-2.2-1.4-3.7 0-.6.3-1.2.9-1.7z"/><path fill="#FFF" d="M105.6 102.7c.6-.8 1.5-1 2.4-.9 1.3 0 2.6 1.1 2.9 2.4.3 1.4-.2 2.8-1.5 3.6-1.2.8-2.8.6-3.9-.3-1.1-.9-1.4-2.4-.8-3.7.3-.5.6-.8.9-1.1-.1.1-.1.3-.2.4-.7.8-.8 1.7-.6 2.6.3 1.3 1.5 2.3 2.8 2.3 1.4.1 2.7-.8 3.1-2.1.4-1.2 0-2.6-1-3.4-1.1-.8-2.6-.9-3.7-.1-.1.1-.3.2-.4.3z"/><path fill="#E29153" d="M105.6 102.7c.1-.1.3-.1.4-.2 1.1-.8 2.6-.7 3.7.1 1 .8 1.4 2.2 1 3.4-.5 1.3-1.7 2.1-3.1 2.1-1.3-.1-2.5-1-2.8-2.3-.2-1 0-1.9.6-2.6 0-.3.1-.4.2-.5zm1 .2c-.3.2-.6.4-.8.6-.7.8-.8 2-.1 2.9.7.9 1.9 1.4 3 1 1-.3 1.6-1.1 1.7-2.1.1-1-.3-1.8-1.1-2.4-.9-.4-1.8-.5-2.7 0z"/><path fill="#FFF" d="M106.6 103c.9-.6 1.8-.5 2.6 0 .9.5 1.3 1.4 1.1 2.4-.1 1-.7 1.8-1.7 2.1-1.1.4-2.4 0-3-1-.6-.9-.6-2.1.1-2.9.3-.3.7-.4.9-.6-.2.2-.4.3-.6.5-.8.8-.9 2-.3 2.9.6.9 1.7 1.3 2.7 1 1.1-.4 1.8-1.3 1.8-2.5-.1-1-.9-2-1.9-2.1-.5-.1-1.1.1-1.7.2z"/><path fill="#E29153" d="M106.6 103c.6-.1 1.2-.2 1.7-.2 1.1.1 1.9 1.1 1.9 2.1.1 1.1-.6 2.1-1.8 2.5-1 .3-2.2-.1-2.7-1-.6-.9-.5-2.1.3-2.9.2-.2.4-.4.6-.5 0-.1 0 0 0 0zm.8 0c-1.1.2-1.8 1.2-1.7 2.3.2 1.2 1.2 1.9 2.4 1.8 1.1-.2 1.9-1.3 1.7-2.4-.1-1.2-1.2-1.9-2.4-1.7z"/><path fill="#FFF" d="M107.4 103c1.2-.2 2.3.5 2.4 1.7.2 1.1-.6 2.2-1.7 2.4-1.1.2-2.2-.6-2.4-1.8-.1-1.1.7-2.1 1.7-2.3zm0 .2c-1.1.2-1.7 1.3-1.5 2.3.2 1 1.3 1.7 2.3 1.4 1-.2 1.7-1.3 1.5-2.3-.2-1-1.2-1.7-2.3-1.4z"/><path fill="#E29153" d="M107.4 103.2c1-.2 2 .4 2.3 1.5.2 1-.4 2-1.5 2.3-1 .2-2.1-.4-2.3-1.4-.2-1.2.4-2.2 1.5-2.4zm.1.3c-.8.2-1.4 1-1.2 1.8.2.9 1 1.4 1.8 1.3.8-.2 1.4-1 1.2-1.9-.1-.8-1-1.4-1.8-1.2z"/><path fill="#FFF" d="M107.5 103.5c.8-.2 1.7.4 1.8 1.2.2.8-.4 1.7-1.2 1.9-.8.2-1.7-.4-1.8-1.3-.2-.8.4-1.7 1.2-1.8zm.6 2.9c.8-.2 1.3-.9 1.1-1.7-.2-.8-.9-1.2-1.7-1.1-.8.2-1.3.9-1.1 1.6.2.9.9 1.4 1.7 1.2z"/><path fill="#E29153" d="M108.1 106.4c-.8.2-1.5-.3-1.7-1.1-.1-.8.4-1.5 1.1-1.6.8-.2 1.5.3 1.7 1.1.2.7-.3 1.5-1.1 1.6zm.6-1.6c-.1-.4-.5-.7-1-.6-.5.1-.8.5-.7 1 .1.4.6.7 1 .6.4-.2.7-.6.7-1z"/><path fill="#FFF" d="M108.7 104.8c.1.4-.2.8-.7.9-.5.1-.9-.2-1-.6-.1-.4.2-.9.7-1 .4 0 .9.3 1 .7zm-3.3 6.8c.5-.3 1.1-.6 1.6-.9v.1c-.5.3-1 .6-1.6.8 0 .1 0 0 0 0z"/><path fill="#E29153" d="M104 112.2c2.1-3 6.5-2.7 8 .5.8 1.7.6 3.3-.6 4.8s-2.8 2-4.6 1.6c-1.8-.4-2.9-1.6-3.4-3.4-.2-1-.1-2 .2-2.9.2-.3.3-.5.4-.6zm1-.3l-.4.4c-.8 1-1 2.1-.7 3.3.5 1.8 2 3 3.9 3.1 1.8.1 3.6-1.1 4.2-2.8.5-1.6.2-3-1-4.2-1.3-1.2-2.8-1.5-4.4-1-.7.2-1.3.5-1.6 1.2z"/><path fill="#E29153" d="M104.5 112.3l.4-.4c.2-.1.3-.3.5-.4 2.3-1.8 5.9-.5 6.5 2.3.3 1.6-.4 3.2-1.8 4.1-1.4.9-3.3.9-4.7-.1-1.3-1-1.9-2.6-1.5-4.2.2-.4.5-.9.6-1.3zm.9-.2l-.2.2c-.6.4-.8 1-.9 1.6-.3 1.4.2 2.6 1.3 3.5 1.2.9 2.5 1.1 3.9.4 1.8-.8 2.6-2.9 1.9-4.6-.7-1.7-2.8-2.7-4.6-2-.6.1-1.2.3-1.4.9z"/><path fill="#FFF" d="M104.5 112.3c-.2.4-.4.9-.5 1.3-.4 1.6.2 3.2 1.5 4.2 1.4 1 3.3 1 4.7.1 1.4-.9 2.1-2.5 1.8-4.1-.6-2.9-4.2-4.2-6.5-2.3-.2.1-.3.3-.5.4.3-.6.9-.9 1.6-1.1 1.7-.6 3.2-.3 4.4 1 1.2 1.2 1.5 2.6 1 4.2-.6 1.7-2.3 2.9-4.2 2.8-1.9-.1-3.5-1.3-3.9-3.1-.3-1.3-.1-2.4.6-3.4z"/><path fill="#E29153" d="M105.2 112.2l.2-.2c.7-.6 1.4-.9 2.3-1 1.9-.1 3.5 1.2 3.7 3.1.2 1.8-1.1 3.4-3 3.8-1.8.3-3.6-.9-4-2.6-.3-1.2 0-2.2.8-3.1zm.6.2c-.3.3-.6.6-.8 1-.5 1.2-.2 2.5.8 3.4 1 .9 2.4 1 3.6.3 1.1-.7 1.7-2 1.3-3.3-.3-1.2-1.4-2.2-2.7-2.2-.8 0-1.6.1-2.2.8z"/><path fill="#FFF" d="M105.2 112.2c-.7.9-1 1.9-.8 3.1.4 1.8 2.2 2.9 4 2.6 1.9-.3 3.2-2 3-3.8-.2-1.9-1.8-3.2-3.7-3.1-.9.1-1.6.4-2.3 1 .2-.6.8-.7 1.3-.9 1.8-.7 3.9.3 4.6 2 .7 1.8-.1 3.8-1.9 4.6-1.4.6-2.7.5-3.9-.4-1.1-.9-1.6-2.1-1.3-3.5.2-.6.4-1.2 1-1.6z"/><path fill="#FFF" d="M105.8 112.4c.6-.7 1.4-.9 2.2-.9 1.2 0 2.4 1 2.7 2.2.3 1.3-.2 2.6-1.3 3.3-1.1.7-2.6.6-3.6-.3-1-.9-1.3-2.2-.8-3.4.2-.2.6-.5.8-.9-.1.1-.1.2-.2.4-.6.7-.8 1.6-.6 2.4.3 1.2 1.4 2.1 2.6 2.2 1.3.1 2.5-.7 2.9-1.9.4-1.1 0-2.4-.9-3.2-1-.8-2.4-.8-3.4-.1-.1.1-.3.2-.4.2z"/><path fill="#E29153" d="M105.8 112.4c.1-.1.3-.1.4-.2 1-.7 2.4-.7 3.4.1 1 .7 1.3 2.1.9 3.2-.4 1.2-1.6 2-2.9 1.9-1.2-.1-2.3-.9-2.6-2.2-.2-.9 0-1.7.6-2.4.1-.1.2-.2.2-.4zm1 .3c-.3.2-.6.3-.8.6-.7.8-.7 1.9-.1 2.7.6.9 1.7 1.3 2.8.9.9-.3 1.5-1 1.6-1.9.1-.9-.2-1.7-1-2.2-.9-.5-1.7-.6-2.5-.1z"/><path fill="#FFF" d="M106.8 112.7c.8-.5 1.6-.5 2.4 0 .8.5 1.2 1.3 1 2.2-.1 1-.7 1.6-1.6 1.9-1.1.4-2.2 0-2.8-.9-.6-.8-.5-1.9.1-2.7.3-.2.6-.3.9-.5-.2.2-.4.3-.5.5-.7.7-.8 1.8-.3 2.7.5.8 1.6 1.2 2.5.9 1-.3 1.7-1.2 1.6-2.3-.1-.9-.8-1.8-1.8-1.9-.4-.1-1 0-1.5.1z"/><path fill="#E29153" d="M106.8 112.7c.5-.1 1.1-.2 1.6-.2 1 .1 1.7 1 1.8 1.9.1 1.1-.6 2-1.6 2.3-.9.3-2-.1-2.5-.9s-.4-1.9.3-2.7c0-.1.2-.2.4-.4zm.7.1c-1 .2-1.7 1.1-1.5 2.1.2 1.1 1.1 1.8 2.2 1.6 1-.2 1.8-1.2 1.6-2.2-.2-1.1-1.1-1.7-2.3-1.5z"/><path fill="#FFF" d="M107.5 112.8c1.1-.2 2.1.5 2.3 1.6.2 1-.6 2-1.6 2.2-1.1.2-2-.6-2.2-1.6-.2-1.1.5-2.1 1.5-2.2zm0 .1c-1 .2-1.6 1.2-1.4 2.1.2 1 1.2 1.5 2.1 1.3 1-.2 1.6-1.2 1.4-2.1-.2-.9-1.1-1.5-2.1-1.3z"/><path fill="#E29153" d="M107.5 112.9c1-.2 1.9.4 2.1 1.3.2.9-.4 1.9-1.4 2.1-1 .2-1.9-.4-2.1-1.3-.2-.9.4-1.9 1.4-2.1zm.1.3c-.8.1-1.3.9-1.2 1.7.1.8.9 1.3 1.7 1.2.8-.2 1.3-1 1.2-1.7-.1-.8-.9-1.4-1.7-1.2z"/><path fill="#FFF" d="M107.6 113.2c.8-.1 1.5.4 1.7 1.1.2.8-.4 1.6-1.2 1.7-.8.2-1.6-.4-1.7-1.2-.1-.7.5-1.5 1.2-1.6zm.5 2.7c.7-.1 1.2-.8 1-1.6-.1-.7-.8-1.1-1.5-1-.7.1-1.2.8-1 1.5.1.8.8 1.2 1.5 1.1z"/><path fill="#E29153" d="M108.1 115.9c-.7.1-1.4-.3-1.5-1-.1-.7.3-1.4 1-1.5.7-.1 1.4.3 1.5 1 .2.7-.2 1.4-1 1.5zm.6-1.5c-.1-.4-.5-.6-.9-.5-.4.1-.8.5-.7.9.1.4.5.6.9.5.5-.1.7-.5.7-.9z"/><path fill="#FFF" d="M108.7 114.4c.1.4-.2.8-.6.9-.4.1-.9-.1-.9-.5-.1-.4.2-.8.7-.9.3-.1.7.1.8.5zm-3.2 6.1c.6-.3 1.1-.6 1.7-.9 0 0 0 .1.1.1-.7.3-1.2.6-1.8.8z"/><path fill="#E29153" d="M104 121c2.2-3.1 6.7-2.8 8.3.5.8 1.7.6 3.4-.6 4.9-1.2 1.5-2.9 2.1-4.8 1.7-1.8-.4-3-1.6-3.5-3.5-.3-1-.1-2 .3-3l.3-.6zm1-.3l-.5.5c-.8 1-1 2.2-.7 3.4.5 1.9 2.1 3.2 4.1 3.2 1.9.1 3.7-1.1 4.3-2.9.6-1.6.2-3.1-1-4.4-1.3-1.3-2.9-1.6-4.6-1-.6.3-1.2.6-1.6 1.2z"/><path fill="#E29153" d="M104.6 121.2l.5-.5c.2-.1.4-.3.5-.4 2.4-1.9 6.2-.6 6.7 2.4.3 1.6-.4 3.3-1.8 4.3-1.5 1-3.4.9-4.9-.1-1.4-1-2-2.7-1.6-4.3.2-.5.4-.9.6-1.4zm.8-.3l-.2.2c-.6.4-.8 1.1-1 1.7-.3 1.5.2 2.7 1.3 3.6 1.2 1 2.6 1.1 4 .5 1.9-.9 2.7-3 1.9-4.8-.7-1.8-2.9-2.8-4.8-2.1-.3.2-.9.3-1.2.9z"/><path fill="#FFF" d="M104.6 121.2c-.2.5-.4.9-.5 1.4-.4 1.7.2 3.4 1.6 4.3 1.4 1 3.4 1.1 4.9.1 1.4-.9 2.2-2.6 1.8-4.3-.6-3-4.3-4.3-6.7-2.4-.2.1-.4.3-.5.4.3-.7 1-.9 1.6-1.2 1.7-.6 3.3-.3 4.6 1 1.2 1.2 1.6 2.7 1 4.4-.6 1.8-2.4 3-4.3 2.9-2-.1-3.6-1.3-4.1-3.2-.4-1.2-.2-2.4.6-3.4z"/><path fill="#E29153" d="M105.2 121.1l.2-.2c.7-.6 1.4-.9 2.4-1 2-.1 3.6 1.2 3.9 3.2.2 1.9-1.1 3.6-3.1 3.9-1.9.3-3.7-.9-4.1-2.7-.3-1.2 0-2.2.7-3.2zm.7.2c-.3.3-.6.6-.8 1-.6 1.2-.2 2.6.8 3.5 1 .9 2.5 1 3.7.3 1.2-.7 1.7-2.1 1.4-3.4-.3-1.2-1.5-2.3-2.8-2.3-.8 0-1.7.2-2.3.9z"/><path fill="#FFF" d="M105.2 121.1c-.8 1-1.1 2-.8 3.2.4 1.8 2.3 3 4.1 2.7 2-.3 3.3-2.1 3.1-3.9-.2-2-1.9-3.3-3.9-3.2-.9.1-1.7.4-2.4 1 .2-.6.8-.8 1.3-.9 1.9-.7 4 .3 4.8 2.1.8 1.9-.1 4-1.9 4.8-1.4.6-2.8.5-4-.5-1.2-.9-1.6-2.1-1.3-3.6.2-.6.4-1.3 1-1.7z"/><path fill="#FFF" d="M105.9 121.4c.6-.8 1.5-.9 2.3-.9 1.3 0 2.5 1 2.8 2.3.3 1.3-.2 2.7-1.4 3.4-1.2.7-2.7.6-3.7-.3-1-.9-1.4-2.3-.8-3.5.2-.4.6-.7.8-1-.1.1-.1.3-.2.4-.6.7-.8 1.6-.6 2.5.3 1.3 1.4 2.2 2.7 2.2 1.3.1 2.6-.7 3-2 .4-1.2 0-2.5-1-3.3-1-.8-2.5-.8-3.6-.1 0 .1-.2.2-.3.3z"/><path fill="#E29153" d="M105.9 121.4c.1-.1.3-.1.4-.2 1.1-.7 2.5-.7 3.6.1 1 .8 1.4 2.1 1 3.3-.5 1.2-1.7 2-3 2-1.3-.1-2.4-1-2.7-2.2-.2-.9 0-1.8.6-2.5 0-.3 0-.4.1-.5zm1 .2c-.3.2-.6.4-.8.6-.7.8-.7 2-.1 2.8.6.9 1.8 1.3 2.9.9.9-.3 1.5-1 1.6-2 .1-1-.3-1.8-1.1-2.3-.8-.5-1.6-.5-2.5 0z"/><path fill="#FFF" d="M106.9 121.6c.8-.6 1.7-.5 2.5 0s1.2 1.3 1.1 2.3c-.1 1-.7 1.7-1.6 2-1.1.4-2.3 0-2.9-.9-.6-.9-.6-2 .1-2.8.2-.2.6-.4.8-.6-.2.2-.4.3-.5.5-.7.8-.8 1.9-.3 2.8.5.8 1.7 1.3 2.6 1 1.1-.3 1.8-1.3 1.7-2.4-.1-1-.8-1.9-1.8-2-.6-.1-1.1.1-1.7.1z"/><path fill="#E29153" d="M106.9 121.6c.6-.1 1.1-.2 1.7-.2 1 .1 1.8 1 1.8 2 .1 1.1-.6 2.1-1.7 2.4-1 .3-2.1-.1-2.6-1-.6-.9-.4-2 .3-2.8.1 0 .3-.2.5-.4zm.8.1c-1 .2-1.7 1.2-1.6 2.2.2 1.1 1.2 1.9 2.3 1.7 1.1-.2 1.8-1.2 1.7-2.3-.3-1.1-1.2-1.8-2.4-1.6z"/><path fill="#FFF" d="M107.7 121.7c1.2-.2 2.2.5 2.4 1.6.2 1.1-.6 2.1-1.7 2.3-1.1.2-2.1-.6-2.3-1.7-.2-1.1.6-2.1 1.6-2.2zm0 .1c-1 .2-1.7 1.2-1.4 2.2.2 1 1.2 1.6 2.2 1.4 1-.2 1.6-1.2 1.4-2.2-.3-1-1.2-1.6-2.2-1.4z"/><path fill="#E29153" d="M107.7 121.8c1-.2 2 .4 2.2 1.4.2 1-.4 2-1.4 2.2-1 .2-2-.4-2.2-1.4-.3-1 .3-1.9 1.4-2.2zm.1.3c-.8.2-1.3 1-1.2 1.7.1.8 1 1.4 1.8 1.2.8-.2 1.4-1 1.2-1.8-.2-.7-1-1.2-1.8-1.1z"/><path fill="#FFF" d="M107.8 122.1c.8-.2 1.6.4 1.8 1.2.2.8-.4 1.6-1.2 1.8-.8.2-1.6-.4-1.8-1.2-.2-.8.4-1.6 1.2-1.8zm.5 2.8c.8-.2 1.2-.9 1.1-1.6-.2-.7-.8-1.2-1.6-1-.7.1-1.2.8-1.1 1.6.1.7.9 1.2 1.6 1z"/><path fill="#E29153" d="M108.3 124.9c-.8.2-1.5-.3-1.6-1.1-.1-.7.3-1.4 1.1-1.6.7-.1 1.4.3 1.6 1 .1.9-.3 1.6-1.1 1.7zm.6-1.5c-.1-.4-.5-.7-1-.6-.5.1-.8.5-.7.9.1.4.5.6 1 .5.5 0 .7-.4.7-.8z"/><path fill="#FFF" d="M108.9 123.4c.1.4-.2.8-.7.9-.4.1-.9-.1-1-.5-.1-.4.2-.8.7-.9.5-.1.9.1 1 .5zm-3.7 6.7c.7-.4 1.3-.7 2-1.1 0 0 0 .1.1.1-.7.4-1.4.7-2 1.1 0-.1-.1-.1-.1-.1z"/><path fill="#E29153" d="M103.6 130.8c2.6-3.7 8-3.4 9.9.6 1 2.1.7 4.1-.7 5.9-1.5 1.8-3.5 2.5-5.7 2s-3.6-2-4.2-4.2c-.1-.3-.1-.6-.1-.9-.1-.9.1-1.8.4-2.7.1-.3.2-.5.4-.7zm1.1-.4c-.2.2-.4.4-.6.5-1 1.2-1.2 2.6-.8 4.1.6 2.3 2.5 3.8 4.9 3.9 2.3.1 4.4-1.4 5.2-3.5.7-2 .3-3.8-1.2-5.2-1.6-1.5-3.5-1.9-5.5-1.2-.8.3-1.6.6-2 1.4z"/><path fill="#E29153" d="M104.2 130.9c.2-.2.4-.4.6-.5.2-.2.4-.3.6-.5 2.9-2.3 7.4-.7 8.1 2.9.4 1.9-.5 4-2.2 5.1-1.8 1.2-4.1 1.1-5.8-.1-1.7-1.2-2.4-3.2-1.9-5.2.1-.6.4-1.1.6-1.7zm1-.3c-.1.1-.2.1-.2.2-.7.5-1 1.3-1.2 2-.4 1.7.2 3.2 1.6 4.3 1.5 1.1 3.1 1.3 4.8.6 2.2-1 3.2-3.5 2.3-5.8-.9-2.1-3.5-3.3-5.7-2.5-.6.3-1.3.5-1.6 1.2z"/><path fill="#FFF" d="M104.2 130.9c-.2.6-.5 1.1-.6 1.7-.5 2 .2 4 1.9 5.2 1.7 1.2 4.1 1.3 5.8.1 1.7-1.1 2.6-3.2 2.2-5.1-.7-3.6-5.1-5.2-8.1-2.9-.2.2-.4.3-.6.5.4-.8 1.2-1.1 1.9-1.4 2.1-.7 4-.4 5.5 1.2 1.5 1.5 1.9 3.2 1.2 5.2-.7 2.2-2.9 3.6-5.2 3.5-2.4-.1-4.3-1.6-4.9-3.9-.3-1.4-.1-2.8.9-4.1z"/><path fill="#E29153" d="M105 130.8c.1-.1.2-.1.2-.2.8-.7 1.7-1.1 2.8-1.2 2.3-.2 4.3 1.4 4.6 3.8.3 2.2-1.4 4.3-3.7 4.7-2.3.4-4.5-1.1-4.9-3.2-.3-1.5.1-2.7 1-3.9zm.8.3c-.3.4-.7.8-.9 1.2-.7 1.4-.3 3.1 1 4.2 1.2 1.1 3 1.2 4.4.3 1.4-.9 2.1-2.5 1.7-4.1-.4-1.5-1.8-2.7-3.3-2.7-1.2 0-2.2.2-2.9 1.1z"/><path fill="#FFF" d="M105 130.8c-.9 1.1-1.3 2.4-1 3.9.5 2.2 2.7 3.6 4.9 3.2 2.3-.4 4-2.5 3.7-4.7-.3-2.4-2.3-4-4.6-3.8-1.1.1-2 .5-2.8 1.2.3-.7 1-.9 1.6-1.1 2.2-.8 4.8.3 5.7 2.5.9 2.2-.1 4.7-2.3 5.8-1.7.8-3.3.6-4.8-.6-1.4-1.1-1.9-2.6-1.6-4.3.2-.8.5-1.6 1.2-2.1z"/><path fill="#FFF" d="M105.8 131.1c.7-.9 1.7-1.1 2.8-1.1 1.5 0 3 1.2 3.3 2.7.4 1.6-.3 3.2-1.7 4.1-1.4.9-3.2.7-4.4-.3-1.2-1.1-1.6-2.8-1-4.2.3-.4.7-.8 1-1.2-.1.1-.2.3-.3.4-.8.9-1 1.9-.7 3 .4 1.5 1.7 2.6 3.2 2.7 1.6.1 3-.9 3.6-2.4.5-1.4 0-3-1.1-3.9-1.2-.9-3-1-4.2-.1-.2.2-.4.2-.5.3z"/><path fill="#E29153" d="M105.8 131.1c.2-.1.3-.2.5-.3 1.3-.9 3-.8 4.2.1 1.2.9 1.7 2.5 1.1 3.9-.5 1.5-2 2.4-3.6 2.4-1.5-.1-2.9-1.2-3.2-2.7-.3-1.1-.1-2.1.7-3 .1-.1.2-.2.3-.4zm1.2.3c-.3.2-.7.4-.9.7-.8 1-.9 2.3-.2 3.4s2.1 1.6 3.4 1.1c1.1-.4 1.8-1.2 2-2.4.1-1.2-.3-2.1-1.3-2.7-1-.6-2-.7-3-.1z"/><path fill="#FFF" d="M107 131.4c1-.7 2-.6 3 0s1.4 1.6 1.3 2.7c-.1 1.2-.8 2-2 2.4-1.3.5-2.7 0-3.4-1.1-.7-1-.7-2.4.2-3.4.2-.2.6-.3.9-.6l-.6.6c-.9.9-1 2.3-.3 3.3.6 1 2 1.5 3.1 1.1 1.3-.4 2.1-1.5 2-2.9-.1-1.2-1-2.2-2.2-2.4-.7.1-1.4.3-2 .3z"/><path fill="#E29153" d="M107 131.4c.7-.1 1.3-.3 2-.2 1.2.1 2.1 1.2 2.2 2.4.1 1.3-.7 2.5-2 2.9-1.1.4-2.5-.1-3.1-1.1-.7-1-.5-2.4.3-3.3.1-.3.4-.5.6-.7zm.9.1c-1.2.2-2.1 1.4-1.9 2.6.2 1.3 1.4 2.2 2.7 2 1.3-.2 2.2-1.4 2-2.7-.2-1.3-1.4-2.1-2.8-1.9z"/><path fill="#FFF" d="M107.9 131.5c1.4-.2 2.6.6 2.8 1.9.2 1.3-.7 2.5-2 2.7-1.3.2-2.5-.7-2.7-2-.2-1.2.7-2.4 1.9-2.6zm0 .2c-1.2.3-2 1.4-1.7 2.6.3 1.2 1.5 1.9 2.6 1.6 1.2-.3 2-1.4 1.7-2.6-.3-1.2-1.4-1.9-2.6-1.6z"/><path fill="#E29153" d="M107.9 131.7c1.2-.3 2.3.5 2.6 1.7.3 1.2-.5 2.3-1.7 2.6-1.2.3-2.4-.5-2.6-1.6-.3-1.3.5-2.4 1.7-2.7zm.1.3c-.9.2-1.6 1.1-1.4 2.1.2 1 1.1 1.6 2.1 1.5 1-.2 1.6-1.2 1.4-2.1-.2-1-1.2-1.6-2.1-1.5z"/><path fill="#FFF" d="M108 132c.9-.2 1.9.5 2.1 1.4.2 1-.5 2-1.4 2.1-1 .2-1.9-.5-2.1-1.5-.2-.8.5-1.8 1.4-2zm.7 3.4c.9-.2 1.5-1 1.3-1.9-.2-.9-1-1.4-1.9-1.2-.9.2-1.4 1-1.3 1.9.1.8 1 1.4 1.9 1.2z"/><path fill="#E29153" d="M108.7 135.4c-.9.2-1.8-.4-1.9-1.3-.2-.9.4-1.7 1.3-1.9.9-.2 1.7.4 1.9 1.2.1 1-.4 1.8-1.3 2zm.6-1.8c-.1-.5-.6-.8-1.1-.7-.6.1-.9.6-.8 1.1.1.5.6.8 1.2.6.5-.1.8-.5.7-1z"/><path fill="#FFF" d="M109.3 133.6c.1.5-.2 1-.8 1.1-.5.1-1.1-.2-1.2-.6-.1-.5.3-1 .8-1.1.6-.2 1.1.1 1.2.6z"/><path fill="#FFF" d="M84.1 148.2h61c4.4-4 8.2-8.6 11.4-13.6H84.1v13.6z"/></svg>