<svg xmlns="http://www.w3.org/2000/svg" viewBox="0 0 200 200"><path fill="#FFF" d="M0 0h200v200H0z"/><circle fill="#E29153" cx="98.8" cy="97.3" r="68.4"/><path fill="none" d="M98.9 69.5l-.8 2-7.6 19.4 8.3-8 7.8 7.3-6.9-18.7z"/><path fill="none" d="M106.8 90.9l3.4 3.2-.2-.7-3.4-3.2zm-16.3 0l-3.4 3.2z"/><path fill="#FFF" d="M110 93.4l.2.7-3.4-3.2-.2-.7-7.8-7.3-8.3 8-3.4 3.2-21.3 20.4 3.7 3.7 29.4-27.8 29.4 27.8 3.6-3.9z"/><path fill="#FFF" d="M76.1 122.5v20h46.2v-19.4L98.8 101l-22.7 21.5zm22.6 13.3H91v-7.5h7.7v7.5zm0-8.6H91v-7.5h7.7v7.5zm1-7.5h7.7v7.5h-7.7v-7.5zm0 8.6h7.7v7.5h-7.7v-7.5z"/><path fill="#E29153" d="M91 119.7h7.7v7.5H91zm8.7 0h7.7v7.5h-7.7zm0 8.6h7.7v7.5h-7.7zm-8.7 0h7.7v7.5H91z"/><path fill="#FFF" d="M98.1 71.5l.8-2 .7 2 7.2 19.4 3.4 3.2-8.9-22.9c2.8-.8 5-3.2 5.2-6.1.1-1.7 0-3.4 1.6-4.7.2-.2.2-.9 0-1.2-.2-.2-.8-.2-1.2-.1-1.7.7-2.9 1.8-3.4 3.5-.2.7-.4 1.5-.6 2.2-.5 1.5-1.8 2.3-3.2 2.1-.4 0-.7-.1-1.1-.2-.1 0-.1-.1-.2-.1-1.6-.7-2.4-2.5-1.4-4 1.9-2.6 3.1-5.6 5.5-7.9.5-.4.8-1.3.8-1.8-.2-1.6.4-2.5 2-2.9 1.8-.5 2.8-2.1 2.8-3.9v-7c0-.6-.2-1.5-.5-1.6-.6-.2-.9-.5-1.1-.9v-7.4c-.6-.1-1.1-.1-1.7-.2v7c-3.9-3.1-7.5-3-11.3-.1v-7c-.6 0-1.1.1-1.7.1v7.3c-.1.3-.3.5-.5.5-1.2.3-1.5 1.1-1.4 2.1V46c0 1.7 1 2.8 2.4 3.6.8.5 1.7.7 2.7 1.1 0 .8-.2 1.5 0 2.1.3.7.8 1.4 1.3 2 .2.3.9.6.9.7-.2.5-.5 1-.9 1.3-.4.3-.9.4-1.4.6-3.3 1.6-4.8 4.9-3.8 8.4.8 2.6 2.7 4.4 5.1 5.1l-9.4 22.9 3.4-3.2 7.9-19.1z"/></svg>